<svg width="542" height="500" viewBox="0 0 542 500" fill="none" xmlns="http://www.w3.org/2000/svg">
<path d="M366.501 198.884C404.322 163.632 404.322 106.477 366.501 71.2243C328.681 35.9719 267.362 35.9719 229.542 71.2243C191.721 106.477 191.721 163.632 229.542 198.884C267.362 234.137 328.681 234.137 366.501 198.884Z" fill="black"/>
<path d="M443.454 238.912C481.274 203.659 481.274 146.504 443.454 111.251C405.634 75.999 344.315 75.9989 306.494 111.251C268.674 146.504 268.674 203.659 306.494 238.912C344.315 274.164 405.634 274.164 443.454 238.912Z" fill="black"/>
<path d="M475.738 321.667C513.558 286.415 513.558 229.259 475.738 194.007C437.918 158.754 376.599 158.754 338.778 194.007C300.958 229.259 300.958 286.415 338.778 321.667C376.599 356.919 437.918 356.919 475.738 321.667Z" fill="black"/>
<path d="M436.042 372.565C473.862 337.312 473.862 280.157 436.042 244.905C398.222 209.652 336.903 209.652 299.082 244.905C261.262 280.157 261.262 337.312 299.082 372.565C336.903 407.817 398.222 407.817 436.042 372.565Z" fill="black"/>
<path d="M276.228 238.907C314.048 203.654 314.048 146.499 276.228 111.247C238.407 75.9942 177.088 75.9942 139.268 111.247C101.448 146.499 101.448 203.654 139.268 238.907C177.088 274.159 238.407 274.159 276.228 238.907Z" fill="black"/>
<path d="M243.952 321.674C281.772 286.422 281.772 229.266 243.952 194.014C206.131 158.762 144.812 158.762 106.992 194.014C69.1717 229.266 69.1717 286.422 106.992 321.674C144.812 356.927 206.131 356.927 243.952 321.674Z" fill="black"/>
<path d="M283.633 372.571C321.454 337.319 321.454 280.163 283.633 244.911C245.813 209.659 184.494 209.659 146.674 244.911C108.854 280.163 108.854 337.319 146.674 372.571C184.494 407.824 245.813 407.824 283.633 372.571Z" fill="black"/>
<path d="M183.551 415.733C242.479 415.733 249.942 397.197 249.942 380.209C249.942 363.22 244.971 339.287 244.971 339.287H326.827C326.827 339.287 321.856 363.22 321.856 380.209C321.856 397.197 329.307 415.733 388.247 415.733C447.187 415.733 439.491 461.289 439.491 461.289L439.821 513.802H131.977L132.307 461.289C132.307 461.289 124.623 415.733 183.551 415.733Z" fill="#A2563F"/>
<path d="M249.881 382.713C249.918 381.882 249.942 381.04 249.942 380.209C249.942 363.22 244.971 339.287 244.971 339.287H326.827C326.827 339.287 322.271 361.228 321.892 378C300.564 398.165 270.794 399.497 249.881 382.713Z" fill="#753122"/>
<path d="M359.479 301.177C380.112 324.029 416.49 294.835 421.131 269.991C425.053 248.972 406.118 229.638 383.556 233.225C361.935 236.663 359.479 257.272 359.479 257.272V301.177Z" fill="#A2563F"/>
<path d="M407.218 263.785C395.943 257.067 385.926 261.679 379.965 271.915C378.059 274.853 376.569 278.007 375.03 281.183C375.482 277.972 377.277 274.431 378.902 271.346C382.359 265.231 388.992 259.607 396.847 260.085C400.487 260.347 404.701 261.61 407.218 263.785Z" fill="#4B1C13"/>
<path d="M387.526 262.874C399.266 265.641 395.833 278.724 389.493 284.986L389.395 284.918C393.451 277.073 399.058 267.315 387.526 262.874Z" fill="#4B1C13"/>
<path d="M212.294 301.177C191.662 324.029 155.284 294.835 150.642 269.991C146.721 248.972 165.655 229.638 188.217 233.225C209.839 236.663 212.294 257.272 212.294 257.272V301.177Z" fill="#A2563F"/>
<path d="M164.494 263.694C175.378 256.327 186.995 260.916 192.883 271.346C194.508 274.42 196.304 277.972 196.756 281.172C195.217 277.995 193.726 274.841 191.821 271.903C185.517 261.303 176.063 257.363 164.494 263.683V263.694Z" fill="#4B1C13"/>
<path d="M184.296 262.977C172.667 266.791 178.481 277.608 182.39 284.918L182.293 284.986C175.904 278.735 172.557 265.311 184.296 262.977Z" fill="#4B1C13"/>
<path d="M197.012 260.142C197.012 260.142 167.414 338.865 270.403 369.562C275.815 371.179 281.605 371.43 287.163 370.303C308.479 365.964 361.397 349.318 373.894 289.882C386.683 229.023 375.677 154.911 322.454 129.258C297.302 117.143 266.861 118.612 242.784 132.514C215.58 148.216 184.772 183.171 197.024 260.153L197.012 260.142Z" fill="#A2563F"/>
<path d="M197.074 260.164C188.706 286.022 193.775 316.048 213.161 336.577C221.932 346.232 233.342 353.77 245.325 359.588C246.876 360.283 251.079 362.162 252.691 362.879L257.724 364.803C264.418 367.16 271.234 370.064 278.429 370.496C282.045 370.713 285.6 370.246 289.106 369.415C303.19 366.226 316.75 360.875 328.782 353.36C353.323 338.547 369.289 313.611 374.089 286.933C376.63 273.6 377.803 260.016 377.986 246.478H378.108C378.243 260.051 377.29 273.668 374.859 287.059C370.29 314.226 354.422 339.241 329.454 354.294C317.25 361.831 303.544 367.149 289.338 370.291C285.783 371.122 282.057 371.601 278.393 371.35C271.014 370.883 264.223 367.946 257.418 365.52L252.361 363.562C250.737 362.822 246.547 360.932 244.971 360.215C226.428 351.265 209.717 337.738 200.873 319.816C191.699 301.439 190.465 279.168 197.086 260.13L197.074 260.164Z" fill="#4B1C13"/>
<path d="M293.882 293.719C293.882 293.719 287.102 305.88 279.199 305.299C271.307 304.718 265.273 292.08 265.273 292.08C265.273 292.08 268.706 299.003 278.869 300.779C284.696 301.792 293.882 293.719 293.882 293.719Z" fill="#753122"/>
<path opacity="0.5" d="M297.718 286.102C297.718 291.897 288.141 300.779 279.663 300.779C271.185 300.779 264.308 291.852 263.514 286.102C263.001 282.424 270.404 276.105 278.869 276.105C287.347 276.105 297.718 280.306 297.718 286.102Z" fill="#753122"/>
<path d="M264.027 257.842C264.027 257.842 260.717 240.728 249.429 230.219C239.742 221.201 224.107 220.985 213.455 229C206.602 234.147 200.359 242.983 202.033 257.842H264.039H264.027Z" fill="#753122"/>
<mask id="mask0_169_2" style="mask-type:luminance" maskUnits="userSpaceOnUse" x="201" y="231" width="66" height="46">
<path d="M266.397 266.245C266.165 264.753 261.022 234.102 230.043 231.221C225.206 230.765 220.32 231.46 215.995 233.521C212.013 235.411 207.298 238.622 204.329 243.894C198.649 253.97 202.424 266.37 212.111 273.315C213.479 274.295 215.006 275.228 216.704 276.082C216.704 276.082 228.04 265.607 255.415 269.763C259.397 270.366 263.563 269.239 266.275 266.45C266.311 266.415 266.336 266.381 266.372 266.358C266.397 266.324 266.409 266.29 266.409 266.245H266.397Z" fill="white"/>
</mask>
<g mask="url(#mask0_169_2)">
<path d="M266.397 266.245C266.165 264.753 261.022 234.101 230.043 231.221C225.206 230.765 220.32 231.46 215.995 233.521C212.013 235.411 207.298 238.622 204.329 243.894C198.649 253.97 202.424 266.37 212.111 273.315C213.479 274.295 215.006 275.228 216.704 276.082C216.704 276.082 228.04 265.607 255.415 269.763C259.397 270.366 263.563 269.239 266.275 266.449C266.311 266.415 266.336 266.381 266.372 266.358C266.397 266.324 266.409 266.29 266.409 266.245H266.397Z" fill="#E7E0EE"/>
<path d="M204.329 243.894C207.298 238.622 212.013 235.411 215.995 233.521C220.332 231.46 225.206 230.777 230.043 231.221C251.2 233.191 260.301 248.107 264.027 257.842C246.62 247.036 217.901 247.56 202.375 259.413C201.056 254.289 201.556 248.812 204.329 243.894Z" fill="#BDB2CC"/>
<path d="M237.263 274.955C249.298 274.955 259.055 264.943 259.055 252.593C259.055 240.242 249.298 230.23 237.263 230.23C225.227 230.23 215.47 240.242 215.47 252.593C215.47 264.943 225.227 274.955 237.263 274.955Z" fill="#4C4C4E"/>
<path d="M258.945 254.653C259.019 253.925 259.055 253.196 259.055 252.456C259.055 240.102 249.295 230.094 237.263 230.094C225.23 230.094 215.47 240.102 215.47 252.456C215.47 252.558 215.482 252.65 215.482 252.752C229.823 248.141 244.8 249.826 258.945 254.653Z" fill="black"/>
<path d="M236.639 266.951C243.069 266.951 248.281 260.966 248.281 253.583C248.281 246.201 243.069 240.216 236.639 240.216C230.21 240.216 224.998 246.201 224.998 253.583C224.998 260.966 230.21 266.951 236.639 266.951Z" fill="black"/>
<path d="M242.1 252.035C242.1 255.189 244.726 257.739 247.976 257.739C251.225 257.739 253.851 255.189 253.851 252.035C253.851 248.881 251.225 246.33 247.976 246.33C244.726 246.33 242.1 248.881 242.1 252.035Z" fill="#E7E0EE"/>
<path d="M249.613 263.375C249.613 266.529 252.239 269.08 255.488 269.08C258.738 269.08 261.364 266.529 261.364 263.375C261.364 260.221 258.738 257.671 255.488 257.671C252.239 257.671 249.613 260.221 249.613 263.375Z" fill="#E7E0EE"/>
</g>
<path d="M245.679 234.785C245.679 234.785 246.815 228.124 245.105 227.93C243.395 227.737 241.22 232.519 241.22 232.519L245.679 234.785Z" fill="black"/>
<path d="M250.578 238.485C250.578 238.485 252.887 232.098 251.225 231.642C249.576 231.187 246.583 235.57 246.583 235.57L250.578 238.497V238.485Z" fill="black"/>
<path d="M210.559 232.394C210.559 232.394 203.792 227.156 200.274 230.196C196.756 233.236 204.488 239.351 204.488 239.351L210.559 232.405V232.394Z" fill="black"/>
<path d="M203.963 239.18C203.963 239.18 195.351 237.54 193.775 241.764C192.212 245.989 202.118 247.981 202.118 247.981L203.963 239.18Z" fill="black"/>
<path d="M266.433 265.345C266.433 265.345 259.629 239.1 238.044 232.735C231.863 230.913 225.145 231.061 219.061 233.134C211.341 235.764 201.679 244.349 202.387 258.513C202.387 258.513 193.58 241.651 209.753 231.357C225.499 221.338 260.704 231.118 266.446 265.345H266.433Z" fill="black"/>
<path d="M297.156 258.32C297.156 258.32 300.466 241.207 311.753 230.697C321.44 221.679 337.076 221.463 347.728 229.479C354.581 234.625 360.823 243.461 359.15 258.32H297.143H297.156Z" fill="#753122"/>
<mask id="mask1_169_2" style="mask-type:luminance" maskUnits="userSpaceOnUse" x="294" y="231" width="66" height="46">
<path d="M294.786 266.711C295.018 265.22 300.161 234.568 331.139 231.688C335.977 231.232 340.863 231.927 345.187 233.988C349.169 235.878 353.885 239.089 356.853 244.361C362.533 254.437 358.759 266.837 349.072 273.782C347.704 274.762 346.177 275.695 344.479 276.549C344.479 276.549 333.143 266.074 305.767 270.23C301.785 270.833 297.62 269.706 294.908 266.916C294.871 266.882 294.847 266.848 294.81 266.825C294.786 266.791 294.773 266.757 294.773 266.711H294.786Z" fill="white"/>
</mask>
<g mask="url(#mask1_169_2)">
<path d="M294.786 266.711C295.018 265.22 300.161 234.568 331.139 231.688C335.977 231.232 340.863 231.927 345.187 233.988C349.169 235.878 353.885 239.089 356.853 244.361C362.533 254.437 358.759 266.837 349.072 273.782C347.704 274.762 346.177 275.695 344.479 276.549C344.479 276.549 333.143 266.074 305.767 270.23C301.785 270.833 297.62 269.706 294.908 266.916C294.871 266.882 294.847 266.848 294.81 266.825C294.786 266.791 294.773 266.757 294.773 266.711H294.786Z" fill="#E7E0EE"/>
<path d="M356.841 244.361C353.872 239.089 349.157 235.878 345.175 233.988C340.838 231.927 335.964 231.244 331.127 231.688C309.97 233.658 300.869 248.574 297.143 258.309C314.55 247.503 343.269 248.027 358.795 259.88C360.115 254.756 359.614 249.279 356.841 244.361Z" fill="#BDB2CC"/>
<path d="M326.815 276.492C338.851 276.492 348.608 266.48 348.608 254.13C348.608 241.779 338.851 231.767 326.815 231.767C314.779 231.767 305.022 241.779 305.022 254.13C305.022 266.48 314.779 276.492 326.815 276.492Z" fill="#4C4C4E"/>
<path d="M348.498 256.179C348.571 255.451 348.608 254.722 348.608 253.982C348.608 241.628 338.847 231.619 326.815 231.619C314.783 231.619 305.022 241.628 305.022 253.982C305.022 254.084 305.035 254.175 305.035 254.278C319.376 249.666 334.352 251.351 348.498 256.179Z" fill="black"/>
<path d="M326.192 267.497C332.621 267.497 337.833 261.512 337.833 254.13C337.833 246.747 332.621 240.762 326.192 240.762C319.763 240.762 314.551 246.747 314.551 254.13C314.551 261.512 319.763 267.497 326.192 267.497Z" fill="black"/>
<path d="M331.652 252.035C331.652 255.189 334.279 257.739 337.528 257.739C340.777 257.739 343.404 255.189 343.404 252.035C343.404 248.881 340.777 246.33 337.528 246.33C334.279 246.33 331.652 248.881 331.652 252.035Z" fill="#E7E0EE"/>
<path d="M337.247 266.711C337.247 269.865 339.874 272.416 343.123 272.416C346.372 272.416 348.999 269.865 348.999 266.711C348.999 263.557 346.372 261.007 343.123 261.007C339.874 261.007 337.247 263.557 337.247 266.711Z" fill="#E7E0EE"/>
</g>
<path d="M315.503 236.162C315.503 236.162 314.367 229.501 316.077 229.308C317.788 229.114 319.962 233.897 319.962 233.897L315.503 236.162Z" fill="black"/>
<path d="M310.593 239.852C310.593 239.852 308.284 233.464 309.933 233.009C311.582 232.553 314.575 236.937 314.575 236.937L310.58 239.863L310.593 239.852Z" fill="black"/>
<path d="M350.623 233.76C350.623 233.76 357.39 228.522 360.909 231.562C364.427 234.602 356.694 240.717 356.694 240.717L350.623 233.771V233.76Z" fill="black"/>
<path d="M357.219 240.546C357.219 240.546 365.831 238.907 367.407 243.131C368.971 247.355 359.064 249.348 359.064 249.348L357.219 240.546Z" fill="black"/>
<path d="M294.749 266.711C294.749 266.711 301.553 240.466 323.138 234.102C329.319 232.28 336.038 232.428 342.121 234.5C349.841 237.13 359.504 245.715 358.796 259.88C358.796 259.88 367.603 243.017 351.429 232.724C335.684 222.704 300.478 232.485 294.737 266.711H294.749Z" fill="black"/>
<path d="M274.056 229.923C274.056 230.105 272.529 276.72 272.529 276.879L272.382 277.005L264.112 283.722C263.086 285.077 263.77 287.821 264.662 289.643C266.409 293.731 269.988 296.999 274.361 298.627C276.279 299.458 279.614 300.005 281.055 300.255C282.9 299.857 284.769 299.173 286.504 298.354C291.805 295.871 296.08 291.636 298.279 286.478C296.911 291.715 292.172 296.52 286.955 299.151C285.135 300.061 283.254 300.802 281.202 301.291C276.255 300.836 271.185 299.287 267.63 295.883C264.711 293.105 260.777 286.819 263.318 283.085C263.343 283.051 263.379 282.994 263.416 282.982L271.784 276.367L271.625 276.663C271.747 276.686 273.702 229.661 274.044 229.911L274.056 229.923Z" fill="#4B1C13"/>
<path opacity="0.65" d="M287.31 285.407C287.31 287.434 283.682 289.085 279.199 289.085C274.716 289.085 271.088 287.434 271.088 285.407C271.088 283.381 274.716 281.73 279.199 281.73C283.682 281.73 287.31 283.381 287.31 285.407Z" fill="#F4E5E3"/>
<path opacity="0.5" d="M332.202 317.22C347.746 317.22 360.347 308.462 360.347 297.659C360.347 286.856 347.746 278.098 332.202 278.098C316.658 278.098 304.057 286.856 304.057 297.659C304.057 308.462 316.658 317.22 332.202 317.22Z" fill="#753122"/>
<path opacity="0.5" d="M233.207 317.22C248.751 317.22 261.352 308.462 261.352 297.659C261.352 286.856 248.751 278.098 233.207 278.098C217.663 278.098 205.062 286.856 205.062 297.659C205.062 308.462 217.663 317.22 233.207 317.22Z" fill="#753122"/>
<path d="M256.856 269.888C256.856 269.888 232.376 265.835 216.704 276.071C216.704 276.071 225.56 264.662 256.856 269.888Z" fill="black"/>
<path d="M305.267 270.298C305.267 270.298 328.806 266.313 344.479 276.549C344.479 276.549 336.563 265.072 305.267 270.298Z" fill="black"/>
<path d="M289.24 340.824C289.24 340.824 281.801 349.193 272.407 340.824C272.407 340.824 280.799 344.046 289.24 340.824Z" fill="#753122"/>
<path d="M263.001 246.171C263.001 246.171 261.315 238.918 256.856 234.102C256.856 234.102 264.564 235.98 263.001 246.171Z" fill="#753122"/>
<path d="M298.78 244.793C298.78 244.793 300.466 237.54 304.925 232.724C304.925 232.724 297.217 234.602 298.78 244.793Z" fill="#753122"/>
<path opacity="0.43" d="M351.307 288.197C351.307 290.224 348.705 291.875 345.493 291.875C342.28 291.875 339.678 290.224 339.678 288.197C339.678 286.17 342.28 284.519 345.493 284.519C348.705 284.519 351.307 286.17 351.307 288.197Z" fill="#F4E5E3"/>
<path opacity="0.43" d="M223.935 288.197C223.935 290.224 221.334 291.875 218.121 291.875C214.908 291.875 212.306 290.224 212.306 288.197C212.306 286.17 214.908 284.519 218.121 284.519C221.334 284.519 223.935 286.17 223.935 288.197Z" fill="#F4E5E3"/>
<path d="M305.828 316.913C305.828 316.913 296.911 310.742 279.577 311.186C262.243 311.63 252.959 317.061 252.959 317.061C252.959 317.061 258.86 333.685 279.87 333.15C300.881 332.614 305.828 316.913 305.828 316.913Z" fill="#753122"/>
<path d="M331.054 300.597C322.197 313.008 305.364 319.338 289.863 320.374C287.578 320.454 285.306 320.465 283.034 320.443V320.329C285.282 320.033 287.542 319.828 289.777 319.589C305.547 317.551 321.22 312.768 331.054 300.597Z" fill="#4B1C13"/>
<path d="M230.837 303.102C240.903 314.898 257.663 318.792 273.066 320.01C275.314 320.135 277.574 320.226 279.846 320.408V320.522C277.586 320.659 275.314 320.761 273.03 320.807C261.645 320.693 250.174 317.721 240.622 311.858C237.018 309.466 232.938 306.552 230.837 303.113V303.102Z" fill="#4B1C13"/>
<path d="M387.502 227.634C387.502 227.634 387.649 239.487 378.499 239.897C366.943 240.409 363.193 187.35 363.193 187.35C363.193 187.35 315.809 187.692 309.347 147.032C309.347 147.032 308.675 162.175 301.749 162.585C294.822 162.995 294.773 148.375 294.773 148.375C294.773 148.375 293.735 164.202 282.851 163.997C271.967 163.792 267.826 147.02 267.826 147.02C267.826 147.02 263.037 184.697 207.738 196.459C207.738 196.459 209.142 233.134 196.792 236.413C184.442 239.692 185.31 196.869 185.31 196.869C185.31 196.869 194.288 112.452 293.87 116.915C393.451 121.379 387.49 227.623 387.49 227.623L387.502 227.634Z" fill="black"/>
<path d="M129.9 95.8965L75.284 249.985L164.348 406.75L97.2232 445.907C97.2232 445.907 -6.01063 291.419 0.878946 251.283C7.75631 211.136 102.806 69.8336 102.806 69.8336L129.912 95.8965H129.9Z" fill="#A2563F"/>
<path d="M100.949 72.0083C100.949 72.0083 87.4508 46.5489 114.96 17.5939C114.96 17.5939 121.251 3.22459 130.511 0.890431C139.758 -1.43234 141.835 8.16618 141.835 8.16618C141.835 8.16618 147.087 1.42558 153.732 3.81667C160.366 6.21915 160.744 14.5196 160.744 14.5196C160.744 14.5196 168.269 6.94786 175.965 9.85133C183.673 12.7548 180.02 22.8429 180.02 22.8429C180.02 22.8429 186.592 16.6716 192.041 21.0781C197.489 25.4845 194.691 36.2217 186.995 45.4103C186.995 45.4103 198.649 53.7563 179.239 70.1865C159.84 86.6167 129.9 95.8965 129.9 95.8965L100.937 72.0083H100.949Z" fill="#A2563F"/>
<path d="M185.811 45.638C175.562 40.0702 156.958 30.4717 145.084 33.489C141.835 34.3999 138.854 37.2009 140.112 40.537C142.69 46.7994 149.421 50.8073 155.467 53.9955C158.619 55.6465 162.406 56.7509 165.753 57.3544C156.554 57.1039 141.92 49.2816 138.94 40.8445C137.559 36.9845 140.992 33.5687 144.791 32.6123C156.371 29.5722 176.405 39.7058 185.823 45.638H185.811Z" fill="#4B1C13"/>
<path d="M180.021 22.843L171.653 37.9865" stroke="#4B1C13" stroke-miterlimit="10"/>
<path d="M160.732 14.5197C160.732 14.5197 156.909 26.7029 150.984 32.4415" stroke="#4B1C13" stroke-miterlimit="10"/>
<path d="M141.199 43.8732C141.199 43.8732 131.818 54.7811 125.71 47.5509C119.101 39.7172 140.442 24.437 141.822 8.1662" stroke="#4B1C13" stroke-miterlimit="10"/>
<path d="M122.473 68.9568C127.371 59.1419 139.514 53.9043 150.752 54.0637C156.982 54.4281 157.214 54.5533 150.789 54.8607C138.927 55.8741 128.776 59.0964 122.485 68.9568H122.473Z" fill="#4B1C13"/>
<path d="M141.896 44.7841C141.896 44.7841 138.402 48.6667 139.062 51.9232C139.624 54.6559 142.592 55.7034 142.592 55.7034" stroke="#4B1C13" stroke-miterlimit="10"/>
<path d="M119.358 9.9765C119.358 9.9765 112.334 22.6607 113.531 30.6651C114.057 34.2062 117.685 36.6429 121.398 35.8003C124.379 35.1285 128.471 32.9879 133.308 27.3062" stroke="#4B1C13" stroke-miterlimit="10"/>
<path d="M93.4123 281.889L74.7469 250.247L74.6248 250.042C74.6248 250.076 129.302 95.7712 129.326 95.7142L129.424 95.4524L129.717 95.3613C136.607 93.1182 143.362 90.4083 149.922 87.391C162.821 81.2652 175.831 74.1261 185.078 63.5597C189.561 58.5954 192.493 50.1355 186.165 45.4899C190.441 40.3548 194.227 34.1493 194.276 27.5226C194.386 22.6152 189.94 18.4251 184.65 20.6681C182.403 21.4652 180.412 23.2528 178.714 24.7899C185.139 9.25921 170.835 4.86416 160.183 15.829C160.464 5.36515 150.239 -0.897238 142.348 8.49634L141.566 9.47554C140.137 2.01762 134.053 -1.39823 126.932 3.12208C121.63 6.7201 118.137 12.3904 115.498 17.9013C108.547 25.2112 102.904 33.7508 100.119 43.2127C97.4435 52.4924 97.4557 62.8652 101.511 71.7578L101.658 72.0424L101.487 72.3043C72.6092 115.947 44.3179 160.057 19.8624 206.023C12.8018 219.88 5.44798 233.84 1.539 248.801C0.195286 253.8 0.659478 259.014 1.539 264.047C3.44463 274.158 7.03602 283.927 10.9084 293.514C6.98716 283.939 3.33469 274.192 1.39242 264.07C0.488466 259.026 -0.000142395 253.788 1.33135 248.744C1.90549 246.228 2.66284 243.757 3.4935 241.309C7.74452 229.092 13.5347 217.398 19.4593 205.83C43.7072 159.739 71.7785 115.492 100.473 71.7009C100.473 71.7009 100.448 72.2702 100.436 72.2474C96.2219 62.9677 96.2341 52.5038 98.9704 42.8939C101.792 33.2954 107.509 24.6077 114.545 17.1954C117.782 10.3523 125.564 -2.55961 136.289 0.446332C139.709 1.69881 141.627 4.86416 142.47 8.02951L141.383 7.80179C149.299 -1.69426 160.61 3.1904 161.355 14.4627L160.354 14.1211C162.357 12.231 164.654 10.6825 167.292 9.62357C172.545 7.24386 180.241 9.08842 181.267 15.1003C181.816 17.776 181.45 20.4404 180.644 22.9909L179.63 22.4102C186.031 16.4211 195.205 18.2998 195.522 27.4657C195.486 34.286 191.796 40.4573 187.509 45.729L187.399 44.932C193.836 50.1696 190.758 59.0053 186.067 64.2201C172.667 79.3637 149.665 89.7365 130.132 96.4088L130.523 96.0444C130.499 95.4524 75.6631 251.966 75.8585 249.689L93.4489 281.866L93.4123 281.889Z" fill="#4B1C13"/>
<path d="M129.008 344.536C129.008 344.536 167.023 416.234 229.665 409.3L132.148 486.783C132.148 486.783 103.38 461.642 67.2463 398.7L129.008 344.536Z" fill="#A2563F"/>
<path d="M121.422 331.18C121.422 331.18 172.264 351.185 185.847 401.307C185.847 401.307 200.909 470.82 283.022 470.82C365.135 470.82 381.895 415.665 381.895 415.665C381.895 415.665 466.61 396.958 461.809 504.101H122.534V486.783C115.583 482.729 68.468 421.882 72.719 408.059C72.719 408.059 125.967 396.001 121.422 331.191V331.18Z" fill="#BDB2CC"/>
<path d="M198.466 220.165C198.466 220.165 219.465 203.974 258.518 214.392C258.518 214.392 263.135 207.856 259.41 201.674L256.918 206.672C256.918 206.672 257.162 200.091 245.374 198.748C233.586 197.404 206.577 199.021 198.466 220.165Z" fill="black"/>
<path d="M363.193 225.881C363.193 225.881 344.125 207.731 304.119 214.301C304.119 214.301 300.258 207.355 304.656 201.56L306.574 206.775C306.574 206.775 307.063 200.216 318.936 200.023C330.81 199.829 357.488 204.065 363.193 225.892V225.881Z" fill="black"/>
</svg>
