<svg width="1440" height="996" viewBox="0 0 1440 996" fill="none" xmlns="http://www.w3.org/2000/svg">
<path d="M1313.69 133.051C1313.69 133.051 1364.7 163.014 1336.39 218.762C1336.39 218.762 1410.82 223.913 1427.41 162.885C1441.03 112.718 1313.69 133.065 1313.69 133.065V133.051Z" fill="#1E0200"/>
<path d="M1472.38 148.003C1457.79 150.779 1454.62 149.663 1454.62 149.663L1399.39 84.3706L1363.97 158.477L1383.92 177.365C1391.52 184.548 1394.6 194.807 1392.12 204.581C1387.16 224.069 1383.13 259.684 1403.08 287.43L1495.42 232.183C1497.34 202.363 1493.03 171.355 1472.4 147.988L1472.38 148.003Z" fill="#C2733B"/>
<path d="M1383.91 177.379L1363.95 158.491L1397.91 87.4902C1406.23 105.906 1418.46 135.697 1416.15 156.574C1414.32 173.158 1399.36 183.847 1388.14 182.388C1386.94 180.613 1385.53 178.925 1383.91 177.394V177.379Z" fill="#9E300D"/>
<path d="M1325.41 15.5306C1305.38 16.4035 1286.79 25.1463 1273.29 38.84C1264.08 48.1695 1255.65 60.8902 1257.15 75.3566C1260.28 105.563 1289.76 124.322 1289.76 124.322C1289.76 124.322 1295.14 139.947 1292.28 150.994C1289.43 162.04 1306.37 162.556 1309.37 161.225C1312.36 159.894 1315.6 157.304 1315.6 157.304C1315.6 157.304 1318.62 164.43 1316.3 169.739C1315.13 172.372 1316.62 175.434 1319.49 176.478C1321.12 177.065 1323.23 177.466 1325.92 177.437C1325.92 177.437 1327.99 189.185 1338.48 183.776C1338.48 183.776 1348.3 193.849 1359.46 191.245C1364.68 190.029 1377.97 182.345 1388.6 167.034C1405.33 142.952 1413.81 111.229 1401.5 80.4792C1399.1 74.4837 1401.95 70.5917 1398.39 63.5946C1382.48 32.358 1357.33 14.1284 1325.41 15.5163V15.5306Z" fill="#C2733B"/>
<path d="M1319.2 150.665C1319.2 150.665 1321.71 158.034 1316.75 161.139L1315.52 157.275C1315.52 157.275 1318.75 151.709 1319.2 150.665Z" fill="#9E300D"/>
<path opacity="0.28" d="M1325.94 177.451C1323.23 177.48 1321.12 177.079 1319.51 176.492C1316.64 175.448 1315.17 172.386 1316.31 169.753C1316.42 169.51 1316.51 169.266 1316.59 169.023C1326.99 165.188 1334.75 166.805 1341.78 158.306C1350.16 173.974 1338.5 183.804 1338.5 183.804C1328 189.213 1325.94 177.465 1325.94 177.465V177.451Z" fill="#F92222"/>
<path opacity="0.28" d="M1341.78 158.277C1334.75 166.777 1326.99 165.16 1316.59 168.994C1316.51 169.238 1316.42 169.481 1316.31 169.724C1315.15 172.371 1316.62 175.419 1319.51 176.464C1321.13 177.05 1323.24 177.451 1325.94 177.422C1325.94 177.422 1337.29 170.483 1341.78 158.263V158.277Z" fill="#C94729"/>
<path opacity="0.28" d="M1309.38 161.224C1306.9 162.326 1294.87 162.169 1292.42 155.801C1295.52 158.391 1306.7 164.444 1315.26 143.639C1316.76 143.696 1320.47 146.128 1320.1 148.99C1318.61 152.682 1315.55 157.275 1315.55 157.275C1315.55 157.275 1312.39 159.908 1309.4 161.224H1309.38Z" fill="#9E300D"/>
<path d="M1289.83 124.292C1291.63 129.558 1292.87 134.996 1293.38 140.519C1293.6 143.281 1293.63 146.085 1293.23 148.861L1292.84 150.936L1292.55 152.896C1292.59 153.54 1292.58 154.198 1292.75 154.814C1292.95 155.415 1293.1 156.044 1293.51 156.559C1293.79 157.132 1294.33 157.561 1294.78 158.033C1295.04 158.248 1295.34 158.419 1295.6 158.62C1295.86 158.82 1296.16 159.006 1296.48 159.135C1297.68 159.807 1299.09 160.165 1300.47 160.494C1301.88 160.752 1303.3 160.952 1304.75 160.981C1306.16 161.024 1307.71 160.981 1308.85 160.623C1310.06 160.079 1311.43 159.392 1312.62 158.706C1313.78 157.962 1314.79 157.017 1315.66 155.958C1316.51 154.914 1317.13 153.64 1317.86 152.438C1318.59 151.236 1319.3 150.02 1320.06 148.818L1320.2 148.875C1319.66 150.163 1319.07 151.437 1318.5 152.71C1317.88 153.955 1317.4 155.271 1316.56 156.516C1315.75 157.747 1314.65 158.82 1313.41 159.707C1312.79 160.165 1312.11 160.466 1311.46 160.866C1310.78 161.224 1310.2 161.625 1309.43 161.954C1307.74 162.483 1306.25 162.469 1304.68 162.469C1303.13 162.44 1301.62 162.183 1300.1 161.882C1298.61 161.467 1297.1 161.052 1295.77 160.237C1295.41 160.065 1295.09 159.865 1294.79 159.621C1294.48 159.392 1294.16 159.178 1293.86 158.92C1293.35 158.348 1292.75 157.833 1292.42 157.132C1291.97 156.502 1291.79 155.772 1291.57 155.043C1291.4 154.327 1291.44 153.569 1291.41 152.853L1291.79 150.721L1292.22 148.732C1292.69 146.056 1292.73 143.309 1292.59 140.576C1292.3 135.11 1291.26 129.644 1289.66 124.335L1289.82 124.292H1289.83Z" fill="#C2733B"/>
<path d="M1401.63 98.5942C1425.93 104.275 1434.74 70.5772 1425.5 52.9914C1417.69 38.1243 1396.2 33.9461 1383.63 45.7081C1371.58 56.9836 1380.11 70.9778 1380.11 70.9778L1401.63 98.5942Z" fill="#F9C097"/>
<path d="M1413.3 54.0503C1410.09 54.3222 1406.93 55.2952 1404.48 57.0695C1401.98 58.7723 1400.34 61.2764 1399.67 64.0094C1399.55 64.7105 1399.27 65.3544 1399.28 66.0842L1399.19 68.2019C1399.16 68.9031 1399.3 69.6328 1399.3 70.334C1399.36 71.0494 1399.27 71.7649 1399.36 72.4803L1399.55 74.6696C1399.59 75.3993 1399.58 76.1434 1399.7 76.8875C1399.9 78.3613 1400.04 79.8637 1400.03 81.4377L1399.73 81.5236C1398.9 80.1785 1398.21 78.7619 1397.58 77.3167C1396.97 75.8715 1396.68 74.3119 1396.29 72.7951C1396.11 72.0367 1396.14 71.2211 1396.08 70.4341C1396.08 69.6328 1396 68.8458 1396.12 68.0588C1396.43 66.4705 1396.62 64.8822 1397.3 63.3512C1398.4 60.289 1400.65 57.5274 1403.63 55.8962C1406.6 54.2649 1410.01 53.6067 1413.31 53.7784V54.0646L1413.3 54.0503Z" fill="#C2733B"/>
<path d="M1412.12 77.3024C1411.83 75.4137 1411.42 73.5392 1410.8 71.7505C1410.23 69.9619 1409.44 68.2448 1408.37 66.7996C1407.27 65.3258 1405.78 64.5102 1404.38 63.852C1402.91 63.1651 1401.04 63.0077 1398.82 62.8074L1398.73 62.5355C1400.43 61.2191 1402.9 60.5466 1405.39 61.1476C1406.62 61.4481 1407.73 62.1063 1408.57 62.9362C1409.39 63.7804 1410.01 64.7105 1410.52 65.6549C1411.52 67.5437 1412.01 69.504 1412.32 71.4644C1412.56 73.4247 1412.63 75.3707 1412.43 77.3167H1412.12V77.3024Z" fill="#C2733B"/>
<path d="M1401.66 98.4511C1404.23 98.9805 1406.88 99.1522 1409.45 98.7515C1412.03 98.3652 1414.46 97.4208 1416.56 96.0185C1420.77 93.1996 1423.56 88.907 1425.33 84.4426C1427.11 79.9352 1427.97 75.1274 1428.06 70.3482C1428.11 65.569 1427.41 60.7468 1425.64 56.3254C1423.89 51.9039 1420.77 48.0691 1416.79 45.2788C1416.32 44.8925 1415.75 44.6349 1415.24 44.3058C1414.69 44.0053 1414.21 43.6333 1413.64 43.4043C1412.52 42.8892 1411.42 42.3312 1410.25 41.9734C1407.95 41.0577 1405.47 40.657 1403.01 40.3994C1401.77 40.3851 1400.51 40.2134 1399.27 40.3708C1398.65 40.4138 1398.01 40.4424 1397.41 40.5139L1395.56 40.843C1394.94 40.9146 1394.34 41.0863 1393.75 41.2723L1391.95 41.8017L1390.25 42.5315C1389.66 42.7604 1389.08 43.0037 1388.57 43.3328C1384.23 45.7081 1380.4 49.2281 1378.39 53.7497L1378.09 53.6639C1378.7 51.2457 1379.94 48.9705 1381.52 46.91C1382.31 45.8798 1383.25 44.964 1384.25 44.0912C1384.74 43.6619 1385.21 43.1754 1385.75 42.789L1387.41 41.6443C1391.91 38.5965 1397.66 37.3659 1403.24 37.5376C1408.83 37.8811 1414.32 39.7985 1418.68 43.0323C1423.02 46.2948 1426.29 50.7305 1427.98 55.5527C1429.72 60.3605 1430.28 65.4259 1430.07 70.3911C1429.81 75.3706 1428.77 80.3216 1426.77 84.9577C1424.74 89.5366 1421.64 93.9294 1417.08 96.734C1414.82 98.1219 1412.21 99.0234 1409.53 99.3239C1406.85 99.6387 1404.14 99.3668 1401.58 98.7372L1401.66 98.4654V98.4511Z" fill="#C2733B"/>
<path d="M1325.89 177.38C1328.87 175.234 1331.51 172.701 1333.86 169.997C1336.22 167.292 1338.23 164.344 1339.77 161.211C1341.37 158.091 1342.14 154.7 1342.68 151.352L1343.01 148.805C1343.01 147.946 1342.98 147.102 1343.01 146.229C1343.01 145.8 1343.04 145.371 1343.01 144.927L1342.85 143.639C1342.78 142.781 1342.67 141.908 1342.62 141.021L1342.78 140.992C1343.05 141.822 1343.3 142.681 1343.55 143.539L1343.91 144.827C1344 145.256 1344.03 145.7 1344.09 146.143C1344.22 147.031 1344.26 147.918 1344.36 148.805L1344.23 151.481C1343.88 155.044 1342.7 158.535 1340.9 161.669C1339.16 164.845 1336.98 167.779 1334.47 170.426C1331.92 173.044 1329.12 175.448 1326 177.466L1325.91 177.351L1325.89 177.38Z" fill="#C2733B"/>
<path d="M1336.67 138.945C1337.72 139.432 1338.85 139.775 1340 139.99C1341.13 140.233 1342.28 140.319 1343.41 140.248C1344.54 140.19 1345.57 139.804 1346.61 139.518C1347.67 139.26 1348.65 138.774 1349.85 138.373L1349.95 138.473C1349.32 139.475 1348.37 140.348 1347.19 140.848C1346.03 141.392 1344.68 141.464 1343.43 141.392C1340.9 141.263 1338.54 140.376 1336.61 139.074L1336.68 138.96L1336.67 138.945Z" fill="#C2733B"/>
<path opacity="0.28" d="M1374.81 99.7679C1381.75 107.595 1378.11 120.931 1366.7 129.545C1355.29 138.173 1340.4 138.817 1333.46 131.004C1326.51 123.177 1330.16 109.841 1341.57 101.227C1352.98 92.6134 1367.86 91.9551 1374.81 99.7679Z" fill="#9E300D"/>
<path opacity="0.28" d="M1333.4 95.4029C1333.4 95.4029 1318.02 84.5281 1298.84 99.2806C1298.84 99.2806 1302.56 120.444 1316.62 117.725C1316.62 117.725 1328.23 110.928 1333.4 95.4029Z" fill="#9E300D"/>
<path d="M1298.84 98.5938C1299.21 100.983 1299.93 103.316 1300.84 105.548C1301.75 107.78 1302.9 109.941 1304.44 111.815C1306 113.69 1307.96 115.149 1310.06 116.337C1312.2 117.567 1314.67 118.054 1317.26 118.569V118.712C1316.61 118.769 1315.94 118.784 1315.26 118.827H1314.25L1313.24 118.698C1312.58 118.598 1311.89 118.498 1311.24 118.326L1309.34 117.61C1306.86 116.466 1304.92 114.548 1303.43 112.488C1301.93 110.413 1300.9 108.124 1300.11 105.791C1299.37 103.444 1298.87 101.041 1298.7 98.6224H1298.86L1298.84 98.5938Z" fill="#C2733B"/>
<path d="M1333.4 95.4028C1333.4 95.4028 1325.01 118.512 1304.51 119.17C1304.51 119.17 1311.72 127.369 1323.2 117.181C1335.43 106.306 1333.4 95.4028 1333.4 95.4028Z" fill="black"/>
<path d="M1297.29 98.1934C1297.29 98.1934 1296.25 104.675 1298.5 110.857C1298.5 110.857 1290.05 103.13 1297.29 98.1934Z" fill="#9E300D"/>
<path opacity="0.65" d="M1305.79 147.159C1306.78 148.575 1305.03 151.265 1301.86 153.154C1298.7 155.043 1295.32 155.429 1294.33 154.013C1293.34 152.596 1295.09 149.906 1298.25 148.017C1301.41 146.128 1304.79 145.742 1305.79 147.159Z" fill="#F9E5E3"/>
<path opacity="0.65" d="M1361.32 98.5942C1362.31 100.011 1360.56 102.701 1357.4 104.59C1354.23 106.478 1350.85 106.865 1349.86 105.448C1348.87 104.032 1350.62 101.342 1353.78 99.4527C1356.95 97.5639 1360.33 97.1776 1361.32 98.5942Z" fill="#F9E5E3"/>
<path d="M1301.77 57.2696C1311.26 54.5079 1321.43 53.9642 1331.02 56.3824C1342.5 59.2728 1354.9 66.642 1355.69 84.8716C1357.07 117.11 1372.14 134.195 1398.28 134.166C1424.42 134.152 1437.08 163.514 1424.99 183.518C1424.99 183.518 1498.15 156.045 1490.95 107.351C1485.44 69.9473 1384.87 -58.6762 1274.7 31.3846C1274.7 31.3846 1218.92 66.1841 1275.77 112.374C1275.77 112.374 1237.12 76.1145 1301.8 57.2839L1301.77 57.2696Z" fill="#1E0200"/>
<path d="M1276.56 56.1537C1276.56 56.1537 1311.29 94.6449 1264.92 127.713C1264.92 127.713 1207.68 63.7375 1282.56 25.2749L1276.56 56.1537Z" fill="#1E0200"/>
<path d="M1322.79 80.5219C1322.79 80.5219 1301.46 76.1005 1277.59 96.6053C1277.59 96.6053 1271.73 93.5288 1271.97 87.8911L1275.71 90.5955C1275.71 90.5955 1272.97 86.0166 1280.87 81.1086C1288.78 76.2006 1308.73 68.2591 1322.79 80.5219Z" fill="#070000"/>
<path d="M1365.57 284.181C1366 258.969 1380.76 230.394 1387.33 217.544C1443.93 217.902 1482.4 183.045 1472.75 145.556C1481.45 144.669 1499.4 144.94 1518.1 147.802C1568.58 155.543 1590.95 205.868 1590.95 205.868L1635.65 320.898L1455.13 410.301L1409.3 337.64C1383.21 331.129 1365.13 309.136 1365.55 284.181H1365.57Z" fill="#183B4F"/>
<path d="M1317.14 768.101C1317.14 768.101 1297.43 830.002 1250.58 821.545C1250.58 821.545 1280.08 855.257 1347.86 855.529L1363.04 780.436L1317.13 768.087L1317.14 768.101Z" fill="#FDEDDD"/>
<path d="M1335.34 810.069L1333.48 835.997C1332.78 845.856 1326.4 854.727 1316.56 859.507C1296.93 869.036 1264.54 889.842 1255.33 921.622L1460.97 969.8C1460.97 969.8 1485.25 912.235 1446.79 891.988C1408.33 871.741 1405.54 865.345 1405.54 865.345L1421.49 784.985L1335.34 810.055V810.069Z" fill="#E77C51"/>
<path d="M1333.48 836.011L1335.34 810.083L1417.87 786.073C1408.34 803.859 1392.08 831.776 1373.13 844.01C1358.08 853.726 1338.82 850.706 1332.26 842.178C1332.91 840.189 1333.34 838.129 1333.48 836.025V836.011Z" fill="#BD4B22"/>
<path d="M1429.38 680.529C1414.21 667.122 1393.33 660.11 1371.81 660.053C1357.15 660.01 1340.12 662.829 1328.73 673.776C1304.95 696.67 1310 730.11 1310 730.11C1310 730.11 1300.41 744.562 1288.82 750.157C1277.25 755.737 1289 767.929 1292.31 769.116C1295.61 770.304 1300.17 770.791 1300.17 770.791C1300.17 770.791 1296.2 777.788 1289.95 779.791C1286.84 780.793 1285.26 783.912 1286.43 786.645C1287.1 788.19 1288.25 789.936 1290.22 791.811C1290.22 791.811 1281.6 801.297 1293.79 804.932C1293.79 804.932 1292.16 818.697 1302.43 824.721C1307.23 827.54 1323.41 831.575 1344.24 828.513C1377.02 823.705 1410.45 807.908 1428.09 778.231C1431.53 772.45 1436.95 771.764 1440.41 764.48C1455.89 731.956 1453.52 701.878 1429.35 680.515L1429.38 680.529Z" fill="#E77C51"/>
<path d="M1308.47 768.759C1308.47 768.759 1303.93 775.57 1297.68 774.225L1300.14 770.719C1300.14 770.719 1307.25 769.159 1308.47 768.759Z" fill="#BD4B22"/>
<path opacity="0.64" d="M1290.24 791.811C1288.27 789.936 1287.1 788.191 1286.45 786.645C1285.28 783.927 1286.85 780.793 1289.96 779.791C1290.24 779.705 1290.52 779.591 1290.79 779.491C1301.58 784.141 1305.77 790.666 1318.15 789.765C1310.67 806.349 1293.82 804.932 1293.82 804.932C1281.61 801.298 1290.26 791.811 1290.26 791.811H1290.24Z" fill="#F92222"/>
<path d="M1318.15 789.765C1305.77 790.666 1301.58 784.141 1290.79 779.491C1290.52 779.605 1290.24 779.705 1289.96 779.791C1286.85 780.793 1285.28 783.912 1286.45 786.645C1287.11 788.191 1288.27 789.936 1290.24 791.811C1290.24 791.811 1304.38 795.002 1318.15 789.765Z" fill="#F92222"/>
<path opacity="0.47" d="M1292.31 769.131C1289.57 768.143 1281.06 759.63 1284.79 753.548C1284.79 757.498 1287.6 769.446 1311.69 761.175C1312.72 762.262 1313.3 766.527 1310.55 768.215C1306.3 769.703 1300.15 770.705 1300.15 770.705C1300.15 770.705 1295.61 770.29 1292.32 769.116L1292.31 769.131Z" fill="#BD4B22"/>
<path d="M1310.06 730.153C1306.81 735.018 1303.03 739.612 1298.62 743.761C1296.39 745.807 1294.02 747.739 1291.33 749.37L1289.26 750.515L1287.36 751.66C1286.86 752.132 1286.25 752.576 1285.85 753.105C1285.47 753.663 1285.05 754.193 1284.89 754.836C1284.59 755.437 1284.63 756.096 1284.53 756.74C1284.53 757.069 1284.59 757.398 1284.63 757.713C1284.63 758.042 1284.71 758.371 1284.82 758.686C1285.1 759.988 1285.81 761.218 1286.51 762.406C1287.29 763.565 1288.16 764.71 1289.18 765.726C1290.16 766.741 1291.31 767.786 1292.45 768.358C1293.8 768.831 1295.37 769.303 1296.82 769.689C1298.3 770.004 1299.84 770.061 1301.37 769.932C1302.89 769.818 1304.43 769.36 1306 769.045C1307.56 768.73 1309.12 768.387 1310.68 768.101L1310.73 768.244C1309.23 768.745 1307.7 769.203 1306.21 769.675C1304.69 770.104 1303.2 770.648 1301.54 770.92C1299.89 771.192 1298.18 771.163 1296.54 770.905C1295.69 770.777 1294.94 770.519 1294.15 770.333C1293.35 770.104 1292.58 769.975 1291.75 769.661C1290.09 768.845 1289.04 767.786 1287.9 766.699C1286.81 765.597 1285.93 764.352 1285.1 763.093C1284.38 761.776 1283.67 760.431 1283.4 758.943C1283.29 758.585 1283.24 758.213 1283.23 757.827C1283.21 757.455 1283.16 757.083 1283.16 756.697C1283.27 755.938 1283.29 755.18 1283.67 754.464C1283.88 753.72 1284.38 753.091 1284.85 752.447C1285.34 751.832 1286.03 751.345 1286.63 750.83L1288.73 749.628L1290.76 748.569C1293.41 747.052 1295.81 745.206 1298.07 743.232C1302.56 739.268 1306.53 734.804 1309.95 730.053L1310.1 730.125L1310.06 730.153Z" fill="#9E300D"/>
<path d="M1412.62 790.709C1425.2 811.601 1460.58 794.659 1469.09 776.172C1476.29 760.517 1464.44 742.631 1445.25 741.901C1426.87 741.2 1420.95 756.754 1420.95 756.754L1412.62 790.709Z" fill="#E77C51"/>
<path d="M1459.47 768.316C1457.01 766.155 1453.91 764.524 1450.57 763.909C1447.23 763.236 1443.73 763.737 1440.74 765.11C1439.19 765.726 1437.89 766.713 1436.54 767.615C1435.87 768.072 1435.32 768.659 1434.68 769.174C1434.08 769.704 1433.4 770.162 1432.86 770.763C1431.74 771.907 1430.53 773.009 1429.46 774.197C1428.4 775.413 1427.34 776.629 1426.19 777.803L1426.04 777.731C1426.81 776.343 1427.67 774.969 1428.53 773.61C1429.43 772.265 1430.62 771.077 1431.64 769.804C1432.83 768.631 1434.13 767.529 1435.52 766.527C1437.01 765.64 1438.46 764.667 1440.17 764.095C1443.44 762.75 1447.28 762.363 1450.75 763.222C1454.23 764.066 1457.26 765.912 1459.59 768.23L1459.46 768.316H1459.47Z" fill="#9E300D"/>
<path d="M1438.56 783.526C1440.1 782.124 1441.47 780.592 1442.68 778.961C1443.88 777.359 1444.91 775.627 1445.51 773.839C1446.08 772.021 1446 770.176 1445.31 768.559C1444.65 766.899 1443.15 765.511 1441.47 764.18L1441.55 764.051C1443.67 764.709 1445.74 766.012 1446.81 767.986C1447.9 769.99 1447.54 772.293 1446.75 774.182C1445.93 776.099 1444.71 777.817 1443.34 779.376C1441.93 780.922 1440.37 782.338 1438.67 783.626L1438.56 783.526Z" fill="#9E300D"/>
<path d="M1412.68 790.68C1414.05 792.855 1415.81 794.858 1417.99 796.418C1420.17 797.978 1422.76 799.08 1425.51 799.623C1431.02 800.696 1436.8 799.752 1441.99 797.949C1447.23 796.132 1452.05 793.442 1456.32 790.222C1460.55 786.974 1464.26 783.168 1466.91 778.847C1469.55 774.525 1470.72 769.589 1470.31 764.752C1470.04 762.348 1469.5 759.944 1468.44 757.698C1467.53 755.394 1466.05 753.319 1464.44 751.373C1461.04 747.582 1456.4 744.519 1451.01 743.232C1445.69 741.915 1439.8 741.772 1434.52 743.675L1434.46 743.546C1437.03 742.445 1439.84 741.801 1442.73 741.586C1444.16 741.472 1445.61 741.514 1447.04 741.658C1447.75 741.729 1448.49 741.729 1449.19 741.858L1451.3 742.273C1452.02 742.387 1452.7 742.588 1453.39 742.817L1455.44 743.475L1457.37 744.362C1458.02 744.648 1458.66 744.949 1459.24 745.349L1461.04 746.451C1461.6 746.852 1462.13 747.295 1462.68 747.71C1463.82 748.512 1464.7 749.556 1465.69 750.501C1469.29 754.55 1471.5 759.544 1471.89 764.666C1472.23 769.789 1470.87 774.983 1468.03 779.419C1465.22 783.869 1461.34 787.704 1456.98 790.966C1452.57 794.186 1447.64 796.862 1442.27 798.65C1436.93 800.396 1431.01 801.269 1425.38 800.067C1422.59 799.466 1419.96 798.293 1417.77 796.661C1415.58 795.03 1413.85 792.984 1412.53 790.766L1412.68 790.695V790.68Z" fill="#9E300D"/>
<path d="M1290.26 791.739C1294.24 792.34 1298.33 792.469 1302.35 792.255C1306.37 792.054 1310.36 791.439 1314.17 790.366C1318.01 789.35 1321.49 787.561 1324.76 785.644L1327.2 784.127C1327.93 783.54 1328.65 782.925 1329.42 782.367C1329.79 782.067 1330.18 781.795 1330.54 781.48L1331.53 780.493C1332.21 779.849 1332.88 779.176 1333.61 778.532L1333.74 778.618C1333.22 779.391 1332.65 780.135 1332.12 780.908L1331.25 782.038C1330.95 782.396 1330.59 782.725 1330.25 783.068C1329.56 783.755 1328.85 784.399 1328.13 785.071L1325.72 786.817C1322.38 789.006 1318.54 790.58 1314.54 791.468C1310.57 792.426 1306.47 792.913 1302.37 792.97C1298.28 792.984 1294.18 792.67 1290.21 791.883L1290.24 791.739H1290.26Z" fill="#9E300D"/>
<path d="M1331.12 772.938C1331.47 774.011 1331.99 775.041 1332.61 775.986C1333.21 776.945 1333.96 777.817 1334.83 778.547C1335.7 779.305 1336.77 779.749 1337.76 780.293C1338.76 780.865 1339.88 781.209 1341.08 781.752V781.895C1339.77 782.124 1338.32 782.067 1337.05 781.581C1335.75 781.137 1334.7 780.25 1333.87 779.32C1332.17 777.474 1331.22 775.227 1330.96 772.967L1331.12 772.938Z" fill="#9E300D"/>
<path opacity="0.47" d="M1392.3 772.766C1390.55 782.983 1376.45 789.565 1360.81 787.505C1345.17 785.43 1333.91 775.471 1335.65 765.268C1337.41 755.052 1351.5 748.47 1367.14 750.53C1382.78 752.605 1394.05 762.564 1392.3 772.766Z" fill="#BD4B22"/>
<path d="M1383.58 730.726C1383.58 730.726 1372.04 712.782 1337.21 710.135C1337.21 710.135 1335.65 703.939 1340.69 700.248L1341.05 704.712C1341.05 704.712 1343.02 699.661 1352.93 701.822C1362.85 703.982 1384.04 712.496 1383.58 730.726Z" fill="#100B2D"/>
<path opacity="0.47" d="M1366.3 740.828C1366.3 740.828 1364.6 722.627 1338.11 719.322C1338.11 719.322 1322.55 736.407 1335 744.377C1335 744.377 1349.21 747.84 1366.3 740.814V740.828Z" fill="#7F260A"/>
<path d="M1338.69 718.85C1336.9 720.738 1335.4 722.828 1334.14 725.003C1332.87 727.163 1331.82 729.453 1331.32 731.814C1330.83 734.189 1330.96 736.564 1331.47 738.854C1331.94 741.186 1333.31 743.261 1334.74 745.407L1334.62 745.507C1334.1 745.092 1333.61 744.634 1333.09 744.191L1332.36 743.49L1331.78 742.688C1331.38 742.145 1330.98 741.601 1330.67 741.029L1329.92 739.197C1329.14 736.679 1329.38 734.017 1330.08 731.57C1330.78 729.095 1332.02 726.805 1333.45 724.659C1334.93 722.527 1336.64 720.538 1338.61 718.75L1338.72 718.85H1338.69Z" fill="#9E300D"/>
<path d="M1366.3 740.828C1366.3 740.828 1340.35 750.801 1325.04 736.921C1325.04 736.921 1323.17 747.582 1340.19 748.626C1358.35 749.728 1366.3 740.842 1366.3 740.842V740.828Z" fill="black"/>
<path d="M1337.93 717.49C1337.93 717.49 1331.6 721.21 1327.89 727.005C1327.89 727.005 1328.47 715.801 1337.93 717.49Z" fill="#BD4B22"/>
<path opacity="0.65" d="M1301.84 756.968C1301.34 758.642 1297.76 759.258 1293.85 758.342C1289.95 757.426 1287.2 755.337 1287.7 753.663C1288.21 751.989 1291.79 751.373 1295.69 752.289C1299.6 753.205 1302.35 755.308 1301.84 756.968Z" fill="#F9E5E3"/>
<path opacity="0.65" d="M1383.63 762.535C1383.12 764.209 1379.54 764.824 1375.64 763.908C1371.73 762.993 1368.98 760.903 1369.49 759.229C1369.99 757.555 1373.57 756.94 1377.48 757.856C1381.38 758.771 1384.13 760.875 1383.63 762.535Z" fill="#F9E5E3"/>
<path d="M1225.89 917.487C1243.43 897.526 1275.3 882.802 1289.57 876.148C1336.92 907.714 1402.87 889.828 1420.3 854.47C1428.21 858.577 1442.86 863.456 1456.62 876.091C1493.78 910.189 1468.73 979.373 1468.73 979.373L1427.96 1096.21L1215.29 1068.02L1226.26 984.482C1208.75 964.85 1208.54 937.233 1225.89 917.487Z" fill="#7454AB"/>
<path d="M1407.75 695.311C1407.75 695.311 1390.5 727.793 1410.27 764.052C1430.05 800.311 1383.66 855.186 1358.43 858.005C1358.43 858.005 1417.71 898.585 1484.19 868.25C1484.19 868.25 1450.47 840.92 1475.88 799.638C1497.93 763.809 1495.57 673.09 1395.4 647.662C1348.6 635.786 1301.37 665.034 1298.04 707.746C1297.99 708.347 1297.94 708.962 1297.91 709.563L1369.7 723.171C1369.7 723.171 1355.29 699.804 1377.28 683.964C1377.28 683.964 1356.4 716.617 1401.19 761.018C1401.19 761.018 1383.11 725.961 1407.77 695.311H1407.75Z" fill="#FDEDDD"/>
<path d="M-56.2286 463C-56.2286 463 237.143 510.806 176.555 736.073C115.967 961.34 674.854 677.778 666.394 1089.61H-107.045L-56.2286 463Z" fill="#BDB2CC"/>
<path d="M-184.202 626.266C-184.202 626.266 109.169 674.072 48.5812 899.339C-12.0067 1124.61 546.88 841.044 538.42 1252.87H-235L-184.184 626.266H-184.202Z" fill="#FDEDDD"/>
<path d="M-157.898 574.324C-157.898 574.324 135.473 622.13 74.8853 847.397C14.2974 1072.66 573.184 789.102 564.724 1200.93H-208.714L-157.898 574.324Z" stroke="white" stroke-miterlimit="10"/>
<path d="M110.113 270.242L62.0843 190.312L-0.852333 265.133C-0.852333 265.133 -5.13141 266.722 -26.2016 263.717C-54.0498 282.705 -71.9534 309.92 -88.2139 337.336L70.9676 414.462C93.4242 382.839 86.184 343.776 78.8582 322.527C75.1953 311.881 78.2763 300.405 87.0398 292.091L110.095 270.242H110.113Z" fill="#E77C51"/>
<path d="M87.0571 292.092L110.113 270.242L64.1042 193.66C55.1866 214.394 42.2467 247.877 46.423 270.771C49.7436 288.972 68.6571 299.99 82.2303 297.815C83.5825 295.783 85.1743 293.866 87.04 292.092H87.0571Z" fill="#BD4B22"/>
<path d="M139.964 117.25C162.746 117.207 184.364 125.306 200.522 138.728C211.545 147.886 221.9 160.564 221.078 175.488C219.367 206.681 187.102 227.344 187.102 227.344C187.102 227.344 181.968 243.642 185.87 254.874C189.773 266.107 170.585 267.423 167.111 266.193C163.636 264.962 159.802 262.458 159.802 262.458C159.802 262.458 156.824 269.927 159.785 275.264C161.257 277.926 159.785 281.131 156.584 282.347C154.77 283.034 152.408 283.549 149.344 283.65C149.344 283.65 147.718 295.812 135.497 290.761C135.497 290.761 124.987 301.579 112.15 299.432C106.142 298.431 90.6009 291.176 77.6096 275.937C57.1556 251.984 45.585 219.788 57.6691 187.608C60.0312 181.34 56.5566 177.462 60.1681 170.108C76.2917 137.254 103.712 117.322 140.016 117.25H139.964Z" fill="#E77C51"/>
<path d="M155.317 255.804C155.317 255.804 152.921 263.502 158.741 266.45L159.887 262.429C159.887 262.429 155.899 256.863 155.317 255.804Z" fill="#BD4B22"/>
<path opacity="0.64" d="M149.326 283.649C152.407 283.549 154.769 283.034 156.566 282.347C159.767 281.145 161.239 277.925 159.767 275.264C159.63 275.021 159.51 274.777 159.407 274.52C147.357 271.071 138.679 273.103 130.173 264.689C121.632 281.188 135.462 290.746 135.462 290.746C147.7 295.797 149.309 283.635 149.309 283.635L149.326 283.649Z" fill="#F92222"/>
<path d="M130.173 264.704C138.68 273.103 147.375 271.072 159.408 274.534C159.511 274.778 159.63 275.035 159.767 275.278C161.239 277.94 159.767 281.145 156.567 282.361C154.752 283.048 152.39 283.563 149.326 283.664C149.326 283.664 136.027 277.081 130.173 264.718V264.704Z" fill="#F92222"/>
<path opacity="0.47" d="M167.11 266.207C169.985 267.223 183.627 266.479 186.023 259.825C182.668 262.644 170.362 269.383 159.373 248.406C157.679 248.535 153.605 251.211 154.221 254.13C156.138 257.85 159.887 262.429 159.887 262.429C159.887 262.429 163.635 264.976 167.11 266.207Z" fill="#BD4B22"/>
<path d="M187.188 227.358C185.699 232.881 184.86 238.548 184.86 244.185C184.86 247.004 185.1 249.823 185.784 252.556L186.401 254.574C186.623 255.26 186.846 256.004 186.965 256.734C187.188 258.222 186.931 259.796 186.127 261.184C185.305 262.572 183.987 263.703 182.498 264.533C181.009 265.377 179.366 265.949 177.688 266.407C175.994 266.822 174.282 267.108 172.519 267.237C170.756 267.323 169.045 267.394 167.128 266.951C166.22 266.622 165.553 266.264 164.748 265.921C163.995 265.549 163.208 265.262 162.472 264.833C161 263.989 159.699 262.944 158.706 261.714C157.679 260.483 157.046 259.152 156.259 257.908C155.54 256.62 154.787 255.346 154.085 254.044L154.239 253.973C155.163 255.16 156.036 256.377 156.943 257.593C157.851 258.795 158.621 260.083 159.648 261.113C160.692 262.157 161.89 263.087 163.259 263.789C164.663 264.432 166.255 265.062 167.641 265.592C169.01 265.892 170.756 265.878 172.365 265.763C173.991 265.663 175.617 265.42 177.192 265.062C180.29 264.332 183.405 263.016 184.894 260.684C185.613 259.525 185.87 258.194 185.716 256.863C185.63 256.191 185.459 255.547 185.254 254.86L184.672 252.742C184.038 249.909 183.902 247.033 183.987 244.171C184.227 238.462 185.305 232.81 187.017 227.315L187.188 227.358Z" fill="#9E300D"/>
<path d="M58.6102 206.209C31.3782 213.191 19.3283 178.979 28.708 160.477C36.65 144.823 60.7839 139.514 75.7778 151.005C90.1384 162.023 81.3235 176.804 81.3235 176.804L58.6102 206.209Z" fill="#E77C51"/>
<path d="M42.6069 160.763C46.3212 160.563 50.1723 161.15 53.4929 162.738C56.8306 164.298 59.3638 166.973 60.6817 169.978C61.4691 171.467 61.7258 173.055 62.0853 174.629C62.2564 176.203 62.3078 177.82 62.188 179.394C61.8799 180.953 61.7429 182.542 61.2808 184.058C60.7844 185.575 60.2538 187.078 59.6376 188.551L59.4665 188.523C59.6034 186.949 59.843 185.418 60.0998 183.901C60.3052 182.37 60.3565 180.839 60.4763 179.322C60.579 178.564 60.4592 177.805 60.4763 177.047C60.4421 176.289 60.5277 175.53 60.4079 174.786C60.1682 173.298 60.0313 171.781 59.398 170.379C58.3368 167.532 56.1459 164.97 53.065 163.368C50.0354 161.708 46.3212 160.921 42.6412 160.921V160.778L42.6069 160.763Z" fill="#9E300D"/>
<path d="M45.14 184.845C44.9517 182.871 45.003 180.882 45.2598 178.893C45.5679 176.918 46.0985 174.929 47.1426 173.055C48.1524 171.223 49.847 169.349 52.363 168.605C54.862 167.86 57.4979 168.232 59.6546 169.091L59.6032 169.234C57.2241 169.134 54.9305 169.177 52.9963 169.935C51.0964 170.665 49.4704 171.939 48.3407 173.584C47.2453 175.23 46.5435 177.104 46.0814 179.007C45.6021 180.91 45.3283 182.871 45.294 184.831H45.1229L45.14 184.845Z" fill="#9E300D"/>
<path d="M58.6265 206.266C55.751 207.01 52.7043 207.396 49.6747 207.167C46.6451 206.967 43.684 206.137 41.0823 204.82C35.8447 202.145 32.1476 197.809 29.6486 193.216C27.1496 188.58 25.729 183.586 25.1813 178.52C24.6849 173.469 25.0615 168.304 26.7389 163.382C28.3991 158.445 31.7882 153.895 36.4267 150.475C41.0823 147.069 47.0045 144.909 53.1322 144.279C54.6726 144.236 56.2131 144.036 57.7707 144.193C58.5409 144.236 59.3111 144.25 60.0814 144.322L62.3578 144.665C63.1281 144.751 63.8641 144.937 64.6001 145.138L66.8081 145.724L68.9134 146.526C69.6152 146.783 70.2998 147.069 70.9331 147.441L72.8673 148.486C73.5177 148.829 74.0483 149.287 74.6473 149.688C75.8455 150.489 76.958 151.362 77.9337 152.335C79.902 154.281 81.4767 156.513 82.4524 158.903L82.2983 158.96C79.9705 154.295 75.4347 150.704 70.3169 148.314C65.182 145.853 59.1058 145.123 53.3205 145.696C50.4449 146.082 47.5694 146.626 44.9335 147.699C42.2291 148.629 39.7815 150.003 37.5221 151.548C33.0719 154.725 29.7513 158.989 28.0568 163.711C26.3452 168.447 25.883 173.484 26.2938 178.449C26.756 183.414 28.0568 188.351 30.436 192.915C32.798 197.451 36.3069 201.758 41.3562 204.434C43.8723 205.765 46.7478 206.609 49.7089 206.852C52.67 207.11 55.6996 206.795 58.5751 206.094L58.6265 206.237V206.266Z" fill="#9E300D"/>
<path d="M149.275 283.706C145.612 281.789 142.292 279.442 139.245 276.867C136.232 274.263 133.579 271.344 131.423 268.167C129.198 265.019 127.657 261.499 127.024 257.85L126.716 255.103C126.75 254.187 126.767 253.271 126.853 252.355C126.887 251.898 126.887 251.44 126.973 250.996L127.281 249.651C127.52 248.764 127.743 247.877 128 247.004L128.171 247.033C128.171 247.948 128.085 248.835 128.051 249.737L127.948 251.068C127.948 251.511 128 251.955 128.034 252.398C128.119 253.286 128.136 254.158 128.188 255.046L128.718 257.65C129.54 261.07 130.618 264.518 132.638 267.652C134.589 270.8 137.054 273.733 139.895 276.395C142.737 279.056 145.886 281.532 149.395 283.606L149.309 283.721L149.275 283.706Z" fill="#9E300D"/>
<path d="M134.881 244.715C132.758 246.146 130.14 247.176 127.281 247.405C125.861 247.548 124.337 247.534 122.985 247.019C121.616 246.561 120.486 245.716 119.699 244.729L119.801 244.615C121.171 244.987 122.3 245.445 123.533 245.659C124.731 245.903 125.912 246.246 127.213 246.246C128.497 246.275 129.797 246.117 131.064 245.817C132.331 245.53 133.597 245.13 134.778 244.572L134.881 244.686V244.715Z" fill="#9E300D"/>
<path opacity="0.47" d="M137.939 236.268C145.328 227.902 140.388 214.373 126.905 206.05C113.422 197.728 96.5011 197.763 89.1119 206.13C81.7226 214.496 86.6628 228.026 100.146 236.348C113.629 244.671 130.55 244.635 137.939 236.268Z" fill="#BD4B22"/>
<path d="M139.929 186.463C139.929 186.463 163.875 180.911 192.202 200.843C192.202 200.843 198.655 197.409 198.022 191.628L193.948 194.59C193.948 194.59 196.772 189.754 187.512 185.089C178.253 180.41 155.111 173.213 139.912 186.477L139.929 186.463Z" fill="#100B2D"/>
<path opacity="0.47" d="M135.822 199.698C135.822 199.698 152.613 187.793 175.258 202.045C175.258 202.045 172.348 223.966 156.224 221.834C156.224 221.834 142.634 215.395 135.822 199.698Z" fill="#7F260A"/>
<path d="M175.394 201.344C175.343 203.848 174.915 206.323 174.213 208.77C173.46 211.203 172.433 213.607 170.858 215.796C169.301 217.971 167.212 220.031 164.474 221.333L162.351 222.163C161.615 222.378 160.845 222.507 160.109 222.65L158.979 222.85L157.833 222.893C157.062 222.893 156.309 222.907 155.556 222.893V222.75C158.449 222.106 161.239 221.491 163.584 220.131C165.912 218.815 168.034 217.212 169.694 215.209C171.32 213.206 172.484 210.931 173.391 208.598C174.298 206.266 174.949 203.819 175.223 201.358H175.394V201.344Z" fill="#9E300D"/>
<path d="M135.821 199.698C135.821 199.698 146.758 223.051 170.053 222.75C170.053 222.75 162.368 231.521 148.744 221.591C134.195 211.002 135.838 199.698 135.838 199.698H135.821Z" fill="black"/>
<path d="M176.952 200.843C176.952 200.843 178.526 207.454 176.353 213.907C176.353 213.907 185.476 205.565 176.952 200.843Z" fill="#BD4B22"/>
<path opacity="0.65" d="M170.311 251.569C169.267 253.071 171.424 255.747 175.121 257.55C178.818 259.339 182.669 259.582 183.713 258.065C184.757 256.563 182.6 253.887 178.903 252.084C175.206 250.296 171.355 250.052 170.311 251.569Z" fill="#F9E5E3"/>
<path opacity="0.65" d="M104.344 204.306C103.3 205.808 105.457 208.484 109.154 210.287C112.851 212.09 116.702 212.319 117.746 210.802C118.79 209.3 116.634 206.624 112.937 204.821C109.239 203.032 105.388 202.789 104.344 204.306Z" fill="#F9E5E3"/>
<path d="M218.322 189.167C218.322 189.167 198.741 152.478 130.464 166.616C74.7503 178.149 52.7217 227.171 28.5706 230.19C28.5706 230.19 -1.43427 153.108 43.5645 117.664C88.6659 82.1496 157.73 77.0556 208.138 122.258C258.545 167.46 218.322 189.167 218.322 189.167Z" fill="#7454AB"/>
<path d="M56.402 108.865L56.5561 108.679C52.0545 111.412 47.7069 114.402 43.5648 117.665C-1.45103 153.108 28.5709 230.191 28.5709 230.191C47.57 227.815 65.2683 196.98 99.0729 178.306C80.3135 175.087 62.6666 163.525 53.4923 149.56C45.0368 136.696 46.0467 120.727 56.402 108.865Z" fill="#533B87"/>
<path d="M100.391 97.3461C100.391 97.3461 113.416 50.2981 192.305 77.4279C282.884 108.564 226.88 152.579 226.88 152.579L100.391 97.3461Z" fill="#7454AB"/>
<path d="M103.061 91.4507C103.061 91.4507 115.71 148 230.372 150.261C230.372 150.261 148.145 149.159 103.061 91.4507Z" fill="#533B87"/>
<path d="M99.5008 421.23C100.014 396.018 92.7056 371.549 85.9447 358.514C23.4702 357.154 -25.1571 302.408 -13.0388 265.233C-22.6068 264.089 -38.2682 259.853 -59.0132 262.157C-115.018 268.367 -146.152 336.134 -146.152 336.134L-200 449.748L-4.29239 544.574L49.1447 473.329C78.191 467.62 99.0044 446.171 99.5179 421.23H99.5008Z" fill="#1E0200"/>
<path d="M208.785 897.039C208.768 896.868 208.752 896.767 208.752 896.767C219.805 910.218 213.641 934.944 210.403 945.132C276.019 829.558 82.8344 774.454 82.8344 774.454C82.8344 774.454 45.064 826.41 104.221 880.77C126.344 901.089 134.846 921.98 136.825 940.167L159.552 941.698C188.346 943.644 212.169 922.137 208.817 897.039H208.785Z" fill="#1E0200"/>
<path d="M128.845 859.765C120.752 851.837 117.858 840.834 121.16 830.603L129.826 803.702L52.209 751.288L35.76 837.843C35.76 837.843 33.0131 840.648 14.7329 845.284C14.177 873.902 10.3509 902.52 5.62549 931.138L166.011 941.984C169.542 906.841 145 875.59 128.862 859.765H128.845Z" fill="#F9C097"/>
<path d="M121.145 830.603L129.811 803.702L55.4473 753.492C57.9326 774.526 63.1485 807.952 77.4718 826.296C88.852 840.877 109.716 843.839 119.886 837.228C120.033 835.01 120.442 832.792 121.145 830.603Z" fill="#DB844C"/>
<path d="M84.4522 651.226C104.793 642.612 128.256 642.068 149.61 648.55C164.162 652.971 179.925 660.941 186.874 675.207C201.377 705.027 183.162 736.493 183.162 736.493C183.162 736.493 186.955 753.678 196.21 762.707C205.481 771.736 188.999 780.193 185.271 780.35C181.543 780.522 176.818 779.606 176.818 779.606C176.818 779.606 177.995 787.719 183.375 791.597C186.056 793.529 186.383 797.091 184.143 799.424C182.884 800.74 181.036 802.114 178.339 803.359C178.339 803.359 183.146 815.35 169.607 815.221C169.607 815.221 165.765 829.287 153.207 832.106C147.321 833.422 129.711 832.478 110.254 823.12C79.6614 808.396 52.7807 782.639 47.0415 747.997C45.9297 741.243 40.8282 738.925 40.2723 730.683C37.8033 693.895 52.0612 664.948 84.4522 651.226Z" fill="#F9C097"/>
<path d="M169.363 775.07C169.363 775.07 171.178 783.169 177.898 783.741L176.851 779.549C176.851 779.549 170.426 775.843 169.363 775.07Z" fill="#DB844C"/>
<path opacity="0.28" d="M178.324 803.359C181.022 802.114 182.869 800.741 184.128 799.424C186.368 797.092 186.041 793.529 183.36 791.597C183.114 791.425 182.886 791.239 182.657 791.039C170.116 792.341 163.395 797.507 151.476 792.842C152.326 811.487 169.592 815.221 169.592 815.221C183.114 815.35 178.324 803.359 178.324 803.359Z" fill="#C94729"/>
<path opacity="0.28" d="M151.476 792.842C163.395 797.507 170.116 792.341 182.657 791.039C182.886 791.225 183.114 791.425 183.36 791.597C186.041 793.529 186.368 797.092 184.128 799.424C182.869 800.741 181.022 802.114 178.324 803.359C178.324 803.359 163.052 802.2 151.476 792.842Z" fill="#C94729"/>
<path opacity="0.28" d="M185.239 780.349C188.33 780.206 200.151 774.397 198.86 767.271C197.306 771.163 189.768 782.095 169.183 766.613C167.728 767.371 165.471 771.406 167.515 773.91C171.145 776.672 176.835 779.534 176.835 779.534C176.835 779.534 181.495 780.507 185.223 780.349H185.239Z" fill="#C94729"/>
<path d="M183.228 736.479C184.732 742.202 186.891 747.826 189.785 753.106C191.24 755.738 192.891 758.3 194.919 760.604L196.505 762.263C197.061 762.821 197.633 763.422 198.107 764.081C199.056 765.383 199.644 766.957 199.644 768.545C199.611 770.148 199.023 771.693 198.107 773.024C197.224 774.369 196.031 775.528 194.772 776.572C193.48 777.588 192.09 778.518 190.586 779.277C189.049 780.021 187.561 780.722 185.632 781.037C184.65 781.08 183.866 780.98 182.983 780.965C182.116 780.908 181.266 780.937 180.383 780.808C178.633 780.565 176.933 780.078 175.429 779.32C173.875 778.561 172.633 777.56 171.292 776.687C169.984 775.757 168.659 774.855 167.368 773.897L167.466 773.782C168.905 774.555 170.311 775.356 171.733 776.157C173.156 776.944 174.513 777.86 175.968 778.447C177.44 779.048 178.993 779.463 180.579 779.606C182.165 779.677 183.915 779.677 185.419 779.649C186.809 779.42 188.362 778.733 189.736 778.032C191.142 777.316 192.483 776.486 193.692 775.556C196.096 773.711 198.205 771.292 198.336 768.545C198.385 767.2 197.927 765.841 197.11 764.653C196.685 764.052 196.194 763.508 195.671 762.95L194.069 761.19C192.057 758.772 190.439 756.139 189.049 753.449C186.318 748.026 184.373 742.331 183.081 736.55L183.244 736.521L183.228 736.479Z" fill="#C2733B"/>
<path d="M57.4572 765.025C36.7244 781.795 8.35569 754.322 7.24384 733.488C6.29549 715.859 25.1316 701.822 44.4256 706.93C62.9184 711.838 62.6404 728.98 62.6404 728.98L57.4572 765.025Z" fill="#F9C097"/>
<path d="M20.1289 722.27C23.3991 720.51 27.2742 719.537 31.2638 719.651C35.2534 719.794 39.194 721.368 42.1371 723.801C45.0639 726.219 47.4838 729.152 48.7428 732.429C50.0182 735.692 50.7049 739.069 50.5905 742.474L50.2635 742.531C48.612 739.455 47.304 736.407 45.7179 733.517C44.1319 730.655 42.693 727.736 40.2895 725.418C37.9186 723.114 34.7138 721.497 31.1167 721.082C27.5358 720.61 23.7261 721.211 20.3088 722.527L20.1453 722.284L20.1289 722.27Z" fill="#C2733B"/>
<path d="M35.1549 744.549C33.8142 742.775 32.735 740.843 31.8194 738.84C30.9691 736.808 30.3314 734.676 30.217 732.386C30.1679 731.242 30.266 730.054 30.5931 728.866C30.9364 727.679 31.6722 726.52 32.7187 725.647C34.8443 723.887 37.7057 723.315 40.2237 723.672L40.2891 723.958C38.1308 725.146 36.2831 726.191 35.1386 727.579C34.0431 728.924 33.062 730.483 32.8331 732.458C32.6206 734.39 32.8822 736.436 33.389 738.439C33.8469 740.457 34.5827 742.46 35.4329 744.42L35.1386 744.563L35.1549 744.549Z" fill="#C2733B"/>
<path d="M59.0111 759.974C56.771 761.82 54.1713 763.394 51.2608 764.381C48.3667 765.383 45.1783 765.769 42.039 765.526C35.7439 765.025 29.9721 762.292 25.1649 758.843C20.3578 755.338 16.3518 751.074 13.1144 746.395C9.92595 741.701 7.48968 736.564 6.37782 731.084C5.23327 725.618 5.90365 719.78 8.35627 714.571C10.8579 709.363 15.2727 704.884 20.7175 701.851C26.2441 698.975 32.8171 697.372 39.1939 698.116L41.5648 698.417C42.3496 698.517 43.1018 698.76 43.8702 698.932C45.4072 699.275 46.9115 699.704 48.334 700.305C51.1791 701.493 53.8116 703.096 55.8881 705.113L55.6592 705.328C50.9175 701.908 44.9004 700.348 39.0468 700.134C38.311 700.062 37.5752 700.105 36.8394 700.162L34.6484 700.277L32.4901 700.634C31.7706 700.735 31.0512 700.863 30.3645 701.092L28.2879 701.665C27.6175 701.894 26.9635 702.18 26.2931 702.437C24.936 702.895 23.7424 703.654 22.4834 704.283C20.1125 705.728 17.8234 707.345 16.0085 709.334C15.0111 710.264 14.2262 711.338 13.3923 712.382C12.9345 712.883 12.6729 713.484 12.3132 714.028C11.9862 714.6 11.5774 715.129 11.3158 715.73C8.92855 720.381 8.07831 725.618 8.9449 730.755C9.82785 735.892 12.0025 740.886 14.9293 745.493C17.9052 750.072 21.6658 754.293 26.195 757.785C30.6915 761.247 36.12 764.038 42.1044 764.696C45.0802 765.025 48.1378 764.753 50.9829 763.866C53.8442 762.993 56.444 761.548 58.7331 759.788L58.9621 760.002L59.0111 759.974Z" fill="#C2733B"/>
<path d="M178.307 803.43C174.056 803.001 169.87 802.057 165.831 800.797C161.809 799.495 157.934 797.764 154.369 795.603C150.772 793.5 147.584 790.767 145.147 787.619L143.447 785.172C143.005 784.299 142.547 783.441 142.139 782.553C141.942 782.11 141.714 781.681 141.534 781.237L141.125 779.863C140.88 778.933 140.602 778.032 140.389 777.116L140.553 777.087C141.01 777.946 141.403 778.804 141.828 779.663L142.417 780.951C142.629 781.366 142.924 781.766 143.169 782.167C143.692 782.968 144.166 783.784 144.657 784.585L146.472 786.832C148.957 789.737 151.704 792.541 155.121 794.716C158.473 796.934 162.185 798.751 166.109 800.168C170.017 801.599 174.105 802.715 178.307 803.33V803.473V803.43Z" fill="#C2733B"/>
<path d="M145.409 772.365C144.232 774.511 142.417 776.429 139.997 777.731C138.803 778.389 137.43 778.947 135.975 778.976C134.519 779.076 133.081 778.704 131.871 778.089L131.903 777.946C133.309 777.788 134.568 777.803 135.778 777.545C136.972 777.316 138.231 777.202 139.376 776.701C140.537 776.243 141.616 775.599 142.597 774.841C143.594 774.097 144.51 773.238 145.262 772.279L145.409 772.351V772.365Z" fill="#C2733B"/>
<path opacity="0.28" d="M84.6823 753.506C82.3769 764.109 93.7407 774.912 110.059 777.631C126.377 780.35 141.485 773.954 143.791 763.351C146.096 752.748 134.732 741.944 118.398 739.226C102.08 736.507 86.9714 742.903 84.666 753.506H84.6823Z" fill="#C94729"/>
<path opacity="0.28" d="M123.106 729.91C123.106 729.91 131.985 712.467 159.552 717.29C159.552 717.29 168.202 738.882 152.718 742.96C152.718 742.96 137.266 742.044 123.106 729.925V729.91Z" fill="#C94729"/>
<path d="M159.323 716.575C160.566 718.936 161.449 721.425 162.07 723.972C162.642 726.534 162.953 729.167 162.675 731.814C162.397 734.447 161.579 737.137 159.813 739.369L158.342 740.943C157.802 741.415 157.181 741.83 156.592 742.245L155.693 742.86L154.696 743.333C154.009 743.619 153.355 743.919 152.668 744.177L152.586 744.048C154.859 742.36 157.034 740.743 158.44 738.582C159.846 736.479 160.925 734.16 161.367 731.671C161.792 729.181 161.661 726.62 161.269 724.087C160.86 721.554 160.19 719.036 159.176 716.632L159.323 716.575Z" fill="#C2733B"/>
<path d="M123.106 729.91C123.106 729.91 144.885 747.639 165.537 738.61C165.537 738.61 163.182 749.699 145.883 745.536C127.439 741.1 123.09 729.91 123.09 729.91H123.106Z" fill="black"/>
<path d="M160.468 715.516C160.468 715.516 165.275 721.11 166.649 727.964C166.649 727.964 170.508 716.732 160.468 715.516Z" fill="#DB844C"/>
<path opacity="0.65" d="M180.596 765.469C180.432 767.272 183.735 768.96 187.97 769.246C192.205 769.533 195.769 768.302 195.916 766.499C196.08 764.696 192.777 763.008 188.542 762.722C184.307 762.435 180.743 763.666 180.596 765.469Z" fill="#F9E5E3"/>
<path opacity="0.65" d="M97.354 746.051C97.1905 747.854 100.493 749.542 104.728 749.828C108.963 750.115 112.528 748.884 112.675 747.081C112.838 745.278 109.535 743.59 105.3 743.304C101.066 743.017 97.5011 744.248 97.354 746.051Z" fill="#F9E5E3"/>
<path d="M116.812 710.809C116.812 710.809 135.353 696.614 170.916 704.613C170.916 704.613 174.922 698.975 171.391 693.795L169.281 698.088C169.281 698.088 169.33 692.507 158.653 691.62C147.976 690.733 123.597 692.693 116.844 710.809H116.812Z" fill="#1E0200"/>
<path d="M41.0738 705.686C41.0738 705.686 61.0709 710.908 60.1552 757.312C60.1552 757.312 95.9145 739.197 95.146 687.313C95.146 687.313 156.462 646.375 188.297 678.398C188.297 678.398 211.564 656.534 177.914 641.495C144.264 626.457 23.6111 605.394 16.4985 710.665C16.4985 710.665 25.4588 703.611 41.0902 705.671L41.0738 705.686Z" fill="#1E0200"/>
<path d="M153.093 742.975C151.458 761.477 154.81 776.787 160.566 777.173C166.321 777.56 172.322 762.879 173.941 744.392C175.576 725.89 172.224 710.579 166.468 710.193C160.713 709.807 154.712 724.488 153.093 742.975Z" stroke="#F92222" stroke-miterlimit="10"/>
<path d="M152.832 743.662C144.33 741.544 135.844 739.326 127.423 736.994C118.97 734.719 110.549 732.358 102.145 729.954C93.7406 727.536 85.3362 725.132 77.0137 722.527C68.6747 719.952 60.4012 717.204 52.2095 714.214C60.8427 716.017 69.3778 718.063 77.8476 720.281C86.3336 722.47 94.738 724.86 103.159 727.235C111.563 729.625 119.967 732.057 128.323 734.576C136.694 737.051 145.049 739.627 153.339 742.302L152.832 743.662Z" fill="#F92222"/>
<path d="M173.777 746.066C173.777 746.066 177.195 742.074 184.291 740.743" stroke="#F92222" stroke-miterlimit="10"/>
<path d="M194.085 946.706C185.893 922.524 162.119 898.671 151.491 887.925C94.0994 902.32 39.7166 864.673 37.9998 826.182C28.8924 827.498 13.1629 827.398 -4.95384 834.796C-53.8428 854.771 -58.9442 927.246 -58.9442 927.246L-69 1049.14L141.86 1090.43L166.076 1009.06C190.586 996.316 202.178 970.645 194.085 946.721V946.706Z" fill="#0E2C25"/>
<path d="M656.788 742.784C678.768 738.444 692.798 718.378 688.126 697.964C683.454 677.549 661.849 664.518 639.869 668.857C617.89 673.196 603.859 693.263 608.531 713.677C613.203 734.091 634.808 747.123 656.788 742.784Z" fill="#122239"/>
<path d="M704.675 759.713C726.559 754.976 740.165 734.658 735.064 714.333C729.964 694.007 708.088 681.37 686.204 686.108C664.32 690.845 650.714 711.163 655.815 731.488C660.916 751.814 682.791 764.45 704.675 759.713Z" fill="#122239"/>
<path d="M739.489 770.572C753.578 754.314 750.81 730.526 733.305 717.44C715.8 704.354 690.188 706.926 676.098 723.184C662.009 739.442 664.778 763.23 682.283 776.316C699.787 789.402 725.4 786.831 739.489 770.572Z" fill="#122239"/>
<path d="M724.185 848.342C740.074 833.584 740.074 809.658 724.185 794.9C708.295 780.143 682.534 780.143 666.645 794.9C650.756 809.658 650.756 833.584 666.645 848.342C682.534 863.1 708.295 863.1 724.185 848.342Z" fill="#122239"/>
<path d="M713.908 821.338C735.792 816.601 749.398 796.283 744.297 775.958C739.197 755.632 717.321 742.995 695.437 747.733C673.553 752.47 659.947 772.788 665.048 793.113C670.148 813.439 692.024 826.075 713.908 821.338Z" fill="#122239"/>
<path d="M687.385 873.799C709.56 870.426 724.593 850.995 720.962 830.399C717.331 809.803 696.41 795.841 674.235 799.214C652.059 802.587 637.027 822.017 640.658 842.613C644.289 863.209 665.21 877.171 687.385 873.799Z" fill="#122239"/>
<path d="M658.393 886.677C680.864 886.677 699.08 869.758 699.08 848.888C699.08 828.017 680.864 811.099 658.393 811.099C635.922 811.099 617.706 828.017 617.706 848.888C617.706 869.758 635.922 886.677 658.393 886.677Z" fill="#122239"/>
<path d="M588.471 880.023C610.941 880.023 629.157 863.104 629.157 842.234C629.157 821.364 610.941 804.445 588.471 804.445C566 804.445 547.784 821.364 547.784 842.234C547.784 863.104 566 880.023 588.471 880.023Z" fill="#122239"/>
<path d="M566.489 858.388C588.343 853.533 601.823 833.143 596.596 812.845C591.37 792.547 569.416 780.028 547.562 784.882C525.707 789.737 512.228 810.127 517.455 830.424C522.681 850.722 544.635 863.242 566.489 858.388Z" fill="#122239"/>
<path d="M537.687 818.146C560.157 818.146 578.374 801.227 578.374 780.356C578.374 759.486 560.157 742.567 537.687 742.567C515.216 742.567 497 759.486 497 780.356C497 801.227 515.216 818.146 537.687 818.146Z" fill="#122239"/>
<path d="M542.411 768.725C564.882 768.725 583.098 751.806 583.098 730.936C583.098 710.065 564.882 693.146 542.411 693.146C519.941 693.146 501.725 710.065 501.725 730.936C501.725 751.806 519.941 768.725 542.411 768.725Z" fill="#122239"/>
<path d="M597.412 743.079C619.587 739.706 634.62 720.276 630.989 699.68C627.357 679.084 606.437 665.121 584.262 668.494C562.086 671.867 547.053 691.297 550.685 711.893C554.316 732.489 575.237 746.452 597.412 743.079Z" fill="#122239"/>
<path d="M675.133 903.482C666.671 899.473 665.388 897.6 665.388 897.6L663.061 817.097L589.444 856.183L593.21 881.594C594.648 891.261 591.235 909.088 583.225 915.401C567.246 928.002 540.761 932.521 539.675 977.894L649.353 984.089C666.248 959.595 678.729 933.425 675.147 903.468L675.133 903.482Z" fill="#E77C51"/>
<path d="M593.21 881.594L589.444 856.183L659.973 818.734C654.994 837.583 645.983 867.395 631.217 882.498C619.483 894.496 601.206 894.889 593.393 887.75C593.562 885.72 593.52 883.65 593.21 881.594Z" fill="#BD4B22"/>
<path d="M647.181 721.924C631.174 711.995 611.43 708.956 592.561 712.441C579.685 714.825 565.314 720.234 557.557 732.259C541.325 757.381 552.494 787.547 552.494 787.547C552.494 787.547 546.994 802.532 537.969 809.618C528.943 816.704 541.72 826.057 544.851 826.607C547.982 827.157 552.086 826.856 552.086 826.856C552.086 826.856 550.012 833.994 544.949 836.876C542.425 838.317 541.678 841.474 543.243 843.805C544.131 845.128 545.514 846.556 547.615 847.957C547.615 847.957 541.96 858.174 553.397 859.523C553.397 859.523 554.751 872.543 564.976 876.433C569.756 878.254 584.762 879.315 602.419 873.054C630.201 863.204 656.334 843.045 665.825 812.644C667.673 806.723 672.284 805.191 673.85 797.869C680.859 765.188 672.707 737.708 647.195 721.885L647.181 721.924Z" fill="#E77C51"/>
<path d="M558.954 823.607C558.954 823.607 556.345 830.667 550.591 830.445L552.029 826.803C552.029 826.803 557.953 824.184 558.94 823.607H558.954Z" fill="#BD4B22"/>
<path opacity="0.64" d="M547.616 847.984C545.5 846.569 544.132 845.141 543.244 843.832C541.664 841.5 542.426 838.343 544.95 836.902C545.176 836.771 545.402 836.627 545.613 836.483C556.021 839.011 560.999 844.369 571.689 841.487C568.474 858.096 553.398 859.563 553.398 859.563C541.961 858.214 547.616 847.997 547.616 847.997V847.984Z" fill="#F92222"/>
<path d="M571.674 841.487C560.984 844.369 556.006 839.011 545.598 836.483C545.387 836.627 545.161 836.771 544.935 836.902C542.411 838.343 541.663 841.5 543.229 843.832C544.117 845.155 545.499 846.582 547.601 847.984C547.601 847.984 560.646 848.599 571.66 841.487H571.674Z" fill="#F92222"/>
<path opacity="0.47" d="M544.837 826.62C542.242 826.162 533.047 819.665 535.092 813.43C535.882 817.085 540.775 827.694 560.223 816.063C561.351 816.901 562.719 820.752 560.646 822.782C557.219 824.852 552.029 826.817 552.029 826.817C552.029 826.817 547.968 827.184 544.837 826.633V826.62Z" fill="#BD4B22"/>
<path d="M552.551 787.587C550.676 792.63 548.278 797.515 545.26 802.074C543.723 804.34 542.017 806.527 539.986 808.466L538.406 809.867C537.884 810.313 537.405 810.745 536.968 811.243C536.107 812.225 535.557 813.391 535.402 814.596C535.148 817.071 536.601 819.455 538.378 821.368C539.281 822.337 540.296 823.228 541.396 824.014C542.454 824.799 543.681 825.585 544.809 825.939C546.078 826.122 547.559 826.332 548.899 826.437C550.267 826.476 551.635 826.28 552.946 825.9C554.258 825.533 555.513 824.865 556.825 824.315C558.136 823.765 559.434 823.188 560.745 822.664L560.816 822.782C559.603 823.49 558.362 824.158 557.135 824.852C555.88 825.494 554.695 826.253 553.285 826.764C551.903 827.288 550.408 827.537 548.899 827.563C548.137 827.589 547.432 827.472 546.685 827.432C545.937 827.354 545.26 827.354 544.442 827.21C542.849 826.725 541.692 825.926 540.493 825.101C539.323 824.249 538.279 823.267 537.32 822.219C536.39 821.145 535.543 819.979 534.979 818.669C534.387 817.373 534.091 815.919 534.288 814.491C534.5 813.063 535.205 811.714 536.178 810.653C536.672 810.116 537.236 809.645 537.772 809.199L539.337 807.889C541.354 806.042 543.088 803.934 544.668 801.733C547.813 797.319 550.38 792.525 552.424 787.561L552.551 787.6V787.587Z" fill="#9E300D"/>
<path d="M654.726 826.791C669.986 844.067 697.585 822.547 701.322 803.999C704.481 788.307 690.463 773.689 673.497 776.165C657.237 778.549 655.178 793.94 655.178 793.94L654.726 826.777V826.791Z" fill="#E77C51"/>
<path d="M691.309 798.314C688.728 796.703 685.668 795.72 682.608 795.655C679.533 795.576 676.544 796.611 674.188 798.379C671.819 800.161 670.042 802.505 668.434 804.942C666.77 807.352 665.459 809.985 664.02 812.591L663.893 812.552C664.57 809.683 665.727 806.907 667.222 804.287C668.731 801.667 670.902 799.336 673.511 797.554C676.12 795.76 679.421 794.777 682.636 795.013C685.851 795.262 688.898 796.441 691.394 798.222L691.309 798.327V798.314Z" fill="#9E300D"/>
<path d="M676.036 815.853C677.108 814.294 678.01 812.644 678.744 810.954C679.477 809.265 680.041 807.496 680.196 805.728C680.323 803.947 679.9 802.244 678.969 800.842C678.039 799.402 676.431 798.38 674.696 797.437L674.739 797.319C676.727 797.581 678.786 798.458 680.126 800.109C681.48 801.785 681.635 803.973 681.311 805.846C681 807.758 680.267 809.54 679.378 811.216C678.462 812.88 677.376 814.465 676.149 815.919L676.036 815.84V815.853Z" fill="#9E300D"/>
<path d="M654.783 826.751C656.419 828.546 658.365 830.104 660.608 831.192C662.836 832.279 665.332 832.868 667.842 832.921C672.905 833.012 677.785 831.178 681.973 828.65C686.204 826.096 689.885 822.809 692.974 819.128C696.034 815.421 698.53 811.282 699.969 806.828C701.421 802.388 701.449 797.62 700.11 793.193C699.983 792.63 699.701 792.106 699.517 791.569C699.278 791.045 699.137 790.468 698.826 789.971C698.262 788.949 697.755 787.901 697.035 786.958C695.78 784.98 694.06 783.29 692.24 781.745C688.489 778.798 683.793 776.715 678.814 776.414C673.878 776.073 668.674 776.912 664.429 779.557L664.345 779.453C666.376 778.012 668.717 776.951 671.199 776.283C672.44 775.942 673.709 775.746 674.992 775.641C675.641 775.589 676.276 775.471 676.925 775.471L678.871 775.497C679.519 775.484 680.168 775.549 680.803 775.654L682.735 775.929L684.611 776.427C685.245 776.584 685.866 776.767 686.444 777.029L688.235 777.75C688.813 778.025 689.363 778.352 689.927 778.654C691.098 779.217 692.071 780.029 693.129 780.736C697.092 783.893 700.053 788.15 701.421 792.826C702.761 797.515 702.606 802.545 701.026 807.117C699.461 811.701 696.838 815.892 693.665 819.626C690.449 823.332 686.656 826.633 682.312 829.174C677.982 831.676 672.962 833.458 667.786 833.274C665.219 833.169 662.667 832.528 660.424 831.375C658.168 830.235 656.236 828.611 654.628 826.777L654.741 826.699L654.783 826.751Z" fill="#9E300D"/>
<path d="M547.615 847.918C551.24 847.827 554.836 847.263 558.333 846.412C561.831 845.561 565.201 844.342 568.332 842.718C571.505 841.133 574.199 838.92 576.681 836.601L578.515 834.794C579.036 834.126 579.544 833.445 580.094 832.79C580.362 832.449 580.658 832.135 580.898 831.781L581.561 830.694C582.026 829.973 582.477 829.253 582.985 828.533L583.112 828.585C582.816 829.384 582.463 830.17 582.139 830.969L581.603 832.161C581.406 832.541 581.152 832.908 580.926 833.274C580.475 834.021 579.967 834.741 579.474 835.475L577.711 837.479C575.229 840.046 572.182 842.142 568.854 843.635C565.568 845.181 562.071 846.307 558.488 847.041C554.906 847.735 551.254 848.128 547.601 848.036V847.905L547.615 847.918Z" fill="#9E300D"/>
<path d="M579.657 823.765C580.165 824.708 580.827 825.572 581.561 826.345C582.28 827.131 583.112 827.812 584.029 828.349C584.931 828.912 585.975 829.161 586.948 829.489C587.935 829.855 588.993 829.973 590.164 830.275V830.406C589.078 830.825 587.808 830.995 586.595 830.759C585.369 830.563 584.283 829.921 583.366 829.2C581.49 827.773 580.221 825.847 579.516 823.804L579.643 823.765H579.657Z" fill="#9E300D"/>
<path opacity="0.47" d="M633.29 813.508C633.812 823.253 622.784 831.689 608.638 832.357C594.493 833.012 582.605 825.651 582.083 815.892C581.561 806.147 592.589 797.711 606.735 797.043C620.88 796.389 632.768 803.75 633.29 813.508Z" fill="#BD4B22"/>
<path d="M605.958 771.607C605.958 771.607 592.208 756.884 561.139 760.172C561.139 760.172 558.516 754.683 562.197 750.439L563.41 754.513C563.41 754.513 564.115 749.509 573.254 749.876C582.392 750.243 602.686 754.644 605.972 771.607H605.958Z" fill="#122239"/>
<path opacity="0.47" d="M604.027 788.202C604.027 788.202 598.865 771.607 574.961 772.93C574.961 772.93 564.764 791.333 577.302 796.664C577.302 796.664 590.46 797.528 604.041 788.202H604.027Z" fill="#7F260A"/>
<path d="M575.384 772.38C574.199 774.423 573.297 776.611 572.62 778.837C571.943 781.051 571.491 783.343 571.52 785.609C571.562 787.888 572.168 790.076 573.071 792.119C573.959 794.215 575.581 795.892 577.274 797.647L577.189 797.752C576.653 797.45 576.131 797.11 575.595 796.769L574.806 796.245L574.129 795.603C573.677 795.171 573.212 794.739 572.817 794.241L571.787 792.669C570.589 790.469 570.264 787.967 570.377 785.583C570.49 783.186 571.111 780.855 571.929 778.628C572.803 776.414 573.889 774.279 575.243 772.301L575.356 772.367L575.384 772.38Z" fill="#9E300D"/>
<path d="M604.027 788.203C604.027 788.203 583.281 801.72 567.049 791.386C567.049 791.386 567.557 801.576 582.703 799.729C598.865 797.764 604.027 788.216 604.027 788.216V788.203Z" fill="black"/>
<path d="M574.439 771.252C574.439 771.252 569.644 775.732 567.557 781.718C567.557 781.718 565.808 771.239 574.439 771.252Z" fill="#BD4B22"/>
<path opacity="0.65" d="M550.76 813.796C550.648 815.434 547.644 816.586 544.033 816.377C540.423 816.167 537.588 814.687 537.687 813.05C537.786 811.413 540.804 810.26 544.414 810.469C548.025 810.679 550.859 812.159 550.76 813.796Z" fill="#F9E5E3"/>
<path opacity="0.65" d="M623.615 805.453C623.503 807.09 620.499 808.243 616.888 808.033C613.278 807.824 610.443 806.343 610.542 804.706C610.655 803.069 613.659 801.916 617.269 802.126C620.879 802.335 623.714 803.815 623.615 805.453Z" fill="#F9E5E3"/>
<path d="M680.831 775.156C680.831 775.156 665.247 772.353 663.95 795.315C663.95 795.315 638.621 783.251 645.32 754.238C652.005 725.212 621.035 751.854 617.072 722.959C617.072 722.959 549.251 709.677 548.983 758.233C548.983 758.233 539.422 702.473 623.616 705.787C707.796 709.101 680.831 775.156 680.831 775.156Z" fill="#122239"/>
<path d="M509.1 977.947C521.201 957.775 546.332 940.629 557.6 932.888C602.8 955.784 656.687 931.67 666.418 897.575C673.808 900.338 687.065 902.998 700.716 912.782C737.567 939.189 726.271 1004.81 726.271 1004.81L708.501 1115.45H522.146L519.269 1038.53C501.386 1022.85 497.141 997.883 509.115 977.934L509.1 977.947Z" fill="#EDB733"/>
</svg>
