<svg width="596" height="282" viewBox="0 0 596 282" fill="none" xmlns="http://www.w3.org/2000/svg">
<g clip-path="url(#clip0_135_24)">
<path d="M247.857 148.421L256.658 337.597L173.67 330.12L173.504 171.644C173.504 171.644 137.876 149.25 120.127 78.7363L250.318 50.3577L247.848 148.421H247.857Z" fill="#E97C51"/>
<path d="M256.667 337.606L248.585 163.992C241.609 205.639 243.185 254.376 209.732 281.475C198.636 290.001 186.388 289.578 173.634 285.674L173.68 330.129L256.667 337.606Z" fill="#D3643D"/>
<path d="M208.248 44.3911C210.967 66.7017 220.92 97.0416 230.504 95.8814C240.088 94.7212 242.189 62.6503 239.471 40.3396C236.752 18.029 231.167 2.22833 219.279 3.67396C205.667 5.33138 205.529 22.0805 208.239 44.3911H208.248Z" fill="#E97C51"/>
<path d="M227.675 87.4009C225.914 87.1431 224.44 85.9368 223.73 84.3071C221.86 80.0346 218.68 70.7991 225.122 69.022C231.684 67.2173 233.877 77.0605 234.467 80.8173C234.642 81.9222 234.467 83.0456 233.941 84.0308C233.057 85.7251 231.204 87.9165 227.675 87.3917V87.4009Z" fill="white"/>
<path d="M208.34 43.4795C210.874 59.3999 215.796 74.8783 222.671 89.4451L222.523 89.5464C217.178 83.2758 214.478 75.2742 212.469 67.4291C210.386 59.584 208.902 51.5732 208.165 43.4979L208.349 43.4795H208.34Z" fill="#A0300D"/>
<path d="M143.397 60.201C149.7 83.1009 165.137 113.183 175.449 110.347C185.761 107.511 183.273 73.5892 176.97 50.6893C170.666 27.7894 162.188 12.1913 149.387 15.7087C134.734 19.7417 137.084 37.3011 143.387 60.201H143.397Z" fill="#E97C51"/>
<path d="M146.254 69.0127C151.221 81.9866 156.972 95.2643 166.455 105.568C169.201 108.422 174.223 111.958 177.587 108.128C182.453 101.931 181.522 89.0858 181.255 81.3973C180.767 72.0881 179.393 62.8158 177.652 53.5988L177.827 53.5527C181.891 66.5911 187.715 97.9346 178.665 109.122C166.141 120.973 148.189 77.6773 146.254 69.0035V69.0127Z" fill="#A0300D"/>
<path d="M119.39 78.6995C126.228 97.198 141.185 120.982 149.599 117.879C158.004 114.776 153.589 86.8576 146.742 68.359C139.904 49.8605 131.748 37.568 121.316 41.4169C109.372 45.8274 112.543 60.2009 119.39 78.6995Z" fill="#E97C51"/>
<path d="M119.473 78.6719C122.892 87.401 127.242 95.7709 132.476 103.515C135.103 107.364 137.969 111.111 141.415 114.168C148.982 120.853 152.898 116.691 153.267 107.852C153.553 96.2313 150.88 84.6939 147.83 73.5431C146.604 69.0221 144.816 64.6852 143.314 60.247L143.489 60.1733C147.728 68.6169 150.908 77.5301 152.935 86.7656C154.41 93.7176 155.442 100.835 154.926 107.962C154.364 117.842 148.945 122.732 140.632 115.061C137.112 111.811 134.301 107.962 131.72 104.03C126.643 96.084 122.505 87.5759 119.307 78.7456L119.482 78.6811L119.473 78.6719Z" fill="#A0300D"/>
<path d="M173.68 45.6065C176.712 70.5413 187.844 104.445 198.553 103.146C209.262 101.848 211.612 66.0111 208.58 41.0762C205.548 16.1413 199.299 -1.51012 186.01 0.101258C170.795 1.95204 170.639 20.6808 173.68 45.6065Z" fill="#E97C51"/>
<path d="M173.136 39.9712C175.044 56.8952 178.97 73.7732 186.066 89.2792C188.314 93.7543 193.586 104.454 199.696 102.004C204.986 99.0304 206.368 89.1964 207.382 83.5888C209.658 69.6297 209.087 54.8695 208.672 41.0761C211.114 54.0316 213.261 96.4522 200.341 103.432C189.393 107.584 181.458 81.3237 179.135 73.6535C176.177 62.7698 173.495 50.9285 173.136 39.9804V39.9712Z" fill="#A0300D"/>
<path d="M234.826 79.7861C235.996 78.9666 237.213 78.1839 238.457 77.4289L237.01 73.5063C237.01 73.5063 214.238 81.0568 202.239 72.9815C198.47 70.4401 196.922 65.606 198.673 61.4164C200.94 55.9746 207.418 48.2492 225.417 42.3654C256.345 32.2552 254.797 33.268 266.694 54.4277C278.592 75.5965 277.937 99.5277 267.468 118.984C257.008 138.44 233.388 160.659 233.388 160.659L233.351 160.631C206.7 139.95 207.142 99.0489 234.835 79.7953L234.826 79.7861Z" fill="#E97C51"/>
<path d="M201.401 133.965C200.663 116.001 210.976 99.2883 223.952 87.5944C225.813 85.8172 228.79 83.5982 230.79 81.9315C233.204 80.2189 235.665 78.5707 238.098 76.8856L237.83 77.6591L236.356 73.7457L237.167 74.1601C226.523 76.812 203.318 81.4343 197.724 68.7919C195.097 62.5306 199.502 56.2232 204.239 52.4296C207.354 49.8514 210.828 47.7796 214.423 46.0577C221.638 42.66 229.232 40.2292 236.983 38.5994L237.019 38.7743C229.463 40.9566 222.007 43.6637 215.04 47.2916C209.907 49.9711 204.903 53.2306 201.438 57.8806C197.807 62.4109 197.834 68.7275 202.829 72.1988C211.722 77.9722 227.555 75.0717 237.416 72.7053C237.683 73.4419 238.946 76.9317 239.213 77.6775C236.642 79.4086 234.034 81.1028 231.481 82.8615C226.901 86.3881 222.21 90.1818 218.376 94.5095C217.519 95.4487 216.22 96.793 215.464 97.7874L212.782 101.259C206.045 110.715 201.189 122.142 201.576 133.928L201.391 133.947L201.401 133.965Z" fill="#A0300D"/>
<path d="M145.231 113.671C143.461 113.505 141.941 112.336 141.176 110.734C139.333 106.885 136.135 98.6898 141.074 96.5444C146.152 94.3345 149.47 102.925 150.696 106.839C151.138 108.257 150.981 109.822 150.189 111.084C149.313 112.474 147.783 113.91 145.24 113.671H145.231Z" fill="white"/>
<path d="M196.443 98.1558C194.682 97.898 193.208 96.6917 192.498 95.0619C190.627 90.7895 187.448 81.554 193.89 79.7769C200.451 77.9722 202.645 87.8154 203.235 91.5722C203.41 92.6771 203.235 93.8005 202.709 94.7857C201.825 96.48 199.972 98.6714 196.443 98.1466V98.1558Z" fill="white"/>
<path d="M171.44 105.172C169.68 104.914 168.206 103.708 167.496 102.078C165.625 97.8059 162.446 88.5704 168.888 86.7933C175.449 84.9885 177.643 94.8317 178.232 98.5885C178.407 99.6935 178.232 100.817 177.707 101.802C176.822 103.496 174.97 105.688 171.44 105.163V105.172Z" fill="white"/>
<path d="M201.29 61.3336C201.686 59.1421 203.253 57.3466 205.326 56.5271C210.745 54.3724 222.449 50.7721 224.403 58.9119C226.394 67.1897 213.971 69.5193 209.243 70.0994C207.861 70.2744 206.451 70.0074 205.244 69.3168C203.161 68.1382 200.497 65.7257 201.299 61.3428L201.29 61.3336Z" fill="#FFEFDF"/>
<path d="M252.198 181.174H171.145V192.426H252.198V181.174Z" fill="#FFC5D9"/>
<path d="M252.198 198.54H171.145V209.792H252.198V198.54Z" fill="#FFC5D9"/>
<path d="M568.399 158.513L577.2 347.688L494.212 340.212L494.047 181.735C494.047 181.735 458.418 159.342 440.669 88.8281L570.86 60.4495L568.39 158.513H568.399Z" fill="#B9553B"/>
<path opacity="0.5" d="M577.209 347.689L569.127 174.074C562.151 215.722 563.726 264.459 530.273 291.557C519.178 300.084 506.93 299.66 494.175 295.756L494.221 340.212L577.209 347.689Z" fill="#872D1B"/>
<path d="M528.79 53.5713C531.508 75.8819 541.461 106.222 551.046 105.062C560.63 103.901 562.731 71.8304 560.013 49.5198C557.294 27.2092 551.709 11.4085 539.821 12.8541C526.209 14.5116 526.071 31.2606 528.78 53.5713H528.79Z" fill="#B9553B"/>
<path d="M548.981 98.9014C547.221 98.6436 545.747 97.4373 545.037 95.8076C543.166 91.5351 539.987 82.2996 546.429 80.5225C552.99 78.7178 555.184 88.561 555.773 92.3178C555.948 93.4227 555.773 94.5461 555.248 95.5313C554.363 97.2256 552.511 99.417 548.981 98.8922V98.9014Z" fill="#005248"/>
<path d="M528.836 53.5713C530.541 65.5599 533.619 77.3644 538.051 88.6256C539.489 92.3824 541.139 96.0563 543.175 99.5553L543.102 99.6106C538.208 93.0822 535.517 85.2003 533.361 77.4196C531.296 69.6574 529.407 61.4164 528.845 53.5713H528.836Z" fill="#56150A"/>
<path d="M463.938 70.2835C470.242 93.1835 485.678 123.266 495.991 120.429C506.303 117.593 503.815 83.6717 497.511 60.7718C491.208 37.8719 482.729 22.2738 469.929 25.7912C455.276 29.8242 457.626 47.3836 463.929 70.2835H463.938Z" fill="#B9553B"/>
<path d="M466.749 79.1137C471.643 92.152 477.301 105.485 486.784 115.871C489.623 118.901 494.885 122.446 498.396 118.477C503.391 112.262 502.608 99.2144 502.248 91.4706C501.778 82.1707 500.018 72.6682 498.323 63.6721C501.917 76.4158 507.621 108.266 498.931 118.974C486.692 130.365 469.063 87.723 466.74 79.1229L466.749 79.1137Z" fill="#56150A"/>
<path d="M439.932 88.782C446.77 107.281 461.727 131.064 470.141 127.961C478.545 124.858 474.131 96.9401 467.284 78.4416C460.446 59.943 452.29 47.6505 441.858 51.4994C429.914 55.9099 433.084 70.2834 439.932 88.782Z" fill="#B9553B"/>
<path d="M439.969 88.7727C444.751 100.853 453.755 119.113 464.528 126.543C478.804 134.471 473.624 103.717 472.113 97.1242C470.38 88.0453 467.367 78.8835 463.893 70.3018C468.03 78.4967 471.026 87.7967 473.007 96.9309C473.956 101.544 474.703 106.203 475.025 110.918C475.237 115.632 475.385 120.531 473.495 124.978C471.698 129.085 467.643 129.435 464.197 127.077C453.728 119.886 444.06 100.54 439.969 88.7635V88.7727Z" fill="#56150A"/>
<path d="M494.222 55.689C497.254 80.6239 508.386 114.527 519.095 113.229C529.804 111.931 532.154 76.0936 529.122 51.1587C526.09 26.2239 519.841 8.5724 506.561 10.1838C491.346 12.0346 491.19 30.7633 494.231 55.689H494.222Z" fill="#B9553B"/>
<path d="M493.632 50.063C494.774 61.4071 497.023 72.6314 500.341 83.5335C502.875 91.6365 505.76 99.8038 510.515 106.894C524.246 125.696 528.808 95.4209 529.389 85.283C530.439 73.9942 529.951 62.3094 529.177 51.1587C530.762 62.466 531.094 73.939 530.31 85.3567C529.425 93.8095 528.725 102.852 524.053 110.227C519.334 116.921 513.399 112.529 509.971 107.271C500.285 91.9495 495.069 67.8986 493.641 50.063H493.632Z" fill="#56150A"/>
<path d="M555.368 89.8686C556.548 89.0583 557.755 88.2665 558.999 87.5114L557.552 83.5889C557.552 83.5889 534.78 91.1393 522.781 83.064C519.012 80.5227 517.464 75.6885 519.215 71.499C521.482 66.0571 527.96 58.3317 545.959 52.4479C576.887 42.3377 575.338 43.3505 587.236 64.5102C599.133 85.679 598.479 109.61 588.01 129.066C577.55 148.523 553.93 170.741 553.93 170.741L553.893 170.714C527.242 150.033 515.584 117.419 555.377 89.8778L555.368 89.8686Z" fill="#B9553B"/>
<path d="M521.988 144.038C521.399 130.687 527.371 117.787 535.508 107.474C538.264 104.021 541.425 100.854 544.668 97.8702C546.53 96.1115 549.507 93.9017 551.507 92.2442C553.921 90.5408 556.382 88.911 558.815 87.2352L558.686 87.6219L557.229 83.7086L557.635 83.9203C553.792 84.9332 549.894 85.679 545.959 86.2131C538.217 87.051 529.453 87.8521 522.578 83.4231C519.159 81.1396 517.215 76.6645 518.228 72.6039C521.758 59.2801 545.498 51.3153 557.561 48.8108C545.378 52.2822 529.638 57.4478 521.62 67.6961C517.814 72.4105 517.851 79.0862 523.104 82.6773C526.292 84.8687 530.283 85.6238 534.107 85.9092C541.941 86.388 549.857 85.1634 557.451 83.2758L557.755 83.2021L557.856 83.4876L559.294 87.4101L559.377 87.6495C556.87 89.3438 554.345 91.0012 551.857 92.7323C549.838 94.3713 546.889 96.5259 545.019 98.2754C541.747 101.25 538.651 104.316 535.849 107.759C527.555 117.916 521.758 130.936 521.988 144.048V144.038Z" fill="#56150A"/>
<path d="M465.772 123.753C464.003 123.588 462.482 122.418 461.717 120.816C459.874 116.967 456.676 108.772 461.616 106.627C466.694 104.417 470.012 113.008 471.237 116.921C471.68 118.339 471.523 119.905 470.73 121.166C469.855 122.556 468.325 123.993 465.782 123.753H465.772Z" fill="#005248"/>
<path d="M516.984 108.238C515.224 107.98 513.75 106.774 513.04 105.144C511.169 100.872 507.99 91.6365 514.432 89.8594C520.993 88.0547 523.186 97.8979 523.776 101.655C523.951 102.76 523.776 103.883 523.251 104.868C522.366 106.562 520.514 108.754 516.984 108.229V108.238Z" fill="#005248"/>
<path d="M491.982 115.255C490.222 114.997 488.747 113.791 488.038 112.161C486.167 107.888 482.988 98.6529 489.429 96.8758C495.991 95.071 498.184 104.914 498.774 108.671C498.949 109.776 498.774 110.899 498.249 111.885C497.364 113.579 495.512 115.77 491.982 115.245V115.255Z" fill="#005248"/>
<path d="M521.832 71.4161C522.228 69.2246 523.795 67.4291 525.868 66.6096C531.287 64.4549 542.991 60.8547 544.945 68.9944C546.935 77.2723 534.513 79.6019 529.785 80.182C528.403 80.3569 526.993 80.0899 525.785 79.3993C523.703 78.2207 521.039 75.8082 521.841 71.4253L521.832 71.4161Z" fill="#005248"/>
<path d="M572.583 194.93H491.503V209.939H572.583V194.93Z" fill="#FDB733"/>
<path d="M134.568 218.825L143.369 408L60.3816 400.523L60.2157 242.047C60.2157 242.047 24.5876 219.653 6.83813 149.14L137.029 120.761L134.559 218.825H134.568Z" fill="#B9553B"/>
<path opacity="0.5" d="M143.369 408L135.287 234.386C128.311 276.033 129.887 324.77 96.4335 351.869C85.3377 360.395 73.09 359.972 60.3354 356.068L60.3815 400.523L143.369 408Z" fill="#872D1B"/>
<path d="M94.9498 113.892C97.6684 136.203 107.621 166.543 117.206 165.382C126.79 164.222 128.891 132.151 126.173 109.841C123.454 87.53 117.869 71.7293 105.981 73.1749C92.3694 74.8324 92.2312 91.5814 94.9406 113.892H94.9498Z" fill="#B9553B"/>
<path opacity="0.5" d="M114.69 158.255C112.93 157.998 111.455 156.791 110.745 155.162C108.875 150.889 105.695 141.654 112.137 139.877C118.699 138.072 120.892 147.915 121.482 151.672C121.657 152.777 121.482 153.9 120.957 154.885C120.072 156.58 118.219 158.771 114.69 158.246V158.255Z" fill="#872D1B"/>
<path d="M94.9958 113.892C96.7008 125.881 99.7788 137.685 104.212 148.946C105.649 152.703 107.299 156.377 109.336 159.876L109.262 159.931C104.368 153.403 101.677 145.521 99.5208 137.74C97.4564 129.978 95.5672 121.737 95.0051 113.892H94.9958Z" fill="#56150A"/>
<path d="M30.0986 130.604C36.4022 153.504 51.8385 183.586 62.1509 180.75C72.4633 177.914 69.9751 143.993 63.6715 121.093C57.368 98.1927 48.8895 82.5946 36.0888 86.112C21.4358 90.145 23.7858 107.704 30.0894 130.604H30.0986Z" fill="#B9553B"/>
<path d="M32.9096 139.434C37.8032 152.473 43.4616 165.806 52.9446 176.192C55.7831 179.222 61.0452 182.767 64.5564 178.798C69.5514 172.583 68.768 159.535 68.4086 151.791C67.9386 142.492 66.1784 132.989 64.4827 123.993C68.0769 136.737 73.7814 168.587 65.091 179.295C52.8525 190.685 35.2228 148.044 32.9004 139.444L32.9096 139.434Z" fill="#56150A"/>
<path d="M6.0917 149.103C12.9298 167.601 27.8869 191.385 36.3009 188.282C44.7056 185.179 40.2913 157.261 33.444 138.762C26.6059 120.264 18.45 107.971 8.01779 111.82C-3.92581 116.231 -0.755594 130.604 6.0917 149.103Z" fill="#B9553B"/>
<path d="M6.1377 149.084C10.9207 161.165 19.9244 179.424 30.6976 186.855C44.9728 194.783 39.7936 164.029 38.2822 157.436C36.5496 148.357 33.5361 139.195 30.0617 130.614C34.1996 138.809 37.1947 148.108 39.1853 157.243C40.1345 161.856 40.881 166.515 41.2036 171.229C41.4155 175.944 41.563 180.842 39.6738 185.29C37.8767 189.396 33.8218 189.746 30.3751 187.389C19.906 180.198 10.2387 160.852 6.14691 149.075L6.1377 149.084Z" fill="#56150A"/>
<path d="M60.3817 116.01C63.4137 140.945 74.5463 174.848 85.255 173.55C95.9636 172.251 98.3137 136.414 95.2817 111.48C92.2497 86.5447 86.0014 68.8932 72.7216 70.5046C57.5064 72.3554 57.3497 91.0841 60.3909 116.01H60.3817Z" fill="#B9553B"/>
<path d="M59.7917 110.375C60.9345 121.719 63.1831 132.943 66.5008 143.845C69.0351 151.948 71.9197 160.115 76.675 167.205C90.4064 186.008 94.9682 155.732 95.5488 145.595C96.5994 134.306 96.111 122.621 95.3368 111.47C96.9219 122.777 97.2537 134.25 96.4704 145.668C95.5857 154.121 94.8853 163.163 90.2129 170.539C85.4944 177.233 79.5595 172.841 76.1313 167.583C66.4455 152.261 61.2294 128.21 59.801 110.375H59.7917Z" fill="#56150A"/>
<path d="M121.528 150.189C122.698 149.37 123.915 148.587 125.159 147.832L123.712 143.91C123.712 143.91 100.94 151.46 88.9411 143.385C85.1718 140.843 83.6236 136.009 85.3746 131.82C87.6416 126.378 94.1203 118.653 112.119 112.769C143.047 102.658 141.498 103.671 153.396 124.831C165.293 145.991 164.639 169.931 154.17 189.387C143.71 208.843 120.09 231.062 120.09 231.062L120.053 231.034C93.4015 210.354 93.8438 169.452 121.537 150.199L121.528 150.189Z" fill="#B9553B"/>
<path d="M88.1577 204.359C87.5679 191.008 93.5397 178.108 101.677 167.795C104.433 164.342 107.594 161.174 110.838 158.191C112.699 156.432 115.676 154.222 117.676 152.565C120.09 150.862 122.551 149.232 124.984 147.556L124.855 147.943L123.399 144.029L123.804 144.241C119.961 145.254 116.063 146 112.128 146.534C104.387 147.372 95.6224 148.173 88.7475 143.744C85.3285 141.46 83.3839 136.985 84.3977 132.925C87.9273 119.601 111.667 111.636 123.73 109.132C111.547 112.603 95.8068 117.769 87.7891 128.017C83.983 132.731 84.0198 139.407 89.2728 142.998C92.4614 145.19 96.4519 145.945 100.276 146.23C108.11 146.709 116.026 145.484 123.62 143.597L123.924 143.523L124.025 143.808L125.463 147.731L125.546 147.97C123.039 149.665 120.514 151.322 118.026 153.053C116.008 154.692 113.059 156.847 111.188 158.596C107.916 161.57 104.82 164.637 102.018 168.08C93.724 178.237 87.9273 191.256 88.1577 204.368V204.359Z" fill="#56150A"/>
<path opacity="0.5" d="M31.9418 184.065C30.1724 183.899 28.6518 182.73 27.8869 181.128C26.0438 177.279 22.8459 169.084 27.7855 166.938C32.8634 164.729 36.1811 173.319 37.4068 177.233C37.8491 178.651 37.6924 180.216 36.8999 181.478C36.0244 182.868 34.4946 184.304 31.951 184.065H31.9418Z" fill="#872D1B"/>
<path opacity="0.5" d="M83.1444 168.559C81.3842 168.301 79.9097 167.095 79.2001 165.465C77.3293 161.193 74.1499 151.957 80.5917 150.18C87.1533 148.375 89.3466 158.219 89.9364 161.975C90.1115 163.08 89.9364 164.204 89.4111 165.189C88.5264 166.883 86.674 169.075 83.1444 168.55V168.559Z" fill="#872D1B"/>
<path opacity="0.5" d="M58.1515 175.566C56.3913 175.308 54.9168 174.102 54.2072 172.472C52.3364 168.2 49.1569 158.964 55.5987 157.187C62.1603 155.383 64.3537 165.226 64.9435 168.983C65.1186 170.088 64.9435 171.211 64.4182 172.196C63.5335 173.89 61.6811 176.082 58.1515 175.557V175.566Z" fill="#872D1B"/>
<path opacity="0.5" d="M87.9919 131.737C88.3882 129.545 89.9549 127.75 92.0284 126.93C97.4472 124.776 109.151 121.175 111.105 129.315C113.096 137.593 100.673 139.923 95.9451 140.503C94.5627 140.678 93.1527 140.411 91.9455 139.72C89.8627 138.541 87.1993 136.129 88.0011 131.746L87.9919 131.737Z" fill="#872D1B"/>
<path d="M474.131 190.584L482.932 379.759L399.945 372.283L399.779 213.806C399.779 213.806 364.151 191.413 346.401 120.899L476.592 92.5205L474.122 190.584H474.131Z" fill="#E97C51"/>
<path d="M482.932 379.769L474.85 206.155C467.874 247.802 469.45 296.539 435.996 323.638C424.901 332.164 412.653 331.741 399.898 327.837L399.945 372.292L482.932 379.769Z" fill="#D3643D"/>
<path d="M434.513 85.6516C437.231 107.962 447.184 138.302 456.769 137.142C466.353 135.982 468.454 103.911 465.736 81.6001C463.017 59.2895 457.432 43.4888 445.544 44.9345C431.932 46.5919 431.794 63.341 434.504 85.6516H434.513Z" fill="#E97C51"/>
<path d="M452.327 129.352C450.567 129.094 449.092 127.888 448.382 126.258C446.512 121.986 443.332 112.75 449.774 110.973C456.336 109.168 458.529 119.012 459.119 122.768C459.294 123.873 459.119 124.997 458.593 125.982C457.709 127.676 455.856 129.868 452.327 129.343V129.352Z" fill="#D3643D"/>
<path d="M434.605 85.6423C437.139 101.563 442.061 117.041 448.936 131.608L448.788 131.709C443.443 125.439 440.743 117.437 438.734 109.592C436.651 101.747 435.167 93.736 434.43 85.6607L434.614 85.6423H434.605Z" fill="#A0300D"/>
<path d="M369.671 102.364C375.974 125.264 391.411 155.346 401.723 152.51C412.036 149.674 409.547 115.752 403.244 92.8521C396.94 69.9522 388.462 54.3541 375.661 57.8715C361.008 61.9045 363.358 79.4639 369.662 102.364H369.671Z" fill="#E97C51"/>
<path d="M372.519 111.176C377.486 124.149 383.236 137.427 392.719 147.731C395.466 150.585 400.488 154.121 403.852 150.291C408.718 144.094 407.787 131.249 407.52 123.56C407.031 114.251 405.658 104.979 403.917 95.7616L404.092 95.7156C408.156 108.754 413.98 140.097 404.93 151.285C392.406 163.135 374.454 119.84 372.519 111.166V111.176Z" fill="#A0300D"/>
<path d="M345.655 120.862C352.493 139.361 367.45 163.145 375.864 160.042C384.269 156.939 379.854 129.02 373.007 110.522C366.169 92.0233 358.013 79.7308 347.581 83.5797C335.637 87.9903 338.807 102.364 345.655 120.862Z" fill="#E97C51"/>
<path d="M345.747 120.835C349.166 129.564 353.516 137.934 358.75 145.678C361.377 149.526 364.243 153.274 367.69 156.331C375.256 163.016 379.172 158.854 379.541 150.014C379.827 138.394 377.154 126.857 374.104 115.706C372.878 111.185 371.09 106.848 369.588 102.41L369.763 102.336C374.002 110.78 377.182 119.693 379.209 128.928C380.684 135.88 381.716 142.998 381.2 150.125C380.638 160.005 375.219 164.894 366.906 157.224C363.386 153.974 360.575 150.125 357.995 146.193C352.917 138.247 348.779 129.739 345.581 120.908L345.756 120.844L345.747 120.835Z" fill="#A0300D"/>
<path d="M399.954 87.7693C402.986 112.704 414.118 146.607 424.827 145.309C435.536 144.011 437.886 108.174 434.854 83.2391C431.822 58.3042 425.573 40.6527 412.294 42.2641C397.078 44.1149 396.922 62.8344 399.963 87.7693H399.954Z" fill="#E97C51"/>
<path d="M399.401 82.134C401.309 99.0581 405.234 115.936 412.331 131.442C414.579 135.917 419.851 146.617 425.961 144.167C431.25 141.193 432.633 131.359 433.647 125.752C435.923 111.793 435.351 97.0323 434.937 83.239C437.379 96.1944 439.526 138.615 426.606 145.595C415.657 149.747 407.732 123.487 405.4 115.816C402.442 104.933 399.76 93.0914 399.401 82.1432V82.134Z" fill="#A0300D"/>
<path d="M461.091 121.949C462.261 121.129 463.478 120.347 464.722 119.592L463.275 115.669C463.275 115.669 440.503 123.22 428.504 115.144C424.735 112.603 423.187 107.769 424.938 103.579C427.205 98.1374 433.683 90.412 451.682 84.5282C482.61 74.418 481.061 75.4309 492.959 96.5905C504.856 117.759 504.202 141.691 493.733 161.147C483.273 180.603 459.653 202.822 459.653 202.822L459.616 202.794C432.964 182.113 433.407 141.212 461.1 121.958L461.091 121.949Z" fill="#E97C51"/>
<path d="M427.675 176.128C426.937 158.163 437.25 141.451 450.226 129.757C452.087 127.98 455.064 125.761 457.064 124.094C459.478 122.382 461.939 120.733 464.372 119.048L464.104 119.822L462.63 115.909L463.441 116.323C452.797 118.975 429.591 123.597 423.998 110.955C421.371 104.693 425.776 98.386 430.513 94.5924C433.628 92.0142 437.102 89.9424 440.696 88.2206C447.912 84.8229 455.506 82.392 463.257 80.7622L463.293 80.9372C455.737 83.1194 448.281 85.8265 441.314 89.4544C436.181 92.1339 431.177 95.3935 427.711 100.043C424.08 104.574 424.108 110.89 429.103 114.362C437.996 120.135 453.829 117.235 463.69 114.868C463.957 115.605 465.22 119.094 465.487 119.84C462.916 121.571 460.308 123.266 457.755 125.024C453.175 128.551 448.484 132.345 444.65 136.672C443.793 137.611 442.493 138.956 441.738 139.95L439.056 143.422C432.319 152.878 427.463 164.305 427.85 176.091L427.665 176.11L427.675 176.128Z" fill="#A0300D"/>
<path d="M371.505 155.834C369.735 155.668 368.215 154.499 367.45 152.897C365.607 149.048 362.409 140.853 367.349 138.707C372.426 136.497 375.744 145.088 376.97 149.002C377.412 150.42 377.255 151.985 376.463 153.246C375.587 154.637 374.058 156.073 371.514 155.834H371.505Z" fill="#D3643D"/>
<path d="M422.707 140.319C420.947 140.061 419.473 138.855 418.763 137.225C416.892 132.952 413.713 123.717 420.155 121.94C426.716 120.135 428.91 129.978 429.499 133.735C429.674 134.84 429.499 135.963 428.974 136.949C428.089 138.643 426.237 140.834 422.707 140.309V140.319Z" fill="#D3643D"/>
<path d="M397.714 147.335C395.954 147.077 394.48 145.871 393.77 144.241C391.899 139.969 388.72 130.733 395.161 128.956C401.723 127.151 403.916 136.995 404.506 140.751C404.681 141.856 404.506 142.98 403.981 143.965C403.096 145.659 401.244 147.851 397.714 147.326V147.335Z" fill="#D3643D"/>
<path d="M427.555 103.496C427.951 101.305 429.518 99.5094 431.591 98.6899C437.01 96.5353 448.714 92.935 450.668 101.075C452.659 109.353 440.236 111.682 435.508 112.262C434.126 112.437 432.716 112.17 431.508 111.48C429.426 110.301 426.762 107.889 427.564 103.506L427.555 103.496Z" fill="#D3643D"/>
<path d="M363.091 155.272L371.892 344.447L288.904 336.97L288.738 178.494C288.738 178.494 253.11 156.101 235.361 85.5869L365.551 57.2083L363.081 155.272H363.091Z" fill="#B9553B"/>
<path opacity="0.5" d="M371.892 344.447L363.809 170.833C356.833 212.48 358.409 261.218 324.956 288.316C313.86 296.843 301.612 296.419 288.858 292.515L288.904 336.971L371.892 344.447Z" fill="#872D1B"/>
<path d="M323.472 50.3393C326.191 72.65 336.144 102.99 345.728 101.83C355.313 100.669 357.414 68.5985 354.695 46.2879C351.977 23.9773 346.392 8.17657 334.504 9.62221C320.892 11.2796 320.754 28.0287 323.463 50.3393H323.472Z" fill="#B9553B"/>
<path d="M347.682 82.9444C347.59 82.3827 347.461 81.6737 347.295 80.9094C343.48 82.0328 339.664 83.0548 335.84 83.6442C336.208 84.6938 336.596 85.6515 336.936 86.4341C337.646 88.0639 339.13 89.2609 340.881 89.528C344.41 90.0528 346.263 87.8614 347.148 86.1671C347.664 85.1819 347.839 84.0493 347.673 82.9536L347.682 82.9444Z" fill="#FFC5D9"/>
<path d="M323.518 50.3301C325.223 62.3187 328.301 74.1232 332.734 85.3844C334.172 89.1412 335.821 92.8151 337.858 96.3141L337.784 96.3694C332.891 89.841 330.2 81.9591 328.043 74.1784C325.979 66.4162 324.09 58.1752 323.528 50.3301H323.518Z" fill="#56150A"/>
<path d="M258.63 67.0516C264.934 89.9515 280.37 120.034 290.683 117.198C300.995 114.362 298.507 80.4398 292.203 57.5399C285.9 34.64 277.421 19.0418 264.621 22.5592C249.968 26.5923 252.318 44.1517 258.621 67.0516H258.63Z" fill="#B9553B"/>
<path d="M261.432 75.8818C266.326 88.9201 271.984 102.253 281.467 112.64C284.306 115.669 289.568 119.214 293.079 115.245C298.074 109.03 297.29 95.9825 296.931 88.2387C296.461 78.9388 294.701 69.4363 293.005 60.4402C296.599 73.1839 302.304 105.034 293.613 115.743C281.375 127.133 263.745 84.4911 261.423 75.891L261.432 75.8818Z" fill="#56150A"/>
<path d="M234.614 85.55C241.452 104.049 256.409 127.833 264.823 124.729C273.228 121.626 268.814 93.7082 261.966 75.2096C255.128 56.711 246.972 44.4186 236.54 48.2674C224.597 52.678 227.767 67.0515 234.614 85.55Z" fill="#B9553B"/>
<path d="M234.66 85.5317C239.443 97.6124 248.447 115.872 259.22 123.302C273.495 131.23 268.316 100.476 266.805 93.8833C265.072 84.8043 262.059 75.6425 258.584 67.0608C262.722 75.2558 265.717 84.5557 267.708 93.6899C268.657 98.303 269.403 102.962 269.726 107.677C269.938 112.391 270.085 117.29 268.196 121.737C266.399 125.844 262.344 126.194 258.898 123.836C248.428 116.645 238.761 97.2994 234.669 85.5225L234.66 85.5317Z" fill="#56150A"/>
<path d="M288.913 52.4571C291.945 77.3919 303.078 111.295 313.786 109.997C324.495 108.699 326.845 72.8617 323.813 47.9268C320.781 22.9919 314.533 5.34047 301.253 6.95184C286.038 8.80262 285.881 27.5314 288.922 52.4571H288.913Z" fill="#B9553B"/>
<path d="M288.314 46.8218C289.457 58.1659 291.706 69.3902 295.023 80.2923C297.558 88.3952 300.442 96.5626 305.197 103.653C318.929 122.455 323.491 92.1797 324.071 82.0418C325.122 70.753 324.633 59.0682 323.859 47.9175C325.444 59.2248 325.776 70.6977 324.993 82.1155C324.108 90.5683 323.408 99.6104 318.735 106.986C314.017 113.68 308.082 109.288 304.654 104.03C294.968 88.7083 289.752 64.6574 288.323 46.8218H288.314Z" fill="#56150A"/>
<path d="M350.05 86.6274C351.221 85.8079 352.437 85.0252 353.681 84.2702L352.234 80.3477C352.234 80.3477 329.462 87.8981 317.464 79.8228C313.694 77.2814 312.146 72.4473 313.897 68.2577C316.164 62.8159 322.643 55.0905 340.641 49.2067C371.569 39.0965 370.021 40.1093 381.918 61.269C393.816 82.4378 393.162 106.369 382.693 125.825C372.233 145.281 348.613 167.5 348.613 167.5L348.576 167.472C321.924 146.792 322.366 105.89 350.06 86.6366L350.05 86.6274Z" fill="#B9553B"/>
<path d="M316.68 140.806C316.09 127.455 322.062 114.555 330.2 104.242C332.955 100.789 336.116 97.6216 339.36 94.6383C341.222 92.8796 344.198 90.6697 346.198 89.0123C348.613 87.3088 351.073 85.6791 353.506 84.0032L353.377 84.39L351.921 80.4766L352.327 80.6884C348.484 81.7013 344.585 82.4471 340.65 82.9812C332.909 83.8191 324.145 84.6202 317.27 80.1912C313.851 77.9076 311.906 73.4326 312.92 69.3719C316.45 56.0482 340.19 48.0834 352.253 45.5789C340.07 49.0502 324.329 54.2158 316.312 64.4642C312.505 69.1786 312.542 75.8543 317.795 79.4453C320.984 81.6368 324.974 82.3919 328.799 82.6773C336.632 83.1561 344.549 81.9315 352.142 80.0438L352.446 79.9702L352.548 80.2556L353.985 84.1782L354.068 84.4176C351.562 86.1118 349.037 87.7692 346.548 89.5003C344.53 91.1393 341.581 93.294 339.71 95.0434C336.439 98.0176 333.342 101.084 330.541 104.528C322.246 114.684 316.45 127.704 316.68 140.816V140.806Z" fill="#56150A"/>
<path d="M260.464 120.512C258.695 120.347 257.174 119.177 256.409 117.575C254.566 113.726 251.368 105.531 256.308 103.386C261.386 101.176 264.704 109.767 265.929 113.68C266.372 115.098 266.215 116.663 265.422 117.925C264.547 119.315 263.017 120.752 260.474 120.512H260.464Z" fill="#FFC5D9"/>
<path d="M311.667 104.997C309.907 104.739 308.432 103.533 307.723 101.903C305.852 97.6308 302.672 88.3953 309.114 86.6182C315.676 84.8135 317.869 94.6567 318.459 98.4135C318.634 99.5184 318.459 100.642 317.934 101.627C317.049 103.321 315.196 105.513 311.667 104.988V104.997Z" fill="#FFC5D9"/>
<path d="M286.674 112.013C284.914 111.756 283.439 110.549 282.729 108.92C280.859 104.647 277.679 95.4117 284.121 93.6346C290.683 91.8298 292.876 101.673 293.466 105.43C293.641 106.535 293.466 107.658 292.95 108.643C292.065 110.338 290.213 112.529 286.683 112.004L286.674 112.013Z" fill="#FFC5D9"/>
<path d="M316.514 68.1841C316.911 65.9927 318.477 64.1971 320.551 63.3776C325.97 61.223 337.674 57.6227 339.627 65.7625C341.618 74.0403 329.195 76.3699 324.468 76.95C323.085 77.125 321.675 76.8579 320.468 76.1674C318.385 74.9887 315.722 72.5763 316.524 68.1933L316.514 68.1841Z" fill="#FFC5D9"/>
</g>
<defs>
<clipPath id="clip0_135_24">
<rect width="596" height="408" fill="white"/>
</clipPath>
</defs>
</svg>
