<svg width="811" height="1024" viewBox="0 0 811 1024" fill="none" xmlns="http://www.w3.org/2000/svg">
<mask id="mask0_134_58" style="mask-type:luminance" maskUnits="userSpaceOnUse" x="0" y="-30" width="1325" height="1062">
<path d="M0 -30H1325V1031.11H0V-30Z" fill="white"/>
</mask>
<g mask="url(#mask0_134_58)">
<path d="M322.575 282.765C322.575 282.765 387.624 293.63 396.899 229.185C403.806 181.141 309.184 94.5105 410.237 -4.86841H1282.23V930.317C1282.23 930.317 1022.93 1152.84 782.279 931.135C597.345 760.766 512.244 1013.22 369.038 823.841C222.793 630.468 322.575 282.765 322.575 282.765Z" fill="#0E2C25"/>
<path d="M211.222 813.015L214.137 892.377C215.25 922.573 198.767 980.625 175.588 997.845C129.372 1032.21 57.7339 1075.02 43.9716 1174.19H571.304C571.304 1174.19 615.153 1082.59 513.251 1031.58C411.35 980.568 402.499 961.902 402.499 961.902L418.911 713.16L211.204 813.015H211.222Z" fill="#CF7B54"/>
<path d="M214.137 892.396L211.222 813.034L410.219 717.365C391.598 774.047 359.145 863.418 315.437 905.81C280.705 939.488 231.768 935.588 212.882 911.442C213.925 905.22 214.384 898.846 214.137 892.396Z" fill="#A64C29"/>
<path d="M408.205 393.313C366.441 356.705 312.257 341.141 258.568 346.849C221.963 350.75 180.27 363.973 155.059 400.41C102.377 476.538 124.69 576.868 124.69 576.868C124.69 576.868 104.957 623.466 77.6971 643.635C50.4374 663.804 83.3327 697.634 91.9011 700.336C100.469 703.038 112.023 703.266 112.023 703.266C112.023 703.266 104.144 725.623 89.1451 733.443C81.6897 737.344 78.651 747.276 82.361 755.229C84.4633 759.739 87.8731 764.724 93.3497 769.88C93.3497 769.88 74.5701 801.104 106.07 808.791C106.07 808.791 106.034 851.088 133.418 866.595C146.226 873.845 187.76 881.665 238.905 866.652C319.324 843.059 398.17 785.825 433.557 690.765C440.447 672.233 453.767 668.675 460.286 645.576C489.436 542.448 474.738 451.632 408.205 393.294V393.313Z" fill="#CF7B54"/>
<path d="M191.683 536.322C191.683 536.322 199.951 506.867 232.899 527.969C265.847 549.07 266.925 588.951 266.925 588.951L191.683 536.303V536.322Z" fill="#A64C29"/>
<path d="M132.146 694.761C132.146 694.761 122.8 716.699 106.812 714.34L111.918 703.019C111.918 703.019 129.195 696.321 132.146 694.761Z" fill="#A64C29"/>
<path opacity="0.64" d="M93.3495 769.861C87.8728 764.705 84.4631 759.701 82.3608 755.21C78.6508 747.257 81.6718 737.306 89.1448 733.424C89.8162 733.062 90.4875 732.682 91.1412 732.263C119.426 743.432 131.757 762.117 162.408 755.99C148.575 808.486 106.07 808.791 106.07 808.791C74.5522 801.104 93.3495 769.88 93.3495 769.88V769.861Z" fill="#621227"/>
<path d="M162.408 755.971C131.757 762.117 119.426 743.413 91.1412 732.244C90.4875 732.663 89.8338 733.044 89.1448 733.405C81.6895 737.306 78.6508 747.238 82.3608 755.191C84.4631 759.701 87.8728 764.686 93.3495 769.842C93.3495 769.842 129.566 775.645 162.408 755.952V755.971Z" fill="#621227"/>
<path opacity="0.47" d="M91.9009 700.317C84.7989 698.072 61.0549 674.497 68.5809 655.013C69.7116 667.019 80.2586 702.6 137.94 670.844C140.838 673.869 143.523 686.674 137.163 692.573C126.987 698.243 111.917 703.019 111.917 703.019C111.917 703.019 100.469 703.019 91.9009 700.317Z" fill="#A64C29"/>
<path d="M124.62 576.811C117.589 592.28 109.126 607.084 99.1092 620.517C92.8905 628.832 85.8238 636.69 77.6618 642.817C76.2132 643.996 74.1638 645.595 72.9095 646.965C57.7338 662.795 72.1322 686.617 85.7355 697.577C90.4878 701.953 97.1481 702.695 103.102 703.532C109.214 704.179 115.433 702.943 120.998 700.222L126.528 697.672L137.552 692.497L137.481 692.325L126.227 696.892C118.984 700.146 111.211 703.114 103.261 701.915C97.4485 700.926 91.4595 700.26 86.8131 696.074C74.0578 685.59 59.5005 663.309 73.8282 647.954C76.2309 645.385 80.5238 642.265 83.1915 639.944C95.5228 628.718 105.08 614.485 113.437 599.739C117.376 592.376 121.934 584.441 124.637 576.811H124.62Z" fill="#893317"/>
<path d="M398.488 732.948C435.995 792.998 519.346 731.826 535.211 673.241C548.62 623.694 513.816 572.53 465.728 575.556C419.653 578.467 409.389 627.405 409.389 627.405L398.506 732.967L398.488 732.948Z" fill="#CF7B54"/>
<path d="M509.099 651.778C485.09 629.212 457.919 638.269 440.818 664.793C435.959 672.575 431.101 681.366 428.451 689.928C432.656 681.613 437.002 673.412 442.231 665.916C459.88 639.201 484.013 630.829 509.082 651.778H509.099Z" fill="#893317"/>
<path d="M461.364 704.198C475.851 687.435 491.009 655.032 462.919 644.072L462.848 644.244C488.324 658.723 474.314 686.046 461.364 704.198Z" fill="#893317"/>
<path d="M398.4 733.005C436.913 792.751 513.746 733.177 532.684 682.964C551.34 638.574 526.236 583.3 480.709 575.803C466.593 573.406 451.594 575.746 439.281 583.604C451.594 576.907 466.611 574.243 480.532 577.021C524.593 585.012 549.291 639.068 531.395 682.374C512.491 732.682 437.514 791.419 398.418 733.005H398.4Z" fill="#893317"/>
<path d="M93.3319 769.956C128.241 773.495 168.256 763.525 190.057 731.864C193.202 727.488 195.675 722.636 197.989 717.746L197.83 717.651L195.781 721.133C194.703 723.149 192.689 725.908 191.453 727.868C168.663 760.785 129.708 772.316 93.3143 769.956H93.3319Z" fill="#893317"/>
<path d="M189.615 701.344C192.672 714.587 203.607 728.077 217.352 725.642V725.452C203.06 723.454 194.809 715.12 189.633 701.344H189.615Z" fill="#893317"/>
<path opacity="0.47" d="M268.333 737.48C228.685 735.497 197.646 708.325 199.006 676.792C200.366 645.259 233.61 621.304 273.259 623.288C312.908 625.272 343.947 652.443 342.587 683.977C341.227 715.51 307.982 739.464 268.333 737.48Z" fill="#A64C29"/>
<path d="M297.135 538.586C297.135 538.586 253.198 470.05 156.596 501.768C156.596 501.768 148.258 484.53 157.762 470.164L161.896 483.103C161.896 483.103 162.956 466.815 188.591 466.34C214.225 465.864 284.839 484.454 297.152 538.605H297.135V538.586Z" fill="#0E2C25"/>
<mask id="mask1_134_58" style="mask-type:luminance" maskUnits="userSpaceOnUse" x="177" y="536" width="92" height="87">
<path d="M268.338 593.974C268.338 593.974 258.816 539.081 191.7 536.341C191.7 536.341 156.278 588.989 196.382 622.362C196.382 622.362 227.74 620.041 268.338 593.993V593.974Z" fill="white"/>
</mask>
<g mask="url(#mask1_134_58)">
<path d="M268.338 593.974C268.338 593.974 258.816 539.08 191.7 536.341C191.7 536.341 156.278 588.989 196.382 622.362C196.382 622.362 227.74 620.041 268.338 593.993V593.974Z" fill="#E7E0EE"/>
<path d="M267.596 590.853C258.074 575.727 234.577 573.824 220.408 571.94C206.381 570.38 192.106 570.589 177.973 572.416C180.888 552.399 191.682 536.322 191.682 536.322C249.152 538.681 264.381 579.228 267.579 590.853H267.596Z" fill="#BDB2CC"/>
<path d="M152.48 579.475C152.48 604.172 169.457 624.189 190.41 624.189C211.363 624.189 228.34 604.172 228.34 579.475C228.34 554.778 211.363 534.761 190.41 534.761C169.457 534.761 152.48 554.778 152.48 579.475Z" fill="#6A4C34"/>
<path d="M228.147 583.585C228.27 582.139 228.341 580.674 228.341 579.19C228.341 554.493 211.363 534.476 190.411 534.476C169.458 534.476 152.48 554.493 152.48 579.19C152.48 579.399 152.498 579.589 152.498 579.78C177.461 570.551 203.501 573.938 228.129 583.566L228.147 583.585Z" fill="black"/>
<path d="M169.069 579.475C169.069 594.24 178.132 606.208 189.315 606.208C200.498 606.208 209.561 594.24 209.561 579.475C209.561 564.71 200.498 552.742 189.315 552.742C178.132 552.742 169.069 564.71 169.069 579.475Z" fill="black"/>
<path d="M209.031 586.706C203.391 586.706 198.82 581.594 198.82 575.289C198.82 568.984 203.391 563.873 209.031 563.873C214.67 563.873 219.242 568.984 219.242 575.289C219.242 581.594 214.67 586.706 209.031 586.706Z" fill="#E7E0EE"/>
<path d="M218.783 616.064C213.143 616.064 208.571 610.953 208.571 604.648C208.571 598.343 213.143 593.232 218.783 593.232C224.422 593.232 228.994 598.343 228.994 604.648C228.994 610.953 224.422 616.064 218.783 616.064Z" fill="#E7E0EE"/>
</g>
<path d="M191.17 524.315C191.17 524.315 177.885 539.004 172.302 558.45C172.302 558.45 166.967 524.639 191.17 524.315Z" fill="#A64C29"/>
<path opacity="0.65" d="M112.164 660.759C111.387 665.973 102.642 668.827 92.625 667.114C82.608 665.402 75.1174 659.789 75.8947 654.556C76.672 649.343 85.417 646.489 95.434 648.201C105.451 649.914 112.942 655.527 112.164 660.759Z" fill="#F4E5E3"/>
<path opacity="0.65" d="M317.911 655.222C317.133 660.436 308.388 663.29 298.371 661.578C288.354 659.865 280.864 654.252 281.641 649.02C282.418 643.806 291.163 640.952 301.18 642.665C311.197 644.377 318.688 649.99 317.911 655.222Z" fill="#F4E5E3"/>
<path d="M268.338 593.974C268.338 593.974 251.166 537.958 189.209 541.801C189.209 541.801 170.818 547.053 162.462 530.67C162.462 530.67 167.479 535.408 192.548 532.078C212.723 529.396 261.978 544.256 268.32 593.974H268.338Z" fill="black"/>
<path d="M264.875 596.143C264.875 596.143 236.008 615.303 196.382 622.343C196.382 622.343 227.122 623.523 264.875 596.143Z" fill="black"/>
<path d="M334.606 404.083C334.606 404.083 300.226 586.667 388.33 598.94C476.434 611.212 586.868 572.093 538.09 786.129C538.09 786.129 645.415 670.045 550.051 562.465C454.686 454.866 461.382 416.089 444.192 349.094C427.002 282.118 156.967 206.524 136.986 433.632C136.986 433.632 212.123 316.634 334.588 404.083H334.606Z" fill="#0E2C25"/>
<path d="M638.313 868.555C638.313 868.555 703.486 881.246 756.503 949.687C807.648 1015.71 913.366 1041.74 986.417 1011.83C986.417 1011.83 851.038 1052.49 765.089 942.78C679.141 833.069 638.313 843.82 638.313 843.82V868.555Z" fill="#0E2C25"/>
<path d="M335.524 398.869C335.524 398.869 291.269 554.454 371.388 598.331C371.388 598.331 285.722 575.422 330.101 393.351L335.524 398.869Z" fill="#0E2C25"/>
<path d="M363.985 280.825C363.985 280.825 416.508 236.32 360.169 183.139C360.169 183.139 426.402 245.986 328.829 283.603C328.829 283.603 354.445 291.48 364.003 280.825H363.985Z" fill="#0E2C25"/>
</g>
</svg>
