<?xml version="1.0" encoding="UTF-8"?>
<svg xmlns="http://www.w3.org/2000/svg" xmlns:xlink="http://www.w3.org/1999/xlink" version="1.1" viewBox="0 0 746.08 544.41">
  <!-- Generator: Adobe Illustrator 29.1.0, SVG Export Plug-In . SVG Version: 2.1.0 Build 142)  -->
  <defs>
    <style>
      .st0, .st1 {
        fill: none;
      }

      .st2 {
        fill: #893317;
      }

      .st3, .st4 {
        fill: #a64c29;
      }

      .st5 {
        fill: #f9edde;
      }

      .st6 {
        fill: #c79cb1;
      }

      .st1 {
        stroke: #fff;
        stroke-miterlimit: 10;
      }

      .st7 {
        fill: #f4e5e3;
        opacity: .65;
      }

      .st8 {
        fill: #efc3d6;
      }

      .st9 {
        fill: #6a4c34;
      }

      .st10 {
        fill: #e7e0ee;
      }

      .st11 {
        fill: #bdb2cc;
      }

      .st12 {
        clip-path: url(#clippath-1);
      }

      .st13 {
        opacity: .64;
      }

      .st13, .st14 {
        fill: #621227;
      }

      .st15 {
        fill: #0e2c25;
      }

      .st4 {
        opacity: .47;
      }

      .st16 {
        fill: #cf7b54;
      }

      .st17 {
        clip-path: url(#clippath);
      }
    </style>
    <clipPath id="clippath">
      <rect class="st0" x="-1.09" y="-12.52" width="750" height="557.68"/>
    </clipPath>
    <clipPath id="clippath-1">
      <path class="st0" d="M572.81,313.45s5.39-28.85,43.38-30.29c0,0,20.05,27.67-2.65,45.21,0,0-17.75-1.22-40.73-14.91Z"/>
    </clipPath>
  </defs>
  <g id="BACKGROUND">
    <rect class="st8" x="-1.09" y="-2.78" width="750" height="549.44"/>
  </g>
  <g id="OBJECTS">
    <g class="st17">
      <g>
        <path class="st6" d="M271.61,546.98s28.51-107.05,233.82-108.47c147.56-1.02,63.45-249.55,257.35-249.55v397.71l-491.17-39.7Z"/>
        <path class="st1" d="M207.13,545.58s39.47-103.55,243.83-83.89c146.88,14.13,89-241.7,281.86-221.81l-41.26,395.59-484.43-89.89Z"/>
        <path class="st5" d="M332.92,567.54s28.51-107.05,233.82-108.47c147.56-1.02,63.45-249.55,257.35-249.55v397.71l-491.17-39.7Z"/>
      </g>
      <g>
        <path class="st15" d="M542.11,149.89s-36.82,5.71-42.07-28.16c-3.91-25.25,49.65-70.78-7.55-123.01H-1.09v491.5s146.77,116.95,282.99.43c104.68-89.54,152.85,43.14,233.91-56.39,82.78-101.63,26.3-284.37,26.3-284.37Z"/>
        <g>
          <path class="st16" d="M605.14,428.57l-1.65,41.71c-.63,15.87,8.7,46.38,21.82,55.43,26.16,18.06,66.71,40.56,74.5,92.68h-298.49s-24.82-48.14,32.86-74.95c57.68-26.81,62.69-36.62,62.69-36.62l-9.29-130.73,117.57,52.48Z"/>
          <path class="st3" d="M603.49,470.29l1.65-41.71-112.64-50.28c10.54,29.79,28.91,76.76,53.65,99.04,19.66,17.7,47.36,15.65,58.05,2.96-.59-3.27-.85-6.62-.71-10.01Z"/>
          <path class="st16" d="M493.64,207.99c23.64-19.24,54.31-27.42,84.7-24.42,20.72,2.05,44.32,9,58.59,28.15,29.82,40.01,17.19,92.74,17.19,92.74,0,0,11.17,24.49,26.6,35.09s-3.19,28.38-8.04,29.8c-4.85,1.42-11.39,1.54-11.39,1.54,0,0,4.46,11.75,12.95,15.86,4.22,2.05,5.94,7.27,3.84,11.45-1.19,2.37-3.12,4.99-6.22,7.7,0,0,10.63,16.41-7.2,20.45,0,0,.02,22.23-15.48,30.38-7.25,3.81-30.76,7.92-59.71.03-45.52-12.4-90.15-42.48-110.18-92.44-3.9-9.74-11.44-11.61-15.13-23.75-16.5-54.2-8.18-101.93,29.48-132.59Z"/>
          <path class="st3" d="M616.2,283.15s-4.68-15.48-23.33-4.39c-18.65,11.09-19.26,32.05-19.26,32.05l42.59-27.67Z"/>
          <path class="st3" d="M649.9,366.42s5.29,11.53,14.34,10.29l-2.89-5.95s-9.78-3.52-11.45-4.34Z"/>
          <path class="st13" d="M671.86,405.89c3.1-2.71,5.03-5.34,6.22-7.7,2.1-4.18.39-9.41-3.84-11.45-.38-.19-.76-.39-1.13-.61-16.01,5.87-22.99,15.69-40.34,12.47,7.83,27.59,31.89,27.75,31.89,27.75,17.84-4.04,7.2-20.45,7.2-20.45Z"/>
          <path class="st14" d="M632.77,398.59c17.35,3.23,24.33-6.6,40.34-12.47.37.22.74.42,1.13.61,4.22,2.05,5.94,7.27,3.84,11.45-1.19,2.37-3.12,4.99-6.22,7.7,0,0-20.5,3.05-39.09-7.3Z"/>
          <path class="st4" d="M672.68,369.34c4.02-1.18,17.46-13.57,13.2-23.81-.64,6.31-6.61,25.01-39.26,8.32-1.64,1.59-3.16,8.32.44,11.42,5.76,2.98,14.29,5.49,14.29,5.49,0,0,6.48,0,11.33-1.42Z"/>
          <path class="st2" d="M654.16,304.43c3.98,8.13,8.77,15.91,14.44,22.97,3.52,4.37,7.52,8.5,12.14,11.72.82.62,1.98,1.46,2.69,2.18,8.59,8.32.44,20.84-7.26,26.6-2.69,2.3-6.46,2.69-9.83,3.13-3.46.34-6.98-.31-10.13-1.74,0,0-3.13-1.34-3.13-1.34l-6.24-2.72s.04-.09.04-.09l6.37,2.4c4.1,1.71,8.5,3.27,13,2.64,3.29-.52,6.68-.87,9.31-3.07,7.22-5.51,15.46-17.22,7.35-25.29-1.36-1.35-3.79-2.99-5.3-4.21-6.98-5.9-12.39-13.38-17.12-21.13-2.23-3.87-4.81-8.04-6.34-12.05h0Z"/>
          <path class="st16" d="M499.14,386.49c-21.23,31.56-68.41-.59-77.39-31.38-7.59-26.04,12.11-52.93,39.33-51.34,26.08,1.53,31.89,27.25,31.89,27.25l6.16,55.48Z"/>
          <g>
            <path class="st2" d="M436.53,343.83c13.59-11.86,28.97-7.1,38.65,6.84,2.75,4.09,5.5,8.71,7,13.21-2.38-4.37-4.84-8.68-7.8-12.62-9.99-14.04-23.65-18.44-37.84-7.43h0Z"/>
            <path class="st2" d="M463.55,371.38c-8.2-8.81-16.78-25.84-.88-31.6,0,0,.04.09.04.09-14.42,7.61-6.49,21.97.84,31.51h0Z"/>
          </g>
          <path class="st2" d="M499.19,386.52c-21.8,31.4-65.29.09-76.01-26.3-10.56-23.33,3.65-52.38,29.42-56.32,7.99-1.26,16.48-.03,23.45,4.1-6.97-3.52-15.47-4.92-23.35-3.46-24.94,4.2-38.92,32.61-28.79,55.37,10.7,26.44,53.14,57.31,75.27,26.61h0Z"/>
          <path class="st2" d="M671.87,405.94c-19.76,1.86-42.41-3.38-54.75-20.02-1.78-2.3-3.18-4.85-4.49-7.42,0,0,.09-.05.09-.05l1.16,1.83c.61,1.06,1.75,2.51,2.45,3.54,12.9,17.3,34.95,23.36,55.55,22.12h0Z"/>
          <path class="st2" d="M617.37,369.88c-1.73,6.96-7.92,14.05-15.7,12.77,0,0,0-.1,0-.1,8.09-1.05,12.76-5.43,15.69-12.67h0Z"/>
          <ellipse class="st4" cx="571.43" cy="358.83" rx="40.68" ry="30.04" transform="translate(-16.05 26.94) rotate(-2.66)"/>
          <path class="st15" d="M556.51,284.34s24.87-36.02,79.55-19.35c0,0,4.72-9.06-.66-16.61l-2.34,6.8s-.6-8.56-15.11-8.81c-14.51-.25-54.48,9.52-61.45,37.98Z"/>
          <g class="st12">
            <path class="st10" d="M572.81,313.45s5.39-28.85,43.38-30.29c0,0,20.05,27.67-2.65,45.21,0,0-17.75-1.22-40.73-14.91Z"/>
            <path class="st11" d="M573.23,311.81c5.39-7.95,18.69-8.95,26.71-9.94,7.94-.82,16.02-.71,24.02.25-1.65-10.52-7.76-18.97-7.76-18.97-32.53,1.24-41.15,22.55-42.96,28.66Z"/>
            <g>
              <path class="st9" d="M638.39,305.83c0,12.98-9.61,23.5-21.47,23.5s-21.47-10.52-21.47-23.5,9.61-23.5,21.47-23.5,21.47,10.52,21.47,23.5Z"/>
              <path d="M595.56,307.99c-.07-.76-.11-1.53-.11-2.31,0-12.98,9.61-23.5,21.47-23.5s21.47,10.52,21.47,23.5c0,.11-.01.21-.01.31-14.13-4.85-28.87-3.07-42.81,1.99Z"/>
              <path d="M629,305.83c0,7.76-5.13,14.05-11.46,14.05s-11.46-6.29-11.46-14.05,5.13-14.05,11.46-14.05,11.46,6.29,11.46,14.05Z"/>
              <ellipse class="st10" cx="606.38" cy="303.63" rx="5.78" ry="6"/>
              <ellipse class="st10" cx="600.86" cy="319.06" rx="5.78" ry="6"/>
            </g>
          </g>
          <path class="st3" d="M616.49,276.84s7.52,7.72,10.68,17.94c0,0,3.02-17.77-10.68-17.94Z"/>
          <path class="st7" d="M661.21,348.55c.44,2.74,5.39,4.24,11.06,3.34,5.67-.9,9.91-3.85,9.47-6.6-.44-2.74-5.39-4.24-11.06-3.34-5.67.9-9.91,3.85-9.47,6.6Z"/>
          <path class="st7" d="M544.75,345.64c.44,2.74,5.39,4.24,11.06,3.34,5.67-.9,9.91-3.85,9.47-6.6-.44-2.74-5.39-4.24-11.06-3.34-5.67.9-9.91,3.85-9.47,6.6Z"/>
          <path d="M572.81,313.45s9.72-29.44,44.79-27.42c0,0,10.41,2.76,15.14-5.85,0,0-2.84,2.49-17.03.74-11.42-1.41-39.3,6.4-42.89,32.53Z"/>
          <path d="M574.77,314.59s16.34,10.07,38.77,13.77c0,0-17.4.62-38.77-13.77Z"/>
          <path class="st15" d="M535.3,213.65s19.46,95.96-30.41,102.41c-49.87,6.45-112.38-14.11-84.77,98.38,0,0-60.75-61.01-6.77-117.55,53.98-56.55,50.19-76.93,59.92-112.14,9.73-35.2,162.58-74.93,173.89,44.43,0,0-42.53-61.49-111.85-15.53Z"/>
          <g>
            <path class="st15" d="M363.39,457.76s-36.89,6.67-66.9,42.64c-28.95,34.7-88.79,48.38-130.14,32.66,0,0,76.63,21.37,125.28-36.29,48.65-57.66,71.76-52.01,71.76-52.01v13Z"/>
            <path class="st15" d="M534.78,210.91s25.05,81.77-20.3,104.83c0,0,48.49-12.04,23.37-107.73l-3.07,2.9Z"/>
            <path class="st15" d="M518.67,148.87s-29.73-23.39,2.16-51.34c0,0-37.49,33.03,17.74,52.8,0,0-14.5,4.14-19.91-1.46Z"/>
          </g>
        </g>
      </g>
    </g>
  </g>
</svg>