<svg width="1440" height="979" viewBox="0 0 1440 979" fill="none" xmlns="http://www.w3.org/2000/svg">
<path d="M670.406 -116.54C670.406 -116.54 588.539 117.427 845.409 106.494C1102.28 95.5624 1334.68 124.71 1329.04 345.555C1323.39 566.4 1411.83 633.695 1524.75 643.84L1520.04 -105.608L670.406 -116.54Z" fill="#BDB2CC"/>
<path d="M752.274 -116.54C752.274 -116.54 670.406 117.427 927.277 106.494C1184.15 95.5624 1416.54 124.71 1410.91 345.555C1405.28 566.4 1493.7 633.695 1606.62 643.84L1601.91 -105.608L752.274 -116.54Z" stroke="white" stroke-miterlimit="10"/>
<path d="M775.788 -215C775.788 -215 693.921 18.9666 950.791 8.03447C1207.66 -2.8976 1440.06 26.2498 1434.42 247.095C1428.77 467.94 1517.21 535.235 1630.13 545.38L1625.42 -204.068L775.788 -215Z" fill="#FDEDDD"/>
<path d="M-20.9747 622.872C-20.9747 622.872 164.919 652.737 128.566 805.189C92.2134 957.64 443.103 761.816 441.324 1039.69L-47.6704 1045.98L-20.9747 622.872Z" fill="#BDB2CC"/>
<path d="M-100.468 734.046C-100.468 734.046 85.4257 763.912 49.0728 916.363C12.7198 1068.81 363.609 872.99 361.831 1150.87L-127.152 1157.15L-100.457 734.046L-100.468 734.046Z" fill="#FDEDDD"/>
<path d="M-84.2882 698.794C-84.2882 698.794 101.606 728.659 65.2529 881.111C28.8999 1033.56 379.79 837.738 378.011 1115.61L-110.984 1121.9L-84.2882 698.794Z" stroke="white" stroke-miterlimit="10"/>
</svg>
