<svg width="430" height="310" viewBox="0 0 430 310" fill="none" xmlns="http://www.w3.org/2000/svg">
<g clip-path="url(#clip0_152_2)">
<path d="M-20.9747 0.872314C-20.9747 0.872314 164.919 30.7376 128.566 183.189C92.2134 335.64 443.103 139.816 441.324 417.693L-47.6704 423.977L-20.9747 0.872314Z" fill="#BDB2CC"/>
<path d="M-100.468 112.047C-100.468 112.047 85.4258 141.912 49.0729 294.363C12.7199 446.815 363.609 250.991 361.831 528.868L-127.152 535.152L-100.457 112.047H-100.468Z" fill="#FDEDDD"/>
<path d="M-84.2881 76.7944C-84.2881 76.7944 101.606 106.66 65.253 259.111C28.9 411.562 379.79 215.738 378.011 493.615L-110.984 499.899L-84.2881 76.7944Z" stroke="white" stroke-miterlimit="10"/>
<path d="M185.385 225.763L190.583 343.998L141.57 339.325L141.472 240.277C141.472 240.277 120.43 226.281 109.947 182.21L186.838 164.474L185.38 225.763H185.385Z" fill="#E97C51"/>
<path d="M190.589 344.004L185.816 235.495C181.695 261.524 182.626 291.985 162.868 308.922C156.315 314.251 149.082 313.986 141.549 311.546L141.576 339.331L190.589 344.004Z" fill="#D3643D"/>
<path d="M161.992 160.744C163.598 174.688 169.476 193.651 175.137 192.926C180.797 192.201 182.038 172.156 180.433 158.212C178.827 144.268 175.529 134.393 168.507 135.296C160.468 136.332 160.387 146.8 161.987 160.744H161.992Z" fill="#E97C51"/>
<path d="M173.466 187.625C172.426 187.464 171.555 186.71 171.136 185.692C170.031 183.022 168.153 177.249 171.958 176.139C175.833 175.011 177.129 181.163 177.477 183.511C177.58 184.201 177.477 184.903 177.167 185.519C176.644 186.578 175.55 187.948 173.466 187.62V187.625Z" fill="white"/>
<path d="M162.046 160.175C163.543 170.125 166.45 179.799 170.51 188.903L170.423 188.966C167.266 185.047 165.671 180.046 164.485 175.143C163.255 170.24 162.378 165.233 161.943 160.186L162.052 160.175H162.046Z" fill="#A0300D"/>
<path d="M123.691 170.626C127.414 184.938 136.531 203.739 142.621 201.967C148.712 200.194 147.242 178.993 143.519 164.681C139.796 150.368 134.789 140.62 127.229 142.818C118.575 145.339 119.962 156.313 123.685 170.626H123.691Z" fill="#E97C51"/>
<path d="M125.378 176.133C128.312 184.242 131.708 192.54 137.309 198.98C138.931 200.764 141.897 202.974 143.884 200.58C146.757 196.707 146.208 188.679 146.05 183.873C145.761 178.055 144.95 172.26 143.922 166.499L144.025 166.47C146.425 174.619 149.865 194.209 144.52 201.201C137.124 208.608 126.521 181.548 125.378 176.127V176.133Z" fill="#A0300D"/>
<path d="M109.512 182.187C113.551 193.749 122.384 208.614 127.354 206.674C132.318 204.735 129.71 187.286 125.666 175.725C121.628 164.163 116.811 156.48 110.65 158.886C103.596 161.642 105.468 170.626 109.512 182.187Z" fill="#E97C51"/>
<path d="M109.561 182.17C111.58 187.626 114.149 192.857 117.241 197.697C118.792 200.102 120.485 202.445 122.52 204.355C126.989 208.533 129.302 205.932 129.52 200.407C129.689 193.145 128.11 185.934 126.309 178.965C125.585 176.139 124.529 173.428 123.642 170.654L123.745 170.608C126.249 175.886 128.126 181.456 129.324 187.229C130.195 191.574 130.804 196.022 130.5 200.476C130.167 206.651 126.967 209.707 122.058 204.913C119.978 202.882 118.318 200.476 116.794 198.019C113.795 193.053 111.352 187.735 109.463 182.216L109.566 182.176L109.561 182.17Z" fill="#A0300D"/>
<path d="M141.576 161.504C143.367 177.088 149.942 198.278 156.266 197.466C162.591 196.655 163.979 174.257 162.188 158.673C160.397 143.088 156.707 132.056 148.858 133.063C139.872 134.22 139.78 145.925 141.576 161.504Z" fill="#E97C51"/>
<path d="M141.255 157.982C142.382 168.559 144.7 179.108 148.891 188.799C150.219 191.596 153.333 198.284 156.941 196.753C160.065 194.894 160.882 188.748 161.481 185.243C162.825 176.518 162.487 167.293 162.243 158.673C163.685 166.77 164.953 193.283 157.322 197.645C150.856 200.24 146.17 183.827 144.798 179.033C143.051 172.231 141.467 164.83 141.255 157.988V157.982Z" fill="#A0300D"/>
<path d="M177.689 182.866C178.381 182.354 179.099 181.865 179.834 181.393L178.979 178.941C178.979 178.941 165.53 183.66 158.443 178.613C156.217 177.025 155.303 174.004 156.337 171.385C157.676 167.984 161.502 163.156 172.132 159.478C190.398 153.159 189.484 153.792 196.511 167.017C203.537 180.248 203.151 195.205 196.968 207.365C190.79 219.525 176.84 233.412 176.84 233.412L176.818 233.394C161.078 220.469 161.339 194.906 177.695 182.872L177.689 182.866Z" fill="#E97C51"/>
<path d="M157.948 216.728C157.512 205.5 163.603 195.055 171.266 187.746C172.366 186.636 174.124 185.249 175.305 184.207C176.731 183.137 178.184 182.107 179.621 181.053L179.463 181.537L178.593 179.091L179.071 179.35C172.785 181.007 159.08 183.896 155.776 175.995C154.225 172.082 156.827 168.139 159.624 165.768C161.464 164.157 163.516 162.862 165.639 161.786C169.9 159.662 174.385 158.143 178.963 157.125L178.984 157.234C174.521 158.598 170.118 160.29 166.003 162.557C162.972 164.232 160.016 166.269 157.97 169.175C155.825 172.007 155.841 175.955 158.791 178.124C164.044 181.733 173.395 179.92 179.218 178.441C179.376 178.901 180.122 181.082 180.28 181.548C178.761 182.63 177.221 183.689 175.713 184.788C173.008 186.992 170.238 189.364 167.974 192.068C167.467 192.655 166.7 193.496 166.254 194.117L164.67 196.287C160.691 202.197 157.823 209.339 158.051 216.705L157.942 216.717L157.948 216.728Z" fill="#A0300D"/>
<path d="M124.774 204.044C123.729 203.941 122.831 203.21 122.379 202.208C121.29 199.803 119.402 194.681 122.319 193.34C125.318 191.959 127.278 197.328 128.001 199.774C128.263 200.66 128.17 201.639 127.702 202.427C127.185 203.296 126.282 204.194 124.779 204.044H124.774Z" fill="white"/>
<path d="M155.02 194.347C153.98 194.186 153.109 193.432 152.69 192.414C151.585 189.743 149.708 183.971 153.512 182.86C157.387 181.732 158.683 187.884 159.031 190.232C159.135 190.923 159.031 191.625 158.721 192.241C158.198 193.3 157.104 194.669 155.02 194.341V194.347Z" fill="white"/>
<path d="M140.253 198.732C139.214 198.571 138.343 197.817 137.924 196.799C136.819 194.129 134.941 188.356 138.746 187.246C142.621 186.118 143.916 192.27 144.265 194.618C144.368 195.308 144.265 196.01 143.954 196.626C143.432 197.685 142.338 199.055 140.253 198.727V198.732Z" fill="white"/>
<path d="M157.883 171.333C158.117 169.964 159.042 168.841 160.267 168.329C163.467 166.983 170.379 164.732 171.533 169.82C172.709 174.993 165.372 176.449 162.58 176.812C161.763 176.921 160.931 176.754 160.218 176.323C158.988 175.586 157.415 174.078 157.888 171.339L157.883 171.333Z" fill="#FFEFDF"/>
<path d="M187.949 246.234H140.079V253.266H187.949V246.234Z" fill="#FFC5D9"/>
<path d="M187.949 257.087H140.079V264.12H187.949V257.087Z" fill="#FFC5D9"/>
<path d="M374.699 232.071L379.897 350.305L330.884 345.632L330.786 246.585C330.786 246.585 309.744 232.589 299.261 188.518L376.152 170.781L374.693 232.071H374.699Z" fill="#B9553B"/>
<path opacity="0.5" d="M379.902 350.305L375.129 241.797C371.009 267.826 371.94 298.287 352.182 315.224C345.629 320.553 338.395 320.288 330.862 317.848L330.89 345.632L379.902 350.305Z" fill="#872D1B"/>
<path d="M351.306 166.482C352.911 180.426 358.79 199.389 364.45 198.664C370.111 197.938 371.352 177.894 369.746 163.95C368.14 150.006 364.842 140.13 357.821 141.034C349.782 142.07 349.7 152.538 351.3 166.482H351.306Z" fill="#B9553B"/>
<path d="M363.231 194.813C362.191 194.652 361.32 193.898 360.901 192.88C359.796 190.21 357.918 184.437 361.723 183.327C365.598 182.199 366.894 188.351 367.242 190.699C367.346 191.389 367.242 192.091 366.932 192.707C366.409 193.766 365.315 195.136 363.231 194.808V194.813Z" fill="#005248"/>
<path d="M351.333 166.482C352.339 173.975 354.157 181.353 356.775 188.391C357.624 190.739 358.599 193.035 359.802 195.222L359.758 195.257C356.868 191.176 355.279 186.25 354.005 181.387C352.786 176.536 351.67 171.385 351.338 166.482H351.333Z" fill="#56150A"/>
<path d="M313.004 176.927C316.727 191.24 325.844 210.041 331.935 208.269C338.025 206.496 336.555 185.295 332.833 170.983C329.11 156.67 324.102 146.921 316.542 149.12C307.888 151.64 309.276 162.615 312.999 176.927H313.004Z" fill="#B9553B"/>
<path d="M314.664 182.446C317.554 190.595 320.896 198.928 326.497 205.42C328.173 207.313 331.281 209.529 333.355 207.048C336.305 203.164 335.842 195.009 335.63 190.169C335.352 184.357 334.313 178.418 333.311 172.795C335.434 180.76 338.803 200.666 333.671 207.359C326.442 214.478 316.03 187.827 314.659 182.452L314.664 182.446Z" fill="#56150A"/>
<path d="M298.826 188.489C302.864 200.05 311.698 214.915 316.667 212.976C321.631 211.037 319.024 193.588 314.98 182.026C310.941 170.464 306.124 162.782 299.963 165.187C292.909 167.944 294.781 176.927 298.826 188.489Z" fill="#B9553B"/>
<path d="M298.847 188.483C301.672 196.034 306.99 207.445 313.352 212.09C321.783 217.045 318.724 197.823 317.832 193.703C316.809 188.028 315.029 182.302 312.977 176.939C315.421 182.061 317.19 187.873 318.36 193.582C318.92 196.465 319.361 199.377 319.552 202.324C319.677 205.27 319.764 208.332 318.648 211.111C317.587 213.678 315.192 213.897 313.156 212.423C306.973 207.929 301.264 195.838 298.847 188.477V188.483Z" fill="#56150A"/>
<path d="M330.889 167.806C332.68 183.39 339.255 204.58 345.58 203.768C351.904 202.957 353.292 180.559 351.501 164.974C349.711 149.39 346.02 138.358 338.177 139.365C329.191 140.522 329.099 152.227 330.895 167.806H330.889Z" fill="#B9553B"/>
<path d="M330.541 164.29C331.216 171.38 332.544 178.395 334.503 185.209C336 190.273 337.704 195.378 340.512 199.809C348.622 211.56 351.316 192.638 351.659 186.302C352.28 179.247 351.991 171.944 351.534 164.974C352.47 172.041 352.666 179.212 352.204 186.348C351.681 191.631 351.267 197.282 348.508 201.892C345.721 206.076 342.216 203.331 340.191 200.045C334.471 190.469 331.39 175.437 330.546 164.29H330.541Z" fill="#56150A"/>
<path d="M367.003 189.168C367.699 188.662 368.412 188.167 369.147 187.695L368.293 185.243C368.293 185.243 354.843 189.962 347.757 184.915C345.531 183.327 344.616 180.305 345.65 177.687C346.989 174.286 350.816 169.457 361.446 165.78C379.712 159.461 378.797 160.094 385.824 173.319C392.851 186.55 392.464 201.507 386.281 213.667C380.104 225.827 366.154 239.713 366.154 239.713L366.132 239.696C350.391 226.771 343.506 206.387 367.008 189.174L367.003 189.168Z" fill="#B9553B"/>
<path d="M347.288 223.024C346.94 214.679 350.467 206.617 355.273 200.171C356.901 198.013 358.767 196.034 360.683 194.169C361.783 193.07 363.541 191.689 364.722 190.653C366.148 189.588 367.601 188.569 369.038 187.522L368.962 187.764L368.102 185.318L368.341 185.45C366.072 186.083 363.769 186.549 361.445 186.883C356.873 187.407 351.697 187.908 347.637 185.14C345.617 183.712 344.469 180.915 345.068 178.378C347.152 170.05 361.173 165.072 368.298 163.507C361.102 165.676 351.806 168.905 347.071 175.31C344.823 178.257 344.845 182.429 347.947 184.673C349.83 186.043 352.187 186.515 354.446 186.693C359.072 186.993 363.748 186.227 368.233 185.047L368.412 185.001L368.472 185.18L369.321 187.631L369.37 187.781C367.89 188.84 366.398 189.876 364.929 190.958C363.737 191.982 361.995 193.329 360.89 194.422C358.958 196.281 357.129 198.197 355.475 200.35C350.576 206.697 347.152 214.835 347.288 223.03V223.024Z" fill="#56150A"/>
<path d="M314.087 210.346C313.042 210.242 312.144 209.512 311.692 208.51C310.604 206.105 308.715 200.983 311.633 199.642C314.632 198.261 316.591 203.63 317.315 206.076C317.576 206.962 317.484 207.94 317.016 208.729C316.499 209.598 315.595 210.496 314.093 210.346H314.087Z" fill="#005248"/>
<path d="M344.333 200.649C343.294 200.488 342.423 199.734 342.004 198.715C340.899 196.045 339.021 190.273 342.826 189.162C346.701 188.034 347.996 194.186 348.345 196.534C348.448 197.225 348.345 197.927 348.034 198.543C347.512 199.602 346.418 200.971 344.333 200.643V200.649Z" fill="#005248"/>
<path d="M329.567 205.034C328.527 204.873 327.656 204.119 327.237 203.101C326.132 200.43 324.254 194.658 328.059 193.547C331.934 192.419 333.23 198.571 333.578 200.919C333.681 201.61 333.578 202.312 333.268 202.928C332.745 203.987 331.651 205.356 329.567 205.028V205.034Z" fill="#005248"/>
<path d="M347.196 177.635C347.43 176.265 348.355 175.143 349.58 174.631C352.78 173.284 359.693 171.034 360.847 176.122C362.022 181.295 354.685 182.751 351.893 183.114C351.077 183.223 350.244 183.056 349.531 182.625C348.301 181.888 346.728 180.38 347.202 177.641L347.196 177.635Z" fill="#005248"/>
<path d="M377.17 254.832H329.284V264.212H377.17V254.832Z" fill="#FDB733"/>
<path d="M118.476 269.766L123.674 388L74.6615 383.327L74.5636 284.279C74.5636 284.279 53.5215 270.284 43.0386 226.212L119.93 208.476L118.471 269.766H118.476Z" fill="#B9553B"/>
<path opacity="0.5" d="M123.674 388L118.901 279.491C114.781 305.521 115.711 335.981 95.9539 352.918C89.4007 358.247 82.1672 357.982 74.6343 355.542L74.6615 383.327L123.674 388Z" fill="#872D1B"/>
<path d="M95.0776 204.183C96.6832 218.127 102.562 237.089 108.222 236.364C113.883 235.639 115.124 215.594 113.518 201.65C111.912 187.706 108.614 177.831 101.593 178.734C93.5536 179.77 93.472 190.238 95.0722 204.183H95.0776Z" fill="#B9553B"/>
<path opacity="0.5" d="M106.736 231.91C105.696 231.749 104.826 230.995 104.407 229.976C103.302 227.306 101.424 221.534 105.228 220.423C109.104 219.295 110.399 225.447 110.747 227.795C110.851 228.486 110.747 229.188 110.437 229.803C109.915 230.862 108.821 232.232 106.736 231.904V231.91Z" fill="#872D1B"/>
<path d="M95.1045 204.183C96.1114 211.676 97.9293 219.053 100.547 226.092C101.396 228.44 102.371 230.736 103.574 232.923L103.53 232.957C100.64 228.877 99.0506 223.951 97.7769 219.088C96.5577 214.236 95.4419 209.086 95.1099 204.183H95.1045Z" fill="#56150A"/>
<path d="M56.7763 214.628C60.4992 228.94 69.616 247.741 75.7065 245.969C81.7971 244.196 80.3275 222.995 76.6046 208.683C72.8817 194.37 67.8742 184.622 60.3141 186.82C51.66 189.341 53.0479 200.315 56.7708 214.628H56.7763Z" fill="#B9553B"/>
<path d="M58.4361 220.147C61.3263 228.296 64.6682 236.629 70.2689 243.12C71.9453 245.014 75.0531 247.229 77.1269 244.749C80.0769 240.864 79.6142 232.71 79.402 227.87C79.1244 222.057 78.0848 216.118 77.0833 210.496C79.206 218.46 82.5751 238.367 77.4425 245.06C70.2144 252.178 59.8023 225.527 58.4307 220.152L58.4361 220.147Z" fill="#56150A"/>
<path d="M42.5975 226.189C46.6361 237.751 55.4698 252.616 60.4392 250.676C65.403 248.737 62.7959 231.288 58.7519 219.726C54.7133 208.165 49.8964 200.482 43.735 202.888C36.6811 205.644 38.5535 214.628 42.5975 226.189Z" fill="#B9553B"/>
<path d="M42.6245 226.178C45.4494 233.728 50.767 245.14 57.1297 249.785C65.5607 254.739 62.5018 235.518 61.6092 231.398C60.5859 225.723 58.8061 219.997 56.7541 214.634C59.198 219.755 60.9669 225.568 62.1426 231.277C62.7032 234.16 63.1441 237.072 63.3346 240.018C63.4597 242.965 63.5468 246.027 62.431 248.806C61.3697 251.373 58.9748 251.592 56.9392 250.118C50.7561 245.624 45.0466 233.533 42.63 226.172L42.6245 226.178Z" fill="#56150A"/>
<path d="M74.6612 205.506C76.4519 221.091 83.0269 242.28 89.3515 241.469C95.6761 240.657 97.064 218.259 95.2733 202.675C93.4826 187.091 89.7924 176.058 81.9492 177.065C72.9631 178.222 72.8705 189.928 74.6667 205.506H74.6612Z" fill="#B9553B"/>
<path d="M74.313 201.984C74.9879 209.074 76.316 216.089 78.2754 222.903C79.7722 227.968 81.4758 233.072 84.2843 237.503C92.3941 249.255 95.0883 230.333 95.4312 223.997C96.0517 216.941 95.7633 209.638 95.3061 202.669C96.2422 209.736 96.4382 216.907 95.9755 224.043C95.453 229.326 95.0394 234.977 92.2798 239.587C89.4931 243.771 85.9879 241.025 83.9632 237.739C78.2427 228.163 75.1621 213.131 74.3184 201.984H74.313Z" fill="#56150A"/>
<path d="M110.775 226.868C111.466 226.356 112.184 225.867 112.919 225.395L112.065 222.944C112.065 222.944 98.6154 227.663 91.5288 222.616C89.3027 221.027 88.3883 218.006 89.4224 215.387C90.7614 211.986 94.5877 207.158 105.218 203.481C123.484 197.162 122.569 197.795 129.596 211.019C136.623 224.244 136.236 239.207 130.053 251.367C123.876 263.527 109.926 277.414 109.926 277.414L109.904 277.397C94.1632 264.471 94.4244 238.908 110.78 226.874L110.775 226.868Z" fill="#B9553B"/>
<path d="M91.0663 260.725C90.7179 252.38 94.2449 244.317 99.051 237.872C100.678 235.714 102.545 233.734 104.461 231.869C105.561 230.77 107.319 229.389 108.5 228.353C109.926 227.289 111.379 226.27 112.816 225.223L112.74 225.464L111.88 223.018L112.119 223.151C109.85 223.784 107.547 224.25 105.223 224.584C100.651 225.107 95.475 225.608 91.4146 222.84C89.3953 221.413 88.2469 218.616 88.8456 216.078C90.9302 207.751 104.951 202.773 112.076 201.207C104.88 203.377 95.5839 206.605 90.8486 213.011C88.6007 215.957 88.6224 220.129 91.7249 222.374C93.6081 223.744 95.9649 224.215 98.2236 224.394C102.85 224.693 107.525 223.928 112.01 222.748L112.19 222.702L112.25 222.88L113.099 225.332L113.148 225.481C111.667 226.54 110.176 227.576 108.707 228.658C107.515 229.683 105.773 231.029 104.668 232.123C102.736 233.981 100.907 235.898 99.2523 238.05C94.3538 244.398 90.9302 252.535 91.0663 260.73V260.725Z" fill="#56150A"/>
<path opacity="0.5" d="M57.8647 248.041C56.8196 247.937 55.9216 247.206 55.4698 246.205C54.3812 243.799 52.4926 238.678 55.4099 237.337C58.409 235.956 60.3684 241.325 61.0923 243.771C61.3535 244.657 61.261 245.635 60.7929 246.424C60.2758 247.293 59.3723 248.19 57.8701 248.041H57.8647Z" fill="#872D1B"/>
<path opacity="0.5" d="M88.1052 238.349C87.0656 238.188 86.1948 237.434 85.7757 236.416C84.6708 233.745 82.793 227.973 86.5976 226.863C90.4729 225.735 91.7683 231.887 92.1166 234.235C92.22 234.925 92.1166 235.627 91.8064 236.243C91.2838 237.302 90.1898 238.672 88.1052 238.344V238.349Z" fill="#872D1B"/>
<path opacity="0.5" d="M73.344 242.729C72.3044 242.568 71.4336 241.814 71.0145 240.795C69.9096 238.125 68.0318 232.353 71.8363 231.242C75.7116 230.114 77.007 236.266 77.3554 238.614C77.4588 239.305 77.3554 240.007 77.0451 240.623C76.5226 241.682 75.4286 243.051 73.344 242.723V242.729Z" fill="#872D1B"/>
<path opacity="0.5" d="M90.9681 215.336C91.2021 213.966 92.1274 212.844 93.352 212.331C96.5524 210.985 103.465 208.735 104.619 213.822C105.794 218.996 98.4574 220.452 95.6653 220.814C94.8488 220.924 94.0161 220.757 93.3031 220.325C92.073 219.588 90.5 218.081 90.9735 215.341L90.9681 215.336Z" fill="#872D1B"/>
<path d="M319.024 252.115L324.222 370.35L275.209 365.677L275.111 266.629C275.111 266.629 254.069 252.633 243.586 208.562L320.477 190.825L319.018 252.115H319.024Z" fill="#E97C51"/>
<path d="M324.222 370.355L319.448 261.847C315.328 287.876 316.259 318.337 296.501 335.274C289.948 340.603 282.715 340.338 275.182 337.898L275.209 365.682L324.222 370.355Z" fill="#D3643D"/>
<path d="M295.625 186.532C297.231 200.476 303.109 219.439 308.769 218.714C314.43 217.988 315.671 197.944 314.065 184C312.46 170.056 309.161 160.18 302.14 161.084C294.101 162.12 294.019 172.588 295.62 186.532H295.625Z" fill="#E97C51"/>
<path d="M306.146 213.845C305.106 213.684 304.235 212.93 303.816 211.911C302.711 209.241 300.834 203.469 304.638 202.358C308.513 201.23 309.809 207.382 310.157 209.73C310.261 210.421 310.157 211.123 309.847 211.739C309.324 212.798 308.23 214.167 306.146 213.839V213.845Z" fill="#D3643D"/>
<path d="M295.679 186.526C297.176 196.477 300.082 206.151 304.143 215.255L304.056 215.318C300.899 211.399 299.304 206.398 298.118 201.495C296.887 196.592 296.011 191.585 295.576 186.538L295.685 186.526H295.679Z" fill="#A0300D"/>
<path d="M257.329 196.977C261.052 211.29 270.169 230.091 276.259 228.319C282.35 226.546 280.88 205.345 277.157 191.033C273.434 176.72 268.427 166.971 260.867 169.17C252.213 171.69 253.601 182.665 257.324 196.977H257.329Z" fill="#E97C51"/>
<path d="M259.011 202.485C261.944 210.593 265.341 218.892 270.941 225.332C272.563 227.116 275.53 229.326 277.516 226.932C280.39 223.059 279.841 215.03 279.683 210.225C279.394 204.407 278.583 198.612 277.555 192.851L277.658 192.822C280.058 200.971 283.498 220.561 278.153 227.553C270.756 234.96 260.154 207.9 259.011 202.479V202.485Z" fill="#A0300D"/>
<path d="M243.145 208.539C247.183 220.1 256.017 234.965 260.987 233.026C265.95 231.087 263.343 213.638 259.299 202.076C255.261 190.514 250.444 182.832 244.282 185.237C237.228 187.994 239.101 196.977 243.145 208.539Z" fill="#E97C51"/>
<path d="M243.199 208.522C245.218 213.977 247.787 219.209 250.879 224.049C252.43 226.454 254.123 228.796 256.158 230.707C260.627 234.885 262.94 232.284 263.158 226.759C263.327 219.496 261.748 212.286 259.947 205.316C259.223 202.491 258.167 199.78 257.28 197.006L257.383 196.96C259.887 202.237 261.765 207.808 262.962 213.58C263.833 217.925 264.443 222.374 264.138 226.828C263.806 233.003 260.605 236.059 255.696 231.265C253.617 229.234 251.957 226.828 250.433 224.371C247.434 219.404 244.99 214.087 243.101 208.568L243.204 208.528L243.199 208.522Z" fill="#A0300D"/>
<path d="M275.214 187.856C277.005 203.44 283.58 224.63 289.904 223.818C296.229 223.007 297.617 200.609 295.826 185.024C294.035 169.44 290.345 158.408 282.502 159.415C273.516 160.572 273.423 172.272 275.219 187.856H275.214Z" fill="#E97C51"/>
<path d="M274.888 184.334C276.014 194.911 278.333 205.46 282.524 215.151C283.852 217.948 286.965 224.635 290.574 223.105C293.698 221.246 294.515 215.099 295.113 211.595C296.458 202.87 296.12 193.645 295.875 185.024C297.318 193.121 298.586 219.634 290.955 223.997C284.489 226.592 279.808 210.179 278.431 205.385C276.684 198.583 275.1 191.182 274.888 184.339V184.334Z" fill="#A0300D"/>
<path d="M311.322 209.218C312.013 208.706 312.732 208.217 313.467 207.745L312.612 205.293C312.612 205.293 299.163 210.012 292.076 204.965C289.85 203.377 288.936 200.355 289.97 197.737C291.309 194.336 295.135 189.507 305.765 185.83C324.031 179.511 323.117 180.144 330.143 193.369C337.17 206.6 336.784 221.557 330.601 233.717C324.423 245.877 310.473 259.763 310.473 259.763L310.451 259.746C294.711 246.821 294.972 221.257 311.328 209.224L311.322 209.218Z" fill="#E97C51"/>
<path d="M291.586 243.08C291.151 231.852 297.242 221.407 304.905 214.098C306.005 212.987 307.763 211.601 308.944 210.559C310.37 209.489 311.823 208.458 313.26 207.405L313.102 207.889L312.231 205.443L312.71 205.702C306.424 207.359 292.719 210.248 289.415 202.347C287.864 198.433 290.465 194.491 293.263 192.12C295.103 190.509 297.155 189.214 299.277 188.138C303.539 186.014 308.024 184.495 312.601 183.476L312.623 183.586C308.16 184.95 303.757 186.642 299.642 188.909C296.61 190.584 293.655 192.621 291.608 195.527C289.464 198.359 289.48 202.306 292.43 204.476C297.682 208.084 307.033 206.272 312.857 204.792C313.015 205.253 313.761 207.434 313.918 207.9C312.4 208.982 310.86 210.041 309.352 211.14C306.647 213.344 303.876 215.715 301.612 218.42C301.106 219.007 300.339 219.847 299.892 220.469L298.308 222.638C294.33 228.549 291.461 235.691 291.69 243.057L291.581 243.068L291.586 243.08Z" fill="#A0300D"/>
<path d="M258.412 230.396C257.367 230.292 256.469 229.562 256.017 228.56C254.929 226.155 253.04 221.033 255.957 219.692C258.956 218.311 260.916 223.68 261.64 226.126C261.901 227.012 261.808 227.99 261.34 228.779C260.823 229.648 259.92 230.546 258.417 230.396H258.412Z" fill="#D3643D"/>
<path d="M288.653 220.699C287.613 220.538 286.742 219.784 286.323 218.765C285.218 216.095 283.34 210.323 287.145 209.212C291.02 208.084 292.316 214.236 292.664 216.584C292.767 217.275 292.664 217.977 292.354 218.593C291.831 219.652 290.737 221.021 288.653 220.693V220.699Z" fill="#D3643D"/>
<path d="M273.891 225.084C272.852 224.923 271.981 224.169 271.562 223.151C270.457 220.48 268.579 214.708 272.384 213.597C276.259 212.469 277.554 218.621 277.903 220.969C278.006 221.66 277.903 222.362 277.592 222.978C277.07 224.037 275.976 225.407 273.891 225.078V225.084Z" fill="#D3643D"/>
<path d="M291.515 197.685C291.749 196.315 292.675 195.193 293.899 194.681C297.1 193.334 304.012 191.084 305.166 196.172C306.342 201.345 299.005 202.801 296.213 203.164C295.396 203.273 294.563 203.106 293.85 202.675C292.62 201.938 291.047 200.43 291.521 197.691L291.515 197.685Z" fill="#D3643D"/>
<path d="M253.443 230.045L258.641 348.28L209.628 343.607L209.53 244.559C209.53 244.559 188.488 230.563 178.005 186.492L254.897 168.755L253.438 230.045H253.443Z" fill="#B9553B"/>
<path opacity="0.5" d="M258.641 348.28L253.868 239.771C249.748 265.8 250.678 296.261 230.921 313.198C224.368 318.527 217.134 318.262 209.601 315.822L209.628 343.607L258.641 348.28Z" fill="#872D1B"/>
<path d="M230.044 164.462C231.65 178.406 237.528 197.369 243.189 196.643C248.849 195.918 250.09 175.874 248.485 161.93C246.879 147.986 243.581 138.11 236.559 139.014C228.52 140.05 228.439 150.518 230.039 164.462H230.044Z" fill="#B9553B"/>
<path d="M244.343 184.84C244.288 184.489 244.212 184.046 244.114 183.568C241.861 184.27 239.607 184.909 237.349 185.278C237.566 185.934 237.795 186.532 237.996 187.021C238.415 188.04 239.292 188.788 240.326 188.955C242.41 189.283 243.504 187.913 244.027 186.854C244.332 186.239 244.435 185.531 244.337 184.846L244.343 184.84Z" fill="#FFC5D9"/>
<path d="M230.071 164.456C231.078 171.949 232.896 179.327 235.514 186.365C236.363 188.713 237.337 191.009 238.54 193.196L238.497 193.231C235.607 189.151 234.017 184.224 232.744 179.362C231.525 174.51 230.409 169.359 230.077 164.456H230.071Z" fill="#56150A"/>
<path d="M191.748 174.907C195.471 189.22 204.588 208.021 210.679 206.249C216.769 204.476 215.3 183.275 211.577 168.963C207.854 154.65 202.846 144.901 195.286 147.1C186.632 149.62 188.02 160.595 191.743 174.907H191.748Z" fill="#B9553B"/>
<path d="M193.403 180.426C196.293 188.575 199.635 196.908 205.236 203.4C206.912 205.293 210.02 207.509 212.094 205.028C215.044 201.144 214.581 192.989 214.369 188.149C214.091 182.337 213.052 176.398 212.05 170.775C214.173 178.74 217.542 198.646 212.409 205.339C205.181 212.458 194.769 185.807 193.397 180.432L193.403 180.426Z" fill="#56150A"/>
<path d="M177.564 186.469C181.603 198.03 190.437 212.895 195.406 210.956C200.37 209.017 197.763 191.568 193.719 180.006C189.68 168.444 184.863 160.762 178.702 163.167C171.648 165.924 173.52 174.907 177.564 186.469Z" fill="#B9553B"/>
<path d="M177.591 186.457C180.416 194.008 185.734 205.42 192.097 210.064C200.527 215.019 197.469 195.798 196.576 191.677C195.553 186.003 193.773 180.277 191.721 174.913C194.165 180.035 195.934 185.847 197.109 191.556C197.67 194.439 198.111 197.351 198.301 200.298C198.427 203.244 198.514 206.306 197.398 209.086C196.336 211.652 193.942 211.871 191.906 210.398C185.723 205.903 180.013 193.812 177.597 186.452L177.591 186.457Z" fill="#56150A"/>
<path d="M209.633 165.786C211.424 181.37 217.999 202.56 224.324 201.748C230.648 200.937 232.036 178.539 230.245 162.954C228.455 147.37 224.765 136.338 216.921 137.345C207.935 138.502 207.843 150.207 209.639 165.786H209.633Z" fill="#B9553B"/>
<path d="M209.28 162.264C209.955 169.354 211.283 176.369 213.242 183.183C214.739 188.247 216.443 193.352 219.251 197.783C227.361 209.534 230.055 190.612 230.398 184.276C231.019 177.221 230.73 169.918 230.273 162.949C231.209 170.016 231.405 177.186 230.942 184.322C230.42 189.605 230.006 195.257 227.247 199.866C224.46 204.05 220.955 201.305 218.93 198.019C213.21 188.443 210.129 173.411 209.285 162.264H209.28Z" fill="#56150A"/>
<path d="M245.742 187.142C246.433 186.63 247.151 186.141 247.886 185.669L247.031 183.217C247.031 183.217 233.582 187.936 226.496 182.889C224.269 181.301 223.355 178.28 224.389 175.661C225.728 172.26 229.554 167.432 240.184 163.754C258.451 157.435 257.536 158.068 264.563 171.293C271.59 184.524 271.203 199.481 265.02 211.641C258.842 223.801 244.892 237.688 244.892 237.688L244.871 237.67C229.13 224.745 229.391 199.181 245.747 187.148L245.742 187.142Z" fill="#B9553B"/>
<path d="M226.033 221.004C225.685 212.659 229.212 204.597 234.018 198.151C235.645 195.993 237.512 194.014 239.428 192.149C240.527 191.05 242.285 189.669 243.467 188.633C244.893 187.568 246.346 186.549 247.783 185.502L247.707 185.744L246.847 183.298L247.086 183.43C244.816 184.063 242.514 184.529 240.19 184.863C235.618 185.387 230.442 185.888 226.381 183.12C224.362 181.692 223.214 178.895 223.812 176.357C225.897 168.03 239.918 163.052 247.043 161.487C239.847 163.656 230.551 166.885 225.815 173.29C223.567 176.237 223.589 180.409 226.692 182.653C228.575 184.023 230.932 184.495 233.19 184.673C237.817 184.973 242.492 184.207 246.977 183.027L247.157 182.981L247.217 183.16L248.066 185.611L248.115 185.761C246.634 186.82 245.143 187.856 243.673 188.938C242.481 189.962 240.74 191.309 239.635 192.402C237.703 194.261 235.874 196.177 234.219 198.33C229.321 204.677 225.897 212.815 226.033 221.01V221.004Z" fill="#56150A"/>
<path d="M192.831 208.32C191.786 208.217 190.888 207.486 190.437 206.485C189.348 204.079 187.459 198.957 190.377 197.616C193.376 196.235 195.335 201.604 196.059 204.05C196.32 204.936 196.228 205.915 195.76 206.703C195.243 207.572 194.339 208.47 192.837 208.32H192.831Z" fill="#FFC5D9"/>
<path d="M223.072 198.623C222.032 198.462 221.162 197.708 220.742 196.69C219.638 194.019 217.76 188.247 221.564 187.137C225.44 186.009 226.735 192.161 227.083 194.509C227.187 195.199 227.083 195.901 226.773 196.517C226.251 197.576 225.157 198.946 223.072 198.618V198.623Z" fill="#FFC5D9"/>
<path d="M208.311 203.009C207.271 202.847 206.4 202.094 205.981 201.075C204.876 198.405 202.999 192.632 206.803 191.522C210.678 190.394 211.974 196.546 212.322 198.894C212.426 199.584 212.322 200.286 212.017 200.902C211.495 201.961 210.401 203.331 208.316 203.003L208.311 203.009Z" fill="#FFC5D9"/>
<path d="M225.935 175.615C226.169 174.245 227.094 173.123 228.319 172.611C231.519 171.264 238.432 169.014 239.586 174.102C240.761 179.275 233.424 180.731 230.632 181.094C229.816 181.203 228.983 181.036 228.27 180.605C227.04 179.868 225.467 178.36 225.94 175.621L225.935 175.615Z" fill="#FFC5D9"/>
</g>
<defs>
<clipPath id="clip0_152_2">
<rect width="430" height="310" fill="white"/>
</clipPath>
</defs>
</svg>
