<svg width="430" height="704" viewBox="0 0 430 704" fill="none" xmlns="http://www.w3.org/2000/svg">
<mask id="mask0_145_1397" style="mask-type:luminance" maskUnits="userSpaceOnUse" x="-28" y="0" width="1031" height="714">
<path d="M-28 0H1003V713.686H-28V0Z" fill="white"/>
</mask>
<g mask="url(#mask0_145_1397)">
<path d="M223 210.362C223 210.362 259.154 223.861 320.5 177.704C381.846 131.547 383 4.15411 538.5 16.9032H969.719V645.896C969.719 645.896 767.959 795.562 580.702 646.447C436.802 531.858 370.584 701.655 259.154 574.282C145.359 444.222 223 210.362 223 210.362Z" fill="#0E2C25"/>
<path d="M136.355 567L138.623 620.378C139.489 640.688 126.663 679.733 108.628 691.314C72.6664 714.426 16.9236 743.221 6.21498 809.921H416.539C416.539 809.921 450.658 748.314 371.368 714.004C292.077 679.694 285.19 667.14 285.19 667.14L297.961 499.839L136.341 567H136.355Z" fill="#CF7B54"/>
<path d="M138.622 620.391L136.354 567.013L291.196 502.667C276.707 540.791 251.455 600.9 217.445 629.413C190.419 652.064 152.341 649.441 137.646 633.201C138.457 629.016 138.814 624.729 138.622 620.391Z" fill="#A64C29"/>
<path d="M289.631 284.715C257.134 260.092 214.973 249.624 173.197 253.463C144.713 256.087 112.271 264.981 92.6549 289.488C51.6623 340.691 69.0243 408.171 69.0243 408.171C69.0243 408.171 53.6693 439.512 32.4582 453.077C11.2471 466.643 36.8434 489.397 43.5105 491.214C50.1777 493.031 59.168 493.185 59.168 493.185C59.168 493.185 53.037 508.222 41.3661 513.481C35.565 516.105 33.2005 522.785 36.0873 528.134C37.7232 531.167 40.3763 534.52 44.6378 537.988C44.6378 537.988 30.0251 558.989 54.5354 564.159C54.5354 564.159 54.5079 592.608 75.8152 603.038C85.7815 607.913 118.1 613.173 157.897 603.076C220.471 587.207 281.823 548.713 309.357 484.777C314.718 472.312 325.083 469.919 330.156 454.383C352.838 385.021 341.401 323.939 289.631 284.702V284.715Z" fill="#CF7B54"/>
<path d="M121.152 380.9C121.152 380.9 127.585 361.09 153.223 375.282C178.86 389.474 179.699 416.298 179.699 416.298L121.152 380.887V380.9Z" fill="#A64C29"/>
<path d="M74.8247 487.464C74.8247 487.464 67.5528 502.22 55.112 500.633L59.0848 493.018C59.0848 493.018 72.529 488.514 74.8247 487.464Z" fill="#A64C29"/>
<path opacity="0.64" d="M44.6369 537.976C40.3754 534.507 37.7223 531.142 36.0864 528.122C33.1996 522.772 35.5503 516.079 41.3652 513.468C41.8875 513.225 42.4099 512.969 42.9185 512.688C64.927 520.2 74.5221 532.767 98.3726 528.646C87.6089 563.954 54.5345 564.159 54.5345 564.159C30.0104 558.989 44.6369 537.988 44.6369 537.988V537.976Z" fill="#621227"/>
<path d="M98.3726 528.633C74.5221 532.767 64.927 520.187 42.9186 512.675C42.4099 512.957 41.9013 513.213 41.3652 513.456C35.5641 516.079 33.1996 522.759 36.0864 528.109C37.7223 531.142 40.3754 534.495 44.6369 537.963C44.6369 537.963 72.8175 541.866 98.3726 528.621V528.633Z" fill="#621227"/>
<path opacity="0.47" d="M43.5098 491.201C37.9837 489.691 19.5081 473.835 25.3642 460.73C26.244 468.806 34.4508 492.737 79.3337 471.378C81.5881 473.413 83.6776 482.025 78.7288 485.992C70.8107 489.806 59.0848 493.018 59.0848 493.018C59.0848 493.018 50.177 493.018 43.5098 491.201Z" fill="#A64C29"/>
<path d="M68.9678 408.133C63.4966 418.537 56.912 428.494 49.1176 437.529C44.2788 443.121 38.7801 448.406 32.4291 452.527C31.3019 453.321 29.7073 454.396 28.7313 455.317C16.9229 465.965 28.1264 481.987 38.7114 489.358C42.4092 492.302 47.5916 492.801 52.2243 493.364C56.9806 493.799 61.8195 492.967 66.1497 491.137L70.4524 489.422L79.0303 485.941L78.9753 485.826L70.2187 488.898C64.5826 491.086 58.534 493.082 52.348 492.276C47.8254 491.611 43.1653 491.163 39.5499 488.347C29.6248 481.296 18.2976 466.31 29.4461 455.983C31.3157 454.255 34.6561 452.156 36.7318 450.595C46.327 443.044 53.764 433.472 60.2661 423.554C63.3316 418.601 66.8782 413.265 68.9815 408.133H68.9678Z" fill="#893317"/>
<path d="M282.07 513.149C311.254 553.537 376.111 512.394 388.455 472.99C398.889 439.666 371.808 405.254 334.39 407.288C298.538 409.246 290.552 442.161 290.552 442.161L282.084 513.161L282.07 513.149Z" fill="#CF7B54"/>
<path d="M368.137 458.555C349.455 443.377 328.313 449.469 315.006 467.308C311.226 472.542 307.445 478.455 305.383 484.214C308.655 478.621 312.037 473.105 316.106 468.063C329.838 450.096 348.616 444.465 368.123 458.555H368.137Z" fill="#893317"/>
<path d="M330.994 493.812C342.266 482.537 354.061 460.743 332.204 453.372L332.149 453.487C351.971 463.226 341.07 481.603 330.994 493.812Z" fill="#893317"/>
<path d="M282 513.187C311.968 553.371 371.752 513.302 386.488 479.53C401.005 449.673 381.471 412.497 346.046 407.455C335.062 405.842 323.391 407.416 313.81 412.702C323.391 408.197 335.076 406.405 345.908 408.274C380.192 413.649 399.41 450.006 385.485 479.133C370.776 512.969 312.435 552.475 282.014 513.187H282Z" fill="#893317"/>
<path d="M44.6229 538.04C71.7863 540.42 102.922 533.714 119.886 512.419C122.333 509.476 124.257 506.212 126.058 502.923L125.934 502.859L124.34 505.201C123.501 506.558 121.934 508.414 120.972 509.732C103.239 531.871 72.9272 539.626 44.6091 538.04H44.6229Z" fill="#893317"/>
<path d="M119.543 491.892C121.921 500.799 130.431 509.872 141.125 508.234V508.106C130.004 506.763 123.585 501.157 119.557 491.892H119.543Z" fill="#893317"/>
<path opacity="0.47" d="M180.794 516.197C149.942 514.862 125.791 496.588 126.849 475.379C127.907 454.17 153.775 438.058 184.627 439.393C215.478 440.727 239.63 459.002 238.571 480.211C237.513 501.42 211.645 517.531 180.794 516.197Z" fill="#A64C29"/>
<path d="M203.205 382.423C203.205 382.423 169.017 336.327 93.8498 357.66C93.8498 357.66 87.3613 346.066 94.757 336.403L97.9738 345.106C97.9738 345.106 98.7986 334.151 118.745 333.831C138.691 333.511 193.637 346.014 203.218 382.436H203.205V382.423Z" fill="#0E2C25"/>
<mask id="mask1_145_1397" style="mask-type:luminance" maskUnits="userSpaceOnUse" x="109" y="380" width="72" height="59">
<path d="M180.797 419.676C180.797 419.676 173.388 382.756 121.164 380.913C121.164 380.913 93.6023 416.323 124.807 438.77C124.807 438.77 149.208 437.209 180.797 419.689V419.676Z" fill="white"/>
</mask>
<g mask="url(#mask1_145_1397)">
<path d="M180.797 419.676C180.797 419.676 173.388 382.756 121.164 380.913C121.164 380.913 93.6023 416.323 124.807 438.77C124.807 438.77 149.208 437.209 180.797 419.689V419.676Z" fill="#E7E0EE"/>
<path d="M180.22 417.577C172.811 407.404 154.528 406.124 143.503 404.857C132.588 403.807 121.481 403.948 110.483 405.177C112.752 391.714 121.151 380.9 121.151 380.9C165.869 382.487 177.718 409.758 180.206 417.577H180.22Z" fill="#BDB2CC"/>
<path d="M90.6466 409.925C90.6466 426.536 103.857 439.999 120.161 439.999C136.464 439.999 149.675 426.536 149.675 409.925C149.675 393.314 136.464 379.851 120.161 379.851C103.857 379.851 90.6466 393.314 90.6466 409.925Z" fill="#6A4C34"/>
<path d="M149.524 412.689C149.62 411.716 149.675 410.731 149.675 409.733C149.675 393.122 136.465 379.659 120.161 379.659C103.858 379.659 90.6471 393.122 90.6471 409.733C90.6471 409.873 90.6609 410.001 90.6609 410.129C110.085 403.923 130.347 406.201 149.51 412.676L149.524 412.689Z" fill="black"/>
<path d="M103.556 409.925C103.556 419.855 110.608 427.905 119.309 427.905C128.011 427.905 135.063 419.855 135.063 409.925C135.063 399.994 128.011 391.944 119.309 391.944C110.608 391.944 103.556 399.994 103.556 409.925Z" fill="black"/>
<path d="M134.65 414.788C130.261 414.788 126.704 411.35 126.704 407.109C126.704 402.868 130.261 399.431 134.65 399.431C139.038 399.431 142.595 402.868 142.595 407.109C142.595 411.35 139.038 414.788 134.65 414.788Z" fill="#E7E0EE"/>
<path d="M142.239 434.534C137.85 434.534 134.293 431.096 134.293 426.856C134.293 422.615 137.85 419.177 142.239 419.177C146.627 419.177 150.184 422.615 150.184 426.856C150.184 431.096 146.627 434.534 142.239 434.534Z" fill="#E7E0EE"/>
</g>
<path d="M120.752 372.825C120.752 372.825 110.415 382.705 106.071 395.784C106.071 395.784 101.92 373.043 120.752 372.825Z" fill="#A64C29"/>
<path opacity="0.65" d="M59.2772 464.595C58.6723 468.102 51.8677 470.021 44.0734 468.87C36.279 467.718 30.4505 463.943 31.0553 460.423C31.6602 456.917 38.4648 454.997 46.2591 456.149C54.0535 457.301 59.882 461.076 59.2772 464.595Z" fill="#F4E5E3"/>
<path opacity="0.65" d="M219.37 460.871C218.765 464.378 211.961 466.297 204.166 465.145C196.372 463.994 190.543 460.218 191.148 456.699C191.753 453.193 198.558 451.273 206.352 452.425C214.146 453.577 219.975 457.352 219.37 460.871Z" fill="#F4E5E3"/>
<path d="M180.798 419.676C180.798 419.676 167.437 382.001 119.227 384.586C119.227 384.586 104.917 388.118 98.4146 377.099C98.4146 377.099 102.319 380.286 121.825 378.046C137.524 376.242 175.85 386.237 180.785 419.676H180.798Z" fill="black"/>
<path d="M178.104 421.135C178.104 421.135 155.642 434.022 124.808 438.757C124.808 438.757 148.727 439.551 178.104 421.135Z" fill="black"/>
<path d="M232.361 291.958C232.361 291.958 205.61 414.762 274.165 423.016C342.719 431.271 428.65 404.959 390.695 548.917C390.695 548.917 474.206 470.84 400.002 398.484C325.797 326.114 331.007 300.033 317.632 254.973C304.256 209.927 94.1385 159.082 78.591 311.832C78.591 311.832 137.056 233.141 232.348 291.958H232.361Z" fill="#0E2C25"/>
<path d="M233.076 288.452C233.076 288.452 198.641 393.096 260.982 422.607C260.982 422.607 194.324 407.199 228.856 284.74L233.076 288.452Z" fill="#0E2C25"/>
<path d="M255.223 209.056C255.223 209.056 296.091 179.123 252.253 143.354C252.253 143.354 303.789 185.624 227.867 210.925C227.867 210.925 247.799 216.223 255.236 209.056H255.223Z" fill="#0E2C25"/>
</g>
</svg>
