<svg width="1042" height="1157" viewBox="0 0 1042 1157" fill="none" xmlns="http://www.w3.org/2000/svg">
<path d="M565.961 892.068C565.961 892.068 718.795 909.348 730.089 709.395C730.089 709.395 741.367 624.406 848.818 620.826C956.253 617.229 1027.3 570.538 971.851 421.437C916.399 272.335 1042 221.148 1042 221.148V0H534.237V879.496L565.978 892.068H565.961Z" fill="#0E2C25"/>
<path d="M476.522 892.068C476.522 892.068 323.688 909.348 312.394 709.395C312.394 709.395 301.116 624.406 193.665 620.826C86.23 617.229 15.1796 570.538 70.6319 421.437C126.084 272.335 0.5 221.13 0.5 221.13V0H552.012V879.496L476.522 892.068Z" fill="#0E2C25"/>
<path d="M674.807 992.61C586.39 992.61 575.197 961.682 575.197 933.347C575.197 905.011 582.648 865.056 582.648 865.056H459.819C459.819 865.056 467.269 904.994 467.269 933.347C467.269 961.7 456.077 992.61 367.659 992.61C279.242 992.61 290.757 1068.62 290.757 1068.62L290.264 1156.24H752.168L751.675 1068.62C751.675 1068.62 763.208 992.61 674.773 992.61H674.807Z" fill="#E97C51"/>
<path d="M575.282 937.508C575.214 936.115 575.18 934.722 575.18 933.329C575.18 904.976 582.63 865.038 582.63 865.038H459.802C459.802 865.038 466.64 901.643 467.218 929.644C499.231 963.287 543.899 965.526 575.265 937.508H575.282Z" fill="#BF4B22"/>
<path d="M410.83 801.437C379.872 839.576 325.287 790.857 318.33 749.385C312.445 714.314 340.851 682.064 374.701 688.041C407.139 693.772 410.83 728.173 410.83 728.173V801.437Z" fill="#E97C51"/>
<path d="M339.099 738.894C355.446 726.639 372.796 734.292 381.641 751.695C384.091 756.826 386.761 762.698 387.51 768.058C385.247 762.751 383.002 757.461 380.161 752.559C370.738 734.909 356.415 728.244 339.099 738.894Z" fill="#A0300D"/>
<path d="M368.816 737.695C351.363 744.008 359.953 762.187 365.958 774.318L365.822 774.424C356.381 763.915 351.193 741.733 368.816 737.713V737.695Z" fill="#A0300D"/>
<path d="M643.22 801.437C674.178 839.576 728.763 790.857 735.72 749.385C741.605 714.314 713.198 682.064 679.349 688.041C646.911 693.772 643.22 728.173 643.22 728.173V801.437Z" fill="#E97C51"/>
<path d="M699.012 739.035C682.104 727.785 667.017 735.473 658.052 752.559C655.212 757.461 652.966 762.751 650.704 768.058C651.453 762.68 654.123 756.809 656.573 751.695C661.761 741.521 671.677 732.123 683.448 732.899C688.925 733.322 695.185 735.42 699.012 739.035Z" fill="#A0300D"/>
<path d="M672.272 774.318C679.536 762.469 685.591 744.713 669.415 737.695L669.466 737.519C688.313 741.504 680.709 763.897 672.272 774.3V774.318Z" fill="#A0300D"/>
<path d="M654.599 732.97C654.599 732.97 699.012 864.332 544.494 915.555C536.38 918.253 527.688 918.676 519.353 916.789C487.358 909.542 407.972 881.771 389.228 782.588C370.04 681.042 386.54 557.367 466.419 514.572C504.164 494.348 549.835 496.816 585.947 520.003C626.771 546.205 673.004 604.534 654.616 732.987L654.599 732.97Z" fill="#E97C51"/>
<path d="M654.684 732.934C667.527 776.187 660.077 826.528 631.058 861.106C617.875 877.381 600.695 890.094 582.647 899.95C580.317 901.114 573.972 904.306 571.574 905.522L563.988 908.784C553.782 912.822 543.593 917.724 532.536 918.5C527.025 918.905 521.446 918.112 516.122 916.719C494.808 911.464 474.26 902.595 455.958 890.006C418.519 864.914 394.705 823.16 387.833 777.862C384.176 755.522 382.713 732.793 382.917 710.153H383.087C383.342 732.74 385.111 755.416 388.905 777.668C396.083 822.191 420.05 863.839 456.893 888.56C474.958 901.096 495.302 910.019 516.445 915.344C521.701 916.737 527.042 917.512 532.468 917.142C543.286 916.419 553.509 911.588 563.562 907.638L571.115 904.429C573.53 903.212 579.824 900.091 582.154 898.928C600.134 889.212 617.263 876.622 630.411 860.506C659.804 825.964 666.71 776.099 654.684 732.917V732.934Z" fill="#A0300D"/>
<path d="M509.267 788.988C509.267 788.988 519.438 809.284 531.294 808.314C543.133 807.344 552.183 786.255 552.183 786.255C552.183 786.255 547.046 797.822 531.788 800.767C523.045 802.46 509.267 788.988 509.267 788.988Z" fill="#BF4B22"/>
<path opacity="0.47" d="M503.5 776.275C503.5 785.938 517.874 800.767 530.58 800.767C543.287 800.767 553.612 785.868 554.819 776.275C555.585 770.139 544.494 759.595 531.771 759.595C519.064 759.595 503.483 766.613 503.483 776.275H503.5Z" fill="#BF4B22"/>
<path d="M554.054 729.125C554.054 729.125 559.021 700.578 575.963 683.034C590.489 667.993 613.963 667.623 629.952 680.988C640.243 689.576 649.599 704.316 647.098 729.108H554.054V729.125Z" fill="#BF4B22"/>
<mask id="mask0_148_518" style="mask-type:luminance" maskUnits="userSpaceOnUse" x="550" y="684" width="98" height="76">
<path d="M550.499 743.143C550.839 740.657 558.561 689.523 605.033 684.709C612.296 683.951 619.61 685.115 626.108 688.553C632.095 691.709 639.154 697.069 643.611 705.868C652.133 722.69 646.469 743.39 631.942 754.957C629.901 756.597 627.605 758.149 625.053 759.577C625.053 759.577 608.06 742.103 566.981 749.015C561.011 750.02 554.751 748.133 550.686 743.496C550.635 743.443 550.601 743.39 550.55 743.337C550.516 743.284 550.499 743.214 550.499 743.161V743.143Z" fill="white"/>
</mask>
<g mask="url(#mask0_148_518)">
<path d="M550.499 743.143C550.839 740.657 558.561 689.523 605.033 684.709C612.296 683.951 619.61 685.115 626.108 688.553C632.095 691.709 639.154 697.069 643.611 705.868C652.133 722.69 646.469 743.39 631.942 754.957C629.901 756.597 627.605 758.149 625.053 759.577C625.053 759.577 608.06 742.103 566.981 749.015C561.011 750.02 554.751 748.133 550.686 743.496C550.635 743.443 550.601 743.39 550.55 743.337C550.516 743.284 550.499 743.214 550.499 743.161V743.143Z" fill="#EBE2F0"/>
<path d="M643.628 705.85C639.171 697.052 632.112 691.691 626.125 688.535C619.627 685.097 612.296 683.951 605.05 684.691C573.309 687.971 559.65 712.868 554.071 729.126C580.198 711.105 623.284 711.969 646.571 731.753C648.561 723.201 647.795 714.067 643.645 705.85H643.628Z" fill="#C4B4CF"/>
<path d="M594.214 757.69C612.27 757.69 626.907 740.986 626.907 720.38C626.907 699.774 612.27 683.069 594.214 683.069C576.158 683.069 561.521 699.774 561.521 720.38C561.521 740.986 576.158 757.69 594.214 757.69Z" fill="#350D00"/>
<path d="M561.674 723.801C561.572 722.602 561.504 721.367 561.504 720.133C561.504 699.521 576.149 682.823 594.197 682.823C612.244 682.823 626.89 699.521 626.89 720.133C626.89 720.309 626.873 720.468 626.873 720.627C605.355 712.921 582.885 715.743 561.657 723.801H561.674Z" fill="black"/>
<path d="M595.15 744.325C604.789 744.325 612.602 734.339 612.602 722.02C612.602 709.701 604.789 699.715 595.15 699.715C585.511 699.715 577.698 709.701 577.698 722.02C577.698 734.339 585.511 744.325 595.15 744.325Z" fill="black"/>
<path d="M586.951 719.446C586.951 724.7 583.005 728.967 578.14 728.967C573.275 728.967 569.329 724.7 569.329 719.446C569.329 714.191 573.275 709.924 578.14 709.924C583.005 709.924 586.951 714.191 586.951 719.446Z" fill="#EBE2F0"/>
<path d="M566.879 747.887C571.745 747.887 575.69 743.624 575.69 738.365C575.69 733.106 571.745 728.844 566.879 728.844C562.013 728.844 558.068 733.106 558.068 738.365C558.068 743.624 562.013 747.887 566.879 747.887Z" fill="#EBE2F0"/>
</g>
<path d="M581.593 690.652C581.593 690.652 579.892 679.543 582.443 679.208C584.995 678.873 588.277 686.861 588.277 686.861L581.593 690.652Z" fill="black"/>
<path d="M574.227 696.823C574.227 696.823 570.774 686.155 573.241 685.397C575.724 684.639 580.215 691.939 580.215 691.939L574.227 696.823Z" fill="black"/>
<path d="M634.29 686.667C634.29 686.667 644.445 677.939 649.718 682.999C655.008 688.06 643.407 698.269 643.407 698.269L634.29 686.667Z" fill="black"/>
<path d="M644.172 697.986C644.172 697.986 657.1 695.236 659.447 702.289C661.795 709.342 646.928 712.657 646.928 712.657L644.155 697.969L644.172 697.986Z" fill="black"/>
<path d="M550.448 741.645C550.448 741.645 560.653 697.863 593.057 687.231C602.328 684.198 612.415 684.427 621.532 687.901C633.116 692.291 647.625 706.627 646.554 730.254C646.554 730.254 659.77 702.113 635.497 684.939C611.87 668.223 559.055 684.533 550.448 741.645Z" fill="black"/>
<path d="M504.351 729.919C504.351 729.919 499.384 701.372 482.442 683.828C467.916 668.787 444.442 668.417 428.453 681.782C418.162 690.369 408.806 705.11 411.307 729.902H504.351V729.919Z" fill="#BF4B22"/>
<mask id="mask1_148_518" style="mask-type:luminance" maskUnits="userSpaceOnUse" x="410" y="685" width="98" height="76">
<path d="M507.906 743.937C507.566 741.451 499.843 690.316 453.372 685.503C446.109 684.744 438.795 685.908 432.297 689.347C426.309 692.503 419.25 697.863 414.794 706.662C406.272 723.483 411.936 744.184 426.462 755.751C428.504 757.391 430.8 758.943 433.351 760.371C433.351 760.371 450.344 742.897 491.423 749.809C497.394 750.814 503.653 748.927 507.719 744.29C507.77 744.237 507.804 744.184 507.855 744.131C507.889 744.078 507.906 744.008 507.906 743.955V743.937Z" fill="white"/>
</mask>
<g mask="url(#mask1_148_518)">
<path d="M507.906 743.937C507.566 741.451 499.843 690.316 453.372 685.503C446.109 684.744 438.795 685.908 432.297 689.347C426.309 692.503 419.25 697.863 414.794 706.662C406.272 723.483 411.936 744.184 426.462 755.751C428.504 757.391 430.8 758.943 433.351 760.371C433.351 760.371 450.344 742.897 491.423 749.809C497.394 750.814 503.653 748.927 507.719 744.29C507.77 744.237 507.804 744.184 507.855 744.131C507.889 744.078 507.906 744.008 507.906 743.955V743.937Z" fill="#EBE2F0"/>
<path d="M414.793 706.644C419.25 697.846 426.309 692.485 432.297 689.329C438.794 685.891 446.126 684.745 453.372 685.485C485.112 688.765 498.771 713.662 504.35 729.919C478.223 711.899 435.137 712.763 411.851 732.547C409.86 723.995 410.626 714.861 414.776 706.644H414.793Z" fill="#C4B4CF"/>
<path d="M459.836 760.247C477.892 760.247 492.529 743.543 492.529 722.937C492.529 702.331 477.892 685.626 459.836 685.626C441.78 685.626 427.143 702.331 427.143 722.937C427.143 743.543 441.78 760.247 459.836 760.247Z" fill="#350D00"/>
<path d="M427.296 726.358C427.194 725.159 427.125 723.924 427.125 722.69C427.125 702.077 441.771 685.379 459.819 685.379C477.866 685.379 492.512 702.077 492.512 722.69C492.512 722.866 492.495 723.025 492.495 723.184C470.977 715.478 448.507 718.299 427.279 726.358H427.296Z" fill="black"/>
<path d="M478.241 722.937C478.241 735.262 470.416 745.242 460.788 745.242C451.161 745.242 443.336 735.262 443.336 722.937C443.336 710.612 451.161 700.632 460.788 700.632C470.416 700.632 478.241 710.612 478.241 722.937Z" fill="black"/>
<path d="M452.589 719.446C452.589 724.7 448.643 728.967 443.778 728.967C438.913 728.967 434.967 724.7 434.967 719.446C434.967 714.191 438.913 709.924 443.778 709.924C448.643 709.924 452.589 714.191 452.589 719.446Z" fill="#EBE2F0"/>
<path d="M444.187 743.937C444.187 749.192 440.24 753.459 435.376 753.459C430.511 753.459 426.564 749.192 426.564 743.937C426.564 738.683 430.511 734.416 435.376 734.416C440.24 734.416 444.187 738.683 444.187 743.937Z" fill="#EBE2F0"/>
</g>
<path d="M476.829 692.944C476.829 692.944 478.53 681.835 475.978 681.5C473.41 681.183 470.144 689.153 470.144 689.153L476.829 692.944Z" fill="black"/>
<path d="M484.177 699.115C484.177 699.115 487.63 688.447 485.164 687.689C482.68 686.931 478.189 694.231 478.189 694.231L484.177 699.115Z" fill="black"/>
<path d="M424.115 688.941C424.115 688.941 413.96 680.213 408.687 685.274C403.414 690.334 414.998 700.543 414.998 700.543L424.115 688.941Z" fill="black"/>
<path d="M414.232 700.279C414.232 700.279 401.305 697.528 398.957 704.581C396.61 711.634 411.476 714.949 411.476 714.949L414.249 700.261L414.232 700.279Z" fill="black"/>
<path d="M507.957 743.937C507.957 743.937 497.751 700.155 465.347 689.523C456.077 686.49 445.99 686.719 436.873 690.193C425.289 694.584 410.779 708.919 411.851 732.547C411.851 732.547 398.634 704.405 422.907 687.231C446.534 670.515 499.35 686.825 507.957 743.937Z" fill="black"/>
<path d="M539.187 682.541C538.983 682.435 542.946 762.099 542.334 760.142L554.904 771.144C554.938 771.18 555.023 771.25 555.04 771.303C558.833 777.386 552.931 788.072 548.576 792.568C543.235 798.158 535.7 800.926 528.284 801.596C525.222 800.802 522.398 799.551 519.677 798.052C511.648 793.608 505.252 786.026 502.497 777.016L502.65 776.963C504.827 782.711 508.382 787.825 512.924 791.792C517.057 795.583 523.844 798.863 528.233 799.991C538.813 798.951 549.257 792.921 553.152 782.271C554.292 779.097 555.823 775.288 553.816 772.15C554.581 772.908 541.398 760.9 541.568 761.076C541.364 760.882 541.381 760.953 541.364 760.653C541.517 760.671 538.677 682.223 539.153 682.576L539.187 682.541Z" fill="#A0300D"/>
<path opacity="0.65" d="M519.115 775.111C519.115 778.497 524.559 781.247 531.278 781.247C537.996 781.247 543.44 778.497 543.44 775.111C543.44 771.726 537.996 768.975 531.278 768.975C524.559 768.975 519.115 771.726 519.115 775.111Z" fill="#FBE7E5"/>
<path d="M655.807 674.447C655.807 674.447 627.197 644.172 567.169 655.122C567.169 655.122 561.368 643.519 567.968 633.857L570.843 642.55C570.843 642.55 571.574 631.6 589.384 631.282C607.193 630.965 647.234 638.018 655.79 674.447H655.807Z" fill="#0E2C25"/>
<path d="M398.702 674.447C398.702 674.447 427.313 644.172 487.341 655.122C487.341 655.122 493.141 643.519 486.542 633.857L483.667 642.55C483.667 642.55 482.935 631.6 465.126 631.282C447.317 630.965 407.275 638.018 398.719 674.447H398.702Z" fill="#0E2C25"/>
<path opacity="0.47" d="M451.756 828.204C475.082 828.204 493.992 813.591 493.992 795.566C493.992 777.54 475.082 762.928 451.756 762.928C428.43 762.928 409.521 777.54 409.521 795.566C409.521 813.591 428.43 828.204 451.756 828.204Z" fill="#BF4B22"/>
<path opacity="0.47" d="M600.304 828.204C623.63 828.204 642.539 813.591 642.539 795.566C642.539 777.54 623.63 762.928 600.304 762.928C576.978 762.928 558.068 777.54 558.068 795.566C558.068 813.591 576.978 828.204 600.304 828.204Z" fill="#BF4B22"/>
<path d="M564.821 749.245C564.821 749.245 601.562 742.474 625.07 759.56C625.07 759.56 611.785 740.517 564.821 749.245Z" fill="black"/>
<path d="M492.172 749.914C492.172 749.914 456.859 743.267 433.334 760.353C433.334 760.353 445.207 741.204 492.172 749.914Z" fill="black"/>
<path d="M516.224 867.594C516.224 867.594 527.382 881.56 541.484 867.594C541.484 867.594 528.879 872.955 516.224 867.594Z" fill="#BF4B22"/>
<path d="M555.602 709.659C555.602 709.659 558.137 697.546 564.821 689.523C564.821 689.523 553.255 692.644 555.602 709.659Z" fill="#BF4B22"/>
<path d="M501.901 707.349C501.901 707.349 499.367 695.236 492.682 687.213C492.682 687.213 504.249 690.334 501.901 707.349Z" fill="#BF4B22"/>
<path opacity="0.43" d="M423.095 779.784C423.095 783.17 427.007 785.92 431.821 785.92C436.635 785.92 440.547 783.17 440.547 779.784C440.547 776.399 436.635 773.648 431.821 773.648C427.007 773.648 423.095 776.399 423.095 779.784Z" fill="#FBE7E5"/>
<path opacity="0.43" d="M614.218 779.784C614.218 783.17 618.13 785.92 622.944 785.92C627.758 785.92 631.67 783.17 631.67 779.784C631.67 776.399 627.758 773.648 622.944 773.648C618.13 773.648 614.218 776.399 614.218 779.784Z" fill="#FBE7E5"/>
<path d="M551.332 824.835C535.955 821.609 528.182 822.261 528.182 822.261C528.182 822.261 520.408 821.609 505.031 824.835C489.654 828.062 483.122 826.122 483.122 826.122C502.071 852.536 528.182 851.408 528.182 851.408C528.182 851.408 554.292 852.536 573.241 826.122C573.241 826.122 566.709 828.062 551.332 824.835Z" fill="white"/>
<path d="M493.345 826.528C486.286 827.039 483.122 826.105 483.122 826.105C486.371 830.637 489.841 834.304 493.345 837.355V826.528Z" fill="#1C0200"/>
<path d="M563.035 826.528C570.094 827.039 573.258 826.105 573.258 826.105C570.009 830.637 566.539 834.304 563.035 837.355V826.528Z" fill="#1C0200"/>
<path d="M470.467 814.803C476.267 828.062 492.92 827.992 504.572 824.43C512.107 822.103 520.051 821.627 527.875 821.538C527.875 821.538 527.994 823.002 527.909 822.949L527.807 821.538H528.199L528.097 822.949C528.012 823.02 528.165 821.538 528.131 821.538C533.37 821.45 538.592 821.679 543.797 822.385C548.968 822.949 553.85 825.083 559.021 825.629C566.454 826.617 574.755 826.088 580.827 821.027C582.817 819.37 584.314 817.166 585.539 814.803C584.314 819.775 579.364 824.077 574.534 825.858C569.482 827.692 564.073 827.921 558.833 827.375C553.628 826.899 548.747 824.783 543.559 824.113C538.473 823.319 533.302 822.984 528.148 822.949L528.233 821.538C528.318 821.468 528.148 822.949 528.165 822.949H527.824L527.722 821.538C527.807 821.45 527.807 822.931 527.841 822.931C522.687 822.861 517.499 823.09 512.379 823.795C507.191 824.377 502.31 826.458 497.105 826.934C487.239 828.292 473.886 825.47 470.45 814.803H470.467Z" fill="#A0300D"/>
<path d="M373.153 831.8C383.337 831.8 391.592 823.243 391.592 812.686C391.592 802.13 383.337 793.573 373.153 793.573C362.97 793.573 354.715 802.13 354.715 812.686C354.715 823.243 362.97 831.8 373.153 831.8Z" fill="white"/>
<path d="M678.141 831.8C688.325 831.8 696.58 823.243 696.58 812.686C696.58 802.13 688.325 793.573 678.141 793.573C667.958 793.573 659.702 802.13 659.702 812.686C659.702 823.243 667.958 831.8 678.141 831.8Z" fill="white"/>
<path d="M377.627 688.042C377.627 688.042 432.841 708.143 452.946 596.105C455.209 583.498 460.686 571.649 469.106 562.268C478.938 551.336 493.991 541.762 514.931 547.157C552.046 556.714 565.943 523.812 565.943 523.812C565.943 523.812 649.173 545.694 662.628 685.344C662.628 685.344 721.686 471.725 524.15 465.73C326.614 459.735 377.609 688.042 377.609 688.042H377.627Z" fill="#0E2C25"/>
</svg>
