<?xml version="1.0" encoding="UTF-8"?>
<svg xmlns="http://www.w3.org/2000/svg" xmlns:xlink="http://www.w3.org/1999/xlink" version="1.1" viewBox="0 0 1920 1080">
  <!-- Generator: Adobe Illustrator 29.1.0, SVG Export Plug-In . SVG Version: 2.1.0 Build 142)  -->
  <defs>
    <style>
      .st0 {
        fill: none;
      }

      .st1 {
        fill: #002b00;
      }

      .st2 {
        fill: #f3d5c3;
      }

      .st3 {
        fill: #e9a478;
      }

      .st4 {
        fill: #e17659;
      }

      .st5 {
        fill: #af8742;
      }

      .st6 {
        fill: #a384db;
      }

      .st7 {
        fill: #e58d72;
      }

      .st8 {
        fill: #388500;
      }

      .st9 {
        fill: #503583;
      }

      .st10 {
        fill: #446588;
      }

      .st11 {
        fill: #ebb0c8;
      }

      .st12 {
        fill: #d85235;
      }

      .st13 {
        fill: #cb553a;
      }

      .st14 {
        fill: #aa3b65;
      }

      .st15 {
        fill: #9a784e;
      }

      .st16 {
        fill: #dd5182;
      }

      .st17 {
        fill: #7b60ba;
      }

      .st18 {
        fill: #5e4228;
      }

      .st19 {
        fill: #1d3407;
      }

      .st20 {
        fill: #624994;
      }

      .st21 {
        fill: #324865;
      }

      .st22 {
        fill: #26384c;
      }

      .st23 {
        fill: #e383a1;
      }

      .st24 {
        fill: #002500;
      }

      .st25 {
        clip-path: url(#clippath);
      }
    </style>
    <clipPath id="clippath">
      <polygon class="st0" points="1919.95 .03 1919.95 1079.97 1919.93 1080 0 1080 0 0 1919.93 0 1919.95 .03"/>
    </clipPath>
  </defs>
  <g id="BACKGROUND">
    <polygon class="st0" points="1919.95 .03 1919.95 1079.97 1919.93 1080 0 1080 0 0 1919.93 0 1919.95 .03"/>
  </g>
  <g id="OBJECTS">
    <g class="st25">
      <g>
        <path class="st2" d="M795.59,275.28c-4.05,36.7-11.86,72.83-20.15,108.74-5.72,21.99-10.61,44.42-18.67,65.7-.08.23-.17.45-.25.68-.65,1.81-1.22,3.25-1.7,4.27-7.16,14.88-25.35,22.66-33.61,25.49,5.94,9.9,4.19,23.51-4.27,31.83,0,0,8.94,4.36,5.23,19.55-3.76,15.19-14.37,84.57-19.58,95.58-5.18,11.06-11.18,19.58-27.64,17.68,0,0,3.9,17.97-3.96,20.46-1.53.48-5.06.14-9.93-.76l-20.91,268.4-1.87,23.82v.14l-12.39,158.85-226.41-14.23,101.83-472.94c-11.03-1.9-20.15-6.88-18.31-26.8-3.39-3.17-6.22-8.6-5.4-18.05,1.84-21.45,9.73-94.59,12.42-105.4,2.72-10.75,10.5-18.33,10.5-18.33-4.47-8.86-3.2-20.06,3.2-28.01l-.54-.34c-12.99-.59-42.89-51.41-56.45-96.31-9.73-32.28-19.86-58.49-20.2-84.18-.08-10.04,1.27-20.03,4.81-30.22,9.39-27.45,35.96-31.94,48.41-32.48,1.78-.08,3.28-.08,4.41-.06l-1.33-1.33c1.1.4,2.15.85,3.17,1.39.25.03.37.03.37.03.09-1.98.42-3.99,1.05-6.06,5.66-21.42,31.8-34.43,51.19-41.03,51.61-15.9,113.89-8.46,164.28,9.11,42.27,15.31,73,40.72,91.59,82.17l.96,2.58.54,2.46c2.12,12.76.74,25.01-.37,37.6Z"/>
        <path class="st2" d="M999.74,574.84c-9.82,29.85-15.45,49.23-15.45,49.23-4.39,35.11-16.64,56.79-27.93,107.58-11.29,50.76-89.72,367.63-89.72,367.63l-71.73,4.44-181.26,11.23.65-1.36.79-1.7,181.57-388.29c26.46-58.34,44.88-100.96,44.68-106.08-.65-17.97-3.03-12.76-5.01-29.57-.79-6.68-4.16-15.82-8.57-24.98l-.08.93c-.82-2.21-1.73-4.39-2.69-6.51-2.97-5.66-6.22-11.15-9.37-15.87-2.77-3.79-5.83-7.39-9.17-10.72-3.68-3.68-7.72-7.13-11.35-10.89-.08-.09-.14-.14-.23-.2-6.93-6.17-12.82-13.69-11.54-26.65-.31-6.62.48-13.44,1.33-20.03,1.9-15,3.79-29.96,5.72-44.96.85-6.76,1.81-13.78,3.88-20.26.54-2.6,1.08-4.7,1.64-6.22,4.67-12.51,12.48-14.12,12.48-14.12,0,0,9.51-17.03,21.62-22.75,12.08-5.74,17.23,3.2,17.23,3.2.2-.06.42-.14.62-.23.2-.79.37-1.24.37-1.24,7.87-3.99,29.91-17.01,29.91-17.01,0,0,3.82,1.16,5.77,5.94.93,2.35,1.08,4.1.06,6.14v.03c2.72,6.79.25,14.63.25,14.63.37,0,.71.03,1.05.08l.74-.71c-.08.25-.2.54-.28.79,6.9,1.58,11.46,13.5,11.46,13.5,4.67-1.78,9.65-1.9,14.49-1.13h.06c1.64.08,3.28.28,4.87.62,7.84,1.67,14.83,6.03,21.19,10.92,1.44-.23,26.26-4.13,37.32,1.67,11.4,6,11.77,16.27,21.45,36.36,9.65,20.12,8.43,39.95,13.67,59.25,5.23,19.27-.62,47.42-10.47,77.3Z"/>
        <path class="st2" d="M341.41,655.19c16.33,139.27,48.5,376.29,76.99,443.77l-218.75-1.27s16.67-253.58,8.63-334.9c-.08-.96-.2-1.9-.28-2.86-3.14,1.5-4.92,2.29-4.92,2.29,0,0-13.52-16.16-17.43-29.68-3.9-13.52,3.37-31.8,3.37-31.8,0,0-4.07-27.16-8.32-47.65-4.22-20.49,5.29-34.26,5.29-34.26l9.51,11.01c-1.95-16.24-3.9-27.79-6.08-32.93-6.39-15.02-28.92-81.49-33.39-102.54-4.44-21.05-.11-52.12.62-63.97.74-11.88,5.69-58.03,9.34-67.51,3.42-8.91,19.55-17,34.52-20.23l-.23-.65c1.7-.11,3.4-.2,5.06-.23.03-.03.06,0,.06,0,14.03-2.21,17.77.2,17.77.2,0,0,23.94-15.53,30.93-20.88,6.96-5.35,18.9-8.32,24.76-3.9,2.21,1.7,3.9,3.23,5.09,4.44l.03-.48c.14.28.28.57.37.85.03.03.06.03.03.06,1.73,1.75,2.4,2.8,2.4,2.8,0,0,10.3-12.51,21.02-13.1,10.7-.57,20.43,7.36,22.1,11.4,0,0,8.32-12.11,19.83-6.93,11.15,4.98,19.78,9.54,20.8,18.73.45-.03.93-.03,1.39-.06l-.59,1.36c2.09,1.05,8.8,5.6,13.41,21.08,5.52,18.62,16.89,50.76,16.04,65.7-.82,14.94-8.6,27.05-13.89,37.07-5.29,9.96-54.41,85.42-56.11,90.88-.28.85.74,12.79,2.74,32.62.57-1.22.85-1.9.85-1.9.17,0,.37-.03.54,0,2.35-13.16,7.44-28.86,18.53-37.46,21.48-16.69,64.85-56.45,64.85-56.45,0,0-.82,34.1-24.39,87.91,12.82-5.09,25.21-4.75,34.97-2.86.03,0,.06,0,.09.03,5.8.45,11.57,1.53,17.15,3.25l-3.28.88c3.68,1.5,5.77,2.72,5.77,2.72,0,0-43.63,82.17-82.42,65.42-6.73-2.91-12.19-5.8-16.61-8.6-1.08,2.8-2.26,5.77-3.62,8.94-1.44,3.37-2.94,6.59-4.53,9.7Z"/>
      </g>
      <g>
        <path class="st23" d="M371.51,813.85c.56-.29,1.05-.59,1.59-.92-3.21-7.49-7.34-14.5-12.14-21.07-7.38-9.81-16.36-18.44-26.52-25.35-14.89-10.25-32.32-16.92-50.35-18.66,12.16,5.73,20.54,17.18,27.7,28.61,7.18,11.37,13.93,23.46,24.51,31.77,3.11,2.41,6.67,4.44,10.38,5.89,8.21,3.15,17.3,3.62,24.84-.27Z"/>
        <path class="st23" d="M299.05,822.25c11.04,3.95,20.94,11.05,28.27,20.17,1.6,1.94,3.03,4.01,4.38,6.13,3.41,5.43,6.31,11.72,11.92,14.8,6.42,3.57,14.36,1.83,21.59.35,7.09-1.45,15.39-2.22,20.92,2.46-2.31-5.74-5.34-11.21-9.04-16.24-6.49-8.86-14.98-16.34-24.67-21.48-16.21-8.61-35.67-10.87-53.36-6.2Z"/>
        <path class="st23" d="M369.23,977.52c7.91-2.78,16.57,1.14,23.48,5.86.46.31.93.63,1.39.94,6.39,4.49,12.69,9.68,20.34,11.15,7.93,1.53,16.2-1.13,22.89-5.6,1.13-.73,2.22-1.55,3.26-2.34,5.3-4.14,9.82-9.2,14.27-14.21l.18-.34c-26.36-14.73-61.16-12.93-85.81,4.54Z"/>
        <path class="st23" d="M316.69,886.16c9.07-.92,17.57,4.54,24.09,10.92.4.39.83.83,1.23,1.22,5.95,6.07,11.16,13.03,18.19,17.89,11.09,7.74,25.05,9.17,38.8,9.15,2.66-.02,5.29-.07,7.87-.14-8.05-15.29-21.4-27.89-37.23-34.99-16.47-7.37-35.57-8.81-52.96-4.05Z"/>
        <path class="st23" d="M426.15,947.71c2.63-1.71,5.23-3.5,7.78-5.38,5.72-4.11,11.07-8.63,15.61-14.05,7.71-9.21,12.68-21.48,10.44-33.29-.88-4.62-2.8-9.01-3.48-13.63-.04-.28-.07-.52-.11-.8-.54-4.95.98-10.66,5.36-12.97-15.39,6.7-27.98,19.58-34.28,35.11-5.72,14.22-6.19,30.44-1.32,45.01Z"/>
        <path class="st23" d="M395.21,879.76c6.24-1.06,12.51-2.24,18.52-4.14,2.39-.73,4.71-1.58,6.98-2.55,9.15-3.98,17.61-10.56,21.75-19.68,3.47-7.58,3.7-16.19,5.45-24.38.06-.38.13-.72.22-1.12,1.94-8.49,6.9-17.39,15.36-19.5-18.79,1.67-36.78,10.71-49.36,24.8-11.35,12.75-18.12,29.52-18.91,46.56Z"/>
        <path class="st23" d="M379.41,831.58h.1c6.43-1.66,12.61-4.1,18.4-7.3,15.48-8.45,28.21-21.96,35.4-38.1,2.54-5.69,4.42-11.68,6.56-17.56,1.25-3.51,2.66-7.01,4.3-10.36,4.39-9,11.45-17.43,21.12-20.01-14.14,2.98-27.64,8.86-39.5,17.04-6.91,4.73-13.3,10.24-18.89,16.45-9.39,10.33-16.64,22.47-21.5,35.53-2.89,7.83-4.9,16-5.99,24.3Z"/>
        <path class="st23" d="M367.65,786.65c7.36-22.05,14.81-44.39,15.9-67.57.17-3.36.17-6.77.02-10.17-.73-17.46-5.7-34.85-16.18-48.43-1.56-1.96-3.23-3.91-5.01-5.7,2.8,7.65-.91,15.95-3.8,23.58-4.32,11.28-6.92,23.18-7.8,35.19-1.8,25.31,3.96,51.23,16.87,73.11Z"/>
        <path class="st16" d="M427.47,902.7c-5.72,14.22-6.19,30.44-1.32,45.01,2.63-1.71,5.23-3.5,7.78-5.38-.06-1.78-.07-3.53-.03-5.31.45-20.44,8.71-40.64,22.61-55.66-.04-.28-.07-.52-.11-.8-.54-4.95.98-10.66,5.36-12.97-15.39,6.7-27.98,19.58-34.28,35.1Z"/>
        <path class="st16" d="M316.69,886.16c9.07-.92,17.57,4.54,24.09,10.92.4.39.83.83,1.23,1.22,7.77,1.81,15.56,3.57,23.19,5.96,12.86,4.06,25.65,10.72,33.81,21.08,2.66-.02,5.29-.07,7.87-.14-8.05-15.29-21.4-27.89-37.23-34.99-16.47-7.37-35.57-8.81-52.96-4.05Z"/>
        <path class="st16" d="M455.05,972.99c-26.36-14.73-61.16-12.93-85.81,4.54,7.91-2.78,16.57,1.14,23.48,5.86.46.31.93.63,1.39.94,15.43-3.3,31.76-2.24,46.49,3.22,5.3-4.14,9.82-9.2,14.27-14.21l.18-.34Z"/>
        <path class="st16" d="M299.05,822.25c11.04,3.95,20.94,11.04,28.27,20.17,16.86-1.02,33.93,1.57,49.77,7.51-6.49-8.86-14.98-16.34-24.67-21.48-16.21-8.61-35.67-10.87-53.36-6.2Z"/>
        <path class="st16" d="M346.82,813.64l-.15.48c8.79,3.4,18.62,3.65,26.43-1.19-8.08-18.74-21.79-34.88-38.66-46.42,2.03,3.63,3.89,7.34,5.56,11.15,4.98,11.3,8,23.66,6.83,35.98Z"/>
        <path class="st16" d="M379.41,831.58h.1c6.43-1.66,12.61-4.1,18.4-7.3-.51-5.47,1.27-11.16,3.88-16.03,3.35-6.26,8.09-11.67,11.83-17.67,6.65-10.67,10.04-22.88,12.17-35.29-6.91,4.73-13.3,10.24-18.89,16.45-14.98,16.54-24.64,37.71-27.48,59.84Z"/>
        <path class="st16" d="M414.12,833.2c-11.35,12.75-18.12,29.52-18.91,46.56,6.24-1.06,12.51-2.24,18.52-4.14,7.59-17.89,19.44-33.97,34.17-46.61.05-.38.13-.72.22-1.12,1.94-8.49,6.9-17.39,15.36-19.5-18.79,1.67-36.78,10.71-49.36,24.8Z"/>
        <path class="st16" d="M350.78,713.54c-1.8,25.31,3.96,51.23,16.87,73.11,7.36-22.05,14.81-44.39,15.9-67.57.18-3.36.17-6.77.02-10.17-5.06,14.63-9.41,29.54-13.05,44.59-5.93-13.62-12.54-26.99-19.74-39.96Z"/>
        <path class="st16" d="M500.23,999.85c-31.93-9.86-58.35-32.73-76.98-59.99-21.34-31.21-33.2-67.92-41.31-104.54-4.9-22.12-8.5-44.49-12.1-66.85-.55-3.41-5.93-2.92-5.37.52,11.87,73.74,25.22,157.89,85.68,208.96,14.46,12.22,31.05,21.63,49.16,27.22,3.32,1.02,4.2-4.31.93-5.32Z"/>
      </g>
      <g>
        <path class="st17" d="M694.62,794.31c-14.56,32.31-18.7,67.76-27.63,101.76-8.4,31.97-21.59,62.62-39.09,90.67-9.88,15.83-21.1,30.79-33.49,44.74-2.3,2.6,2.16,5.64,4.44,3.07,22.09-24.88,40.36-53.01,54.19-83.28,6.9-15.1,12.66-30.72,17.2-46.68,4.82-16.95,8.18-34.26,11.98-51.46,4.29-19.43,9.28-38.78,17.47-56.98,1.43-3.18-3.66-4.99-5.08-1.84Z"/>
        <path class="st17" d="M672.49,961.38c25.33-11.6,54.31-15.12,81.72-9.99-13.89,1.82-26.57,7.36-38.84,14.27-12.59,7.04-24.68,15.47-37.08,22.68-12.99,7.58-26.69,13.9-40.82,18.93-8.08,2.95-16.29,5.39-24.65,7.38,13.99-23.13,35.05-41.98,59.66-53.27Z"/>
        <path class="st17" d="M673.53,885.32c21.32-26.52,42.98-53.24,70.05-73.77,27.34-20.8,61.25-34.95,95.49-32.11-30.61,14.33-55.32,38.42-81.25,60.12-24.81,20.84-52.59,40.38-84.3,45.76Z"/>
        <path class="st17" d="M772.13,869.56c8.43-2.45,16.97-4.49,25.61-6.08-13.59,10.59-24.2,24.45-35.68,37.23-11.53,12.83-24.65,25.03-40.91,30.69-21.15,7.41-45.45,3.02-65.94,11.69l-.09-.23c6.43-7.09,13.23-13.8,20.44-20.1l.05-.04c27.84-24.44,61.01-42.7,96.52-53.17Z"/>
        <path class="st17" d="M602.45,926.74c10.7,28.28,12.94,59.67,6.47,89.21l-.75.05c-.35-14.29-8.17-27.41-16.86-38.8-.04-.05-.11-.11-.15-.16-8.76-11.49-18.82-22.27-24.76-35.42-12.22-26.83-5.62-59.42-18.07-86.17,5.72,4.18,11.15,8.79,16.25,13.78,16.64,16.08,29.68,35.83,37.87,57.51Z"/>
        <path class="st17" d="M617.2,739.83c-.68-10.1-2.22-20-5.62-29.56,21.31,23.05,34.75,52.46,42.96,82.77,8.07,29.8,11.37,60.63,14.6,91.35-4.98-3.39-9.71-7.23-14.07-11.43-18.83-17.9-31.72-42.05-35.72-67.74-3.32-21.5-.71-43.87-2.15-65.4Z"/>
        <path class="st17" d="M567.34,797.45c49.41,30.58,82.73,85.78,86.85,143.72-11.13-20.65-34.06-32.77-46.96-52.5-9.2-14.01-12.74-30.91-17.15-47.08-4.4-16.21-10.31-32.86-22.74-44.14Z"/>
        <path class="st17" d="M682.52,757.2c5.98-39.1,24.64-76.19,52.55-104.3-9.72,19.81-12.93,41.46-14.69,63.6-2.15,27.35-2.11,55.42-9.41,81.7-6.36,22.98-18.24,44.01-30.27,64.65-.64,1.1-1.28,2.16-1.92,3.26h-.22c3.43-36.17-1.55-72.95,3.95-108.91Z"/>
        <path class="st6" d="M791.36,795.96c-24.33,31.08-56.48,55.91-92.67,71.6l-.11-.11c27.29-28.38,55.9-57.59,92.79-71.5Z"/>
        <path class="st6" d="M772.13,869.56c-7.69,9.85-15.09,20.05-25.1,27.4-20.48,14.97-48.41,15.74-71.41,25.77,27.84-24.44,61.01-42.7,96.52-53.17Z"/>
        <path class="st6" d="M715.37,965.67c-12.59,7.04-24.68,15.47-37.08,22.68-12.99,7.58-26.69,13.9-40.82,18.93,9.63-14.29,23.14-25.94,38.82-33.11,12.22-5.61,25.67-8.47,39.07-8.5Z"/>
        <path class="st6" d="M720.39,716.5c-2.15,27.35-2.11,55.42-9.41,81.7-6.36,22.98-18.24,44.01-30.27,64.65l-.72-.41c9.61-32.5,12.5-66.61,21.34-99.31,4.37-16.14,10.51-32.26,19.06-46.62Z"/>
        <path class="st6" d="M648.87,840.15c2.06,10.95,4.13,21.86,6.2,32.81-18.83-17.9-31.72-42.05-35.72-67.74-3.32-21.5-.71-43.87-2.15-65.4,5.11,8.5,9.39,17.51,12.98,26.7,9.21,23.65,13.98,48.73,18.69,73.62Z"/>
        <path class="st6" d="M593.65,839.88c20.36,19.43,35.29,44.5,42.72,71.65-23.35-16.53-39.36-43.22-42.72-71.65Z"/>
        <path class="st6" d="M581.21,920.38c10.71,16.46,11.62,36.67,9.95,56.66-8.76-11.49-18.82-22.27-24.76-35.42-12.22-26.83-5.62-59.42-18.07-86.17,5.72,4.18,11.15,8.79,16.25,13.78-2.34,10.59-2.36,21.18,2.38,30.84,3.63,7.45,9.75,13.36,14.25,20.31Z"/>
      </g>
      <g>
        <path class="st7" d="M199.56,996.71c-27.83,1.11-55.28,11.06-77.4,28.04,13.21-4.65,27.03-5.45,41.09-4.83,14.41.58,29.01,2.64,43.33,3.46,15.02.89,30.09.34,44.96-1.57,8.54-1.02,16.97-2.56,25.32-4.56-22.94-14.3-50.24-21.6-77.3-20.53Z"/>
        <path class="st7" d="M152.89,908.71c-24.32-11.09-48.96-22.19-75.16-27.05-26.49-4.95-55.18-2.93-78.04,11.14,26.46-.74,52.28,7.45,78.1,13.53,24.73,5.87,51.08,9.78,75.11,2.38Z"/>
        <path class="st7" d="M69.17,959.86c-8.63,1.63-17.17,3.67-25.59,6.16,16.91,3.3,32.64,10.86,48.66,17.08,16.08,6.23,33.3,11.18,50.36,8.88,22.21-2.95,41.9-17.85,64.1-19.39l-.03-.25c-8.94-3.42-18.04-6.33-27.32-8.69h-.06c-35.88-9.22-73.72-10.51-110.13-3.79Z"/>
        <path class="st7" d="M246.37,934.14c3.25,30.06,15.44,59.07,34.57,82.5l.69-.3c-6.15-12.91-5.1-28.15-2.5-42.23,0-.06.05-.15.06-.21,2.62-14.2,6.72-28.38,6.06-42.79-1.24-29.46-21.85-55.54-22.84-85.03-3.21,6.31-5.97,12.88-8.26,19.63-7.58,21.86-10.27,45.37-7.78,68.42Z"/>
        <path class="st7" d="M148.71,774.1c-3.96-9.31-7.06-18.84-8.35-28.9-8.59,30.2-7.28,62.51-.89,93.25,6.28,30.23,17.27,59.22,28.28,88.08,2.91-5.28,5.39-10.83,7.38-16.56,8.7-24.48,9.28-51.85,1.24-76.57-6.76-20.68-19.2-39.45-27.65-59.3Z"/>
        <path class="st7" d="M219.23,802.95c-30.24,49.62-35.01,113.91-12.49,167.46.59-23.45,15.56-44.63,18.15-68.06,1.87-16.66-2.61-33.33-5.99-49.75-3.4-16.45-5.66-33.97.32-49.65Z"/>
        <path class="st4" d="M54.08,913.93c35.76,16.72,75.66,24.33,115.03,21.97l.05-.15c-37.17-12.98-75.89-26.1-115.09-21.82Z"/>
        <path class="st4" d="M69.17,959.86c11.31,5.31,22.52,11.07,34.78,13.09,25.03,4.09,50.3-7.85,75.35-9.31-35.88-9.21-73.72-10.51-110.13-3.78Z"/>
        <path class="st4" d="M163.25,1019.92c14.41.58,29.01,2.64,43.33,3.46,15.02.89,30.09.34,44.96-1.57-15.05-8.39-32.37-12.67-49.6-11.97-13.43.52-26.73,4.05-38.69,10.09Z"/>
        <path class="st4" d="M165.82,877.9c3.11,10.7,6.2,21.37,9.31,32.07,8.7-24.48,9.28-51.84,1.24-76.57-6.76-20.68-19.2-39.45-27.65-59.3-.72,9.89-.46,19.86.49,29.69,2.47,25.26,9.56,49.78,16.61,74.11Z"/>
        <path class="st4" d="M214.95,852.69c-9.37,26.54-11.35,55.64-5.71,83.22,13.36-25.3,15.56-56.35,5.71-83.22Z"/>
        <path class="st4" d="M262.44,918.86c-2.11,19.52,6.21,37.97,16.75,55.04,2.62-14.21,6.72-28.38,6.07-42.79-1.24-29.46-21.85-55.54-22.84-85.03-3.21,6.31-5.97,12.88-8.26,19.63,6.88,8.39,11.68,17.83,11.83,28.58.13,8.29-2.66,16.33-3.53,24.56Z"/>
        <path class="st7" d="M322.87,1024.18c-29.88-3.31-57.96-15.45-83.11-31.56-24.62-15.77-46.76-35.33-65.49-57.77-10.61-12.71-20.11-26.3-28.38-40.64-1.72-2.98-6.67-.81-4.93,2.21,29.81,51.7,76.17,96.11,131.39,119.69,15.9,6.79,32.68,11.52,49.88,13.43,3.46.38,4.08-4.98.62-5.36Z"/>
        <path class="st7" d="M109.37,816.29c-21.48-33.22-53.7-59.4-90.67-73.61,16.98,14.09,28.78,32.53,39.46,52,13.16,24.07,24.64,49.69,42.06,70.67,15.22,18.36,34.67,32.67,54.1,46.57,1.04.74,2.05,1.45,3.09,2.19l.19-.09c-17.94-31.58-28.48-67.17-48.23-97.73Z"/>
        <path class="st4" d="M58.16,794.68c13.17,24.07,24.64,49.69,42.06,70.67,15.22,18.36,34.67,32.67,54.1,46.57l.49-.67c-22.09-25.71-38.69-55.64-60.16-81.85-10.6-12.93-22.81-25.12-36.49-34.72Z"/>
      </g>
      <g>
        <path class="st21" d="M1042.76,658.86c-29.51,57.46-76.27,105.55-132.71,136.94-15.83,8.8-32.38,16.26-49.45,22.31-3.6,1.28-.9,6.59,2.68,5.32,61.46-21.78,115.85-62.24,155.02-114.3,11.12-14.78,20.95-30.49,29.4-46.94,1.73-3.37-3.19-6.72-4.94-3.32Z"/>
        <path class="st21" d="M1027.81,693.8c-.35-.43-.65-.86-.97-1.31,5.28-4.98,11.14-9.25,17.39-12.92,9.51-5.4,19.9-9.27,30.66-11.32,15.8-3.1,32.41-2.38,47.77,2.59-11.97.37-22.87,6.76-32.78,13.57-9.9,6.75-19.7,14.24-31.29,17.28-3.4.87-7.03,1.27-10.57,1.14-7.82-.34-15.43-3.17-20.21-9.02Z"/>
        <path class="st21" d="M1084.06,726.34c-10.42-.68-21.02,1.61-30.25,6.47-2,1.01-3.9,2.21-5.75,3.46-4.71,3.23-9.31,7.34-14.99,7.87-6.51.64-12.39-3.6-17.77-7.36-5.28-3.7-11.79-7.27-17.97-5.4,3.92-3.87,8.34-7.27,13.14-10.07,8.44-4.94,18.03-8.05,27.77-8.81,16.3-1.29,33.01,3.76,45.81,13.84Z"/>
        <path class="st21" d="M974.45,834.25c-5.48-5.08-13.95-4.94-21.27-3.53-.49.09-.98.18-1.47.28-6.81,1.4-13.8,3.41-20.57,1.91-7.02-1.56-12.84-6.67-16.73-12.69-.66-1-1.26-2.05-1.84-3.07-2.86-5.26-4.77-11-6.63-16.67l-.02-.34c26.76-2.7,54.57,11.11,68.53,34.12Z"/>
        <path class="st21" d="M1044.65,768.24c-7.09-3.97-15.97-2.52-23.56.39-.47.18-.97.38-1.44.56-7.02,2.85-13.74,6.7-21.21,8.18-11.8,2.4-23.72-1.38-34.96-6.27-2.16-.95-4.3-1.93-6.38-2.91,12-9.64,27.37-15.21,42.83-15.41,16.08-.19,32.19,5.4,44.72,15.46Z"/>
        <path class="st21" d="M937.73,781.07c-1.55-2.33-3.03-4.72-4.45-7.15-3.22-5.38-5.99-10.98-7.78-17.01-3.03-10.26-2.75-22.04,3.26-30.91,2.36-3.47,5.48-6.37,7.67-9.91.13-.21.24-.4.37-.61,2.2-3.85,2.98-9.06.22-12.5,10.2,10.92,15.93,25.92,15.58,40.84-.36,13.65-5.73,27.07-14.87,37.25Z"/>
        <path class="st21" d="M985.08,739.27c-4.72-3.08-9.43-6.27-13.67-9.95-1.69-1.44-3.29-2.96-4.8-4.56-6.07-6.49-10.65-14.87-10.8-23.79-.15-7.42,2.71-14.54,4.19-21.85.09-.33.15-.64.21-1,1.42-7.63.52-16.65-5.64-21.38,14.77,8.02,26.27,21.79,31.55,37.76,4.76,14.45,4.35,30.55-1.04,44.76Z"/>
        <path class="st21" d="M1015.07,705.49l-.08-.04c-4.66-3.64-8.85-7.82-12.45-12.48-9.66-12.4-15.27-27.94-15.43-43.68-.06-5.55.53-11.11.86-16.68.22-3.31.31-6.67.16-9.99-.4-8.92-3.18-18.3-10.17-23.84,10.5,7.45,19.45,17.03,26.24,27.92,3.97,6.31,7.24,13.08,9.61,20.14,4.01,11.77,5.63,24.26,4.98,36.66-.41,7.42-1.67,14.81-3.72,21.98Z"/>
        <path class="st21" d="M1040.6,672.93c1.8-20.62,3.63-41.53,10.95-60.86,1.05-2.81,2.26-5.6,3.58-8.32,6.79-14.01,17.01-26.47,30.39-33.85,1.97-1.04,4.02-2.05,6.12-2.89-5,5.26-4.91,13.36-5.25,20.62-.46,10.75-2.56,21.4-6.1,31.53-7.5,21.32-21.39,40.47-39.69,53.77Z"/>
        <path class="st22" d="M952.61,743.81c-.36,13.65-5.73,27.07-14.87,37.25-1.55-2.33-3.03-4.72-4.45-7.15.68-1.43,1.31-2.86,1.91-4.33,6.88-16.86,7.28-36.3,1.25-53.5.13-.21.24-.4.37-.61,2.2-3.85,2.98-9.06.22-12.5,10.2,10.92,15.93,25.92,15.58,40.84Z"/>
        <path class="st22" d="M1044.65,768.24c-7.09-3.97-15.97-2.52-23.56.39-.47.18-.97.38-1.44.56-6.99-1.27-13.98-2.6-21.06-3.34-11.95-1.23-24.76-.32-35.1,5.25-2.17-.95-4.3-1.93-6.38-2.91,12-9.64,27.37-15.21,42.83-15.41,16.08-.19,32.19,5.4,44.71,15.46Z"/>
        <path class="st22" d="M905.92,800.14c26.76-2.7,54.57,11.11,68.53,34.11-5.48-5.08-13.95-4.94-21.27-3.53-.49.09-.98.18-1.47.28-11.44-8.17-25.17-13.09-39.14-13.85-2.86-5.26-4.77-11-6.63-16.67l-.02-.34Z"/>
        <path class="st22" d="M1084.06,726.34c-10.42-.68-21.02,1.61-30.25,6.47-13.42-6.81-28.29-10.74-43.33-11.5,8.44-4.94,18.03-8.05,27.77-8.81,16.3-1.29,33.01,3.76,45.81,13.84Z"/>
        <path class="st22" d="M1048.06,702.38l-.05.45c-8.39-.34-16.51-3.62-21.18-10.34,13.24-12.46,30.17-20.78,48.04-24.24-2.94,2.25-5.78,4.62-8.5,7.14-8.08,7.47-14.92,16.5-18.33,26.98Z"/>
        <path class="st22" d="M1015.07,705.49l-.08-.04c-4.66-3.64-8.85-7.82-12.45-12.48,2.35-4.29,2.92-9.57,2.51-14.47-.52-6.3-2.48-12.41-3.4-18.63-1.65-11.08-.1-22.26,2.56-33.16,3.97,6.31,7.24,13.09,9.61,20.14,6.38,18.82,6.78,39.55,1.26,58.64Z"/>
        <path class="st22" d="M986.12,694.51c4.76,14.45,4.35,30.55-1.04,44.76-4.72-3.08-9.43-6.27-13.67-9.95.14-17.31-3.85-34.65-11.41-50.2.09-.33.15-.64.21-1,1.42-7.63.52-16.65-5.64-21.38,14.77,8.02,26.27,21.79,31.55,37.76Z"/>
        <path class="st22" d="M1080.29,619.16c-7.5,21.32-21.39,40.47-39.69,53.77,1.8-20.62,3.63-41.53,10.95-60.86,1.05-2.81,2.26-5.6,3.58-8.32-1.05,13.75-2.78,27.48-5.14,41.06,9.68-9.03,19.81-17.62,30.29-25.66Z"/>
      </g>
      <g>
        <path class="st7" d="M920.31,947.85c26.03,9.93,48.86,28.12,64.41,51.27-11.04-8.62-23.87-13.79-37.4-17.69-13.85-4.05-28.34-6.75-42.17-10.54-14.51-3.95-28.62-9.28-42.11-15.84-7.77-3.69-15.27-7.84-22.54-12.4,26.3-6.24,54.51-4.44,79.81,5.2Z"/>
        <path class="st7" d="M975.27,895.27c33.85-3.39,68.09-6.68,101.72-1.76,34,4.92,67.87,19.18,89.84,45.59-31.68-11.79-66.18-12.52-99.83-15.79-32.25-3.08-65.67-9.2-91.73-28.04Z"/>
        <path class="st7" d="M1055.64,954.53c7.66,4.3,15.1,8.95,22.28,14-17.08-2.27-34.4-.12-51.56.66-17.23.77-35.13-.04-50.56-7.65-20.11-9.89-34.02-30.29-54.56-38.83l.1-.23c9.56-.39,19.12-.25,28.66.48h.06c36.94,2.73,73.22,13.58,105.58,31.57Z"/>
        <path class="st7" d="M895.91,873.62c-12.67,27.46-33.48,51.06-59.08,67.16l-.56-.5c9.94-10.27,13.82-25.05,15.84-39.23.01-.06,0-.16,0-.22,2.05-14.3,2.69-29.04,7.9-42.49,10.57-27.52,38.43-45.67,48.78-73.29,1.03,7.01,1.55,14.11,1.57,21.25.2,23.14-4.74,46.28-14.46,67.32Z"/>
        <path class="st7" d="M1039.53,753.1c6.73-7.56,12.7-15.6,17.14-24.73-1.5,31.36-13.05,61.56-28.91,88.66-15.59,26.65-35.26,50.61-54.91,74.45-1.07-5.93-1.65-11.99-1.71-18.05-.44-25.97,7.74-52.1,23.26-72.96,13-17.44,30.78-31.26,45.13-47.38Z"/>
        <path class="st7" d="M963.49,757.94c12.83,56.67-3.17,119.13-41.6,162.69,6.92-22.41-.51-47.26,4.51-70.29,3.54-16.39,13.11-30.76,21.55-45.24,8.48-14.51,16.21-30.38,15.54-47.16Z"/>
        <path class="st7" d="M1081.66,816.01c34.94-18.54,75.83-25.72,115.04-20.11-21.69,4.03-40.98,14.38-59.79,26.19-23.22,14.61-45.72,31.39-71.16,41.23-22.24,8.61-46.2,11.65-69.93,14.31-1.27.14-2.5.26-3.76.41l-.12-.18c31.06-18.84,57.59-44.79,89.73-61.85Z"/>
        <path class="st4" d="M1121.6,916.65c-39.22,4.44-79.47-1.08-116.03-15.89v-.16c39.37-.44,80.25-.52,116.03,16.04Z"/>
        <path class="st4" d="M1055.64,954.53c-12.41,1.42-24.88,3.3-37.14,1.31-25.03-4.11-45.17-23.49-68.44-32.86,36.94,2.72,73.22,13.57,105.58,31.55Z"/>
        <path class="st4" d="M947.31,981.43c-13.85-4.05-28.34-6.75-42.17-10.54-14.51-3.95-28.62-9.28-42.11-15.84,16.94-3.15,34.72-1.68,50.83,4.48,12.57,4.78,24.04,12.36,33.45,21.91Z"/>
        <path class="st4" d="M1136.91,822.09c-23.22,14.61-45.72,31.39-71.16,41.23-22.24,8.61-46.2,11.65-69.93,14.31l-.1-.82c31.82-11.69,60.9-29.74,92.41-42.17,15.55-6.13,32.15-10.83,48.78-12.55Z"/>
        <path class="st4" d="M990.2,846.02c-6.36,9.15-12.69,18.27-19.05,27.42-.44-25.97,7.75-52.1,23.26-72.96,13-17.44,30.78-31.26,45.13-47.38-2.47,9.6-5.9,18.97-9.94,27.98-10.41,23.15-24.95,44.13-39.39,64.94Z"/>
        <path class="st4" d="M951.68,806.45c.42,28.14-6.99,56.36-21.15,80.69-4.59-28.24,3.23-58.37,21.15-80.69Z"/>
        <path class="st4" d="M885.55,854.01c-4.23,19.18-18,34-33.43,46.82,2.05-14.3,2.69-29.04,7.9-42.49,10.57-27.52,38.43-45.67,48.78-73.29,1.03,7.01,1.55,14.11,1.57,21.25-9.19,5.75-16.76,13.17-20.33,23.32-2.77,7.81-2.69,16.32-4.49,24.4Z"/>
      </g>
      <g>
        <path class="st6" d="M1069.44,1050.08c3.51,4.51,7.04,8.99,10.55,13.5.59.75,1.2,1.59,1.09,2.56-.16,1.36-1.69,2.05-3,2.46-8.7,2.67-17.84,3.83-26.92,3.45-8.58-.3-17.1-1.95-25.16-4.97.14.34.24.7.36,1.07,2.29,7.65,1.63,15.88,3.42,23.67,1.55,6.66,4.88,13.15,4.08,19.94-.72,6.23-5.07,11.74-10.64,14.71-5.54,2.94-12.16,3.52-18.37,2.47-2.86-.49-5.84-1.31-8.66-.5-1.76.53-3.3,1.66-5.03,2.34-5.78,2.31-12.59-1-16.25-6.02-3.6-4.89-4.9-11.04-6.06-17.01-1.21.71-2.5,1.34-3.77,1.92-9.11,4.28-18.19,8.55-27.29,12.83-4.03,1.9-8.23,3.84-12.67,3.7-6.01-.19-11.37-4.22-14.68-9.22-3.33-5-4.95-10.9-6.51-16.68-.63-2.41-1.59-5.17-3.96-5.91-1.23-.36-2.55-.09-3.86-.08-5.57.03-9.97-5.67-9.88-11.24.04-2.86,1.04-5.6,2.59-8.01-5.66-1.56-11.36-3.27-16.19-6.59-5.16-3.52-9.23-9.23-9.12-15.45.06-3.57,1.46-6.97,2.17-10.48s.62-7.54-1.83-10.14c-1.58-1.69-4.02-2.69-4.74-4.87-.82-2.44.97-4.91,2.79-6.72,6.11-6.01,14.07-10.11,22.51-11.66-1.35-4.14-3.73-8.05-7.75-9.4-2.9-.96-6.97-.98-7.76-3.95-.63-2.41,1.63-4.45,3.15-6.39,4.57-5.92,3.01-14.64,6.57-21.22,3.73-6.87,12-9.67,19.53-11.87,1.91-.57,3.81-1.11,5.74-1.61,4-1.07,8.03-1.89,12.16-2.03,1.02-.03,2.04-.01,3.05.05-2.83-8.19,2.19-18.55,10.65-20.91,4.49-1.26,9.56-.58,13.55-2.99,3.52-2.12,5.61-6.33,9.49-7.72,4.02-1.43,8.37.72,12.1,2.8,6.02,3.39,12.13,6.83,16.88,11.82,4.02,4.23,6.99,9.84,7.17,15.61.68-1.4,1.61-2.65,2.88-3.61,1.62-1.2,3.55-1.77,5.55-2.04,1.2-.19,2.43-.25,3.62-.32,9.32-.53,18.62-1.08,27.91-1.61,2.5-.15,5.25-.21,7.11,1.42,1.48,1.28,2.02,3.28,2.52,5.18,2.7,10.62,5.39,21.21,8.09,31.83,6.27-1.36,12.56-2.69,18.83-4.05,1.61-.35,3.43-.66,4.79.28,2.16,1.49,1.55,4.79.57,7.21-3.44,8.36-8.73,15.94-15.37,22.06,3.49.65,6.95,1.29,10.44,1.94h.02c5.13.96,10.23,1.92,15.36,2.86,3.42.64,7.2,1.5,9.25,4.33,2.46,3.4,1.33,8.19-.45,12.01-4.22,9.12-11.64,16.75-20.64,21.23Z"/>
        <path class="st10" d="M1022.25,1059.36c-5.05-7.83-13.01-13.94-21.16-18.77-3.43-2.04-6.96-3.92-10.48-5.82,1.82-2.89,2.96-6.45,3.16-10.68.22-2.69,0-5.14-.55-7.38,1.53-.24,3.04-.47,4.57-.71,11.82-1.86,23.64-3.7,35.44-5.57,5.69-.9,12.13-2.29,14.98-7.28,2.45-4.28,1.29-9.63.08-14.42-.55-2.17-1.1-4.36-1.65-6.52,6.27-1.36,12.56-2.69,18.83-4.05,1.61-.35,3.43-.66,4.79.28,2.16,1.49,1.55,4.79.57,7.21-3.44,8.36-8.73,15.94-15.37,22.06,3.49.65,6.96,1.29,10.44,1.94-7.9,5.47-16.78,9.53-26.1,11.91,6.08,4.67,13.27,7.87,20.81,9.25-10.16-.4-20.32-.8-30.49-1.21,9.11,7.28,17.25,15.77,24.12,25.21-10.63-11-24.95-18.37-40.09-20.62,12.33,12.62,24.69,25.24,37.02,37.86-8.58-.3-17.1-1.95-25.16-4.97-.92-2.76-2.2-5.33-3.75-7.72Z"/>
        <path class="st17" d="M1022.25,1059.36c-6.99-3.05-13.98-6.07-20.96-9.09,6.31,17.19,9.98,35.36,10.82,53.68.08,1.69-.19,3.83-1.81,4.29-1.79.53-3.17-1.55-3.89-3.28-3.21-7.74-6.4-15.47-9.58-23.18-.65,5.76-1.29,11.55-1.94,17.31-4.43-12.01-8.87-23.99-13.3-35.99-.16,11.95-2.19,23.88-6.01,35.23.72-4.31-.23-9.21-1.16-13.62-2.59-12.36-4.17-24.92-4.65-37.53-.04-.95-.07-1.9-.11-2.85,8.11.65,16.52-2.44,20.95-9.56,3.53,1.9,7.06,3.78,10.48,5.82,8.15,4.82,16.11,10.94,21.16,18.77Z"/>
        <path class="st17" d="M986.1,967.53c.33-2.21.61-4.42.82-6.65.32-3.2.68-6.71,2.02-9.52.68-1.4,1.61-2.65,2.88-3.61,1.62-1.2,3.55-1.77,5.55-2.04-.02,9.69-2.34,19.47-4.67,28.99,5.67-5.33,11.33-10.68,17-16.04-1.27,13.83-9.77,25.78-17.98,36.96,7.98-5.16,15.95-10.32,23.93-15.48-3.37,9.1-9.07,17.32-16.37,23.68,8.16-.15,16.32-.32,24.5-.47-7.86,5.55-16.78,9.53-26.16,11.69l.15.96c-1.53.24-3.04.47-4.57.71-1.97-8.18-8.52-13.26-15.97-15.01,4.24-10.99,7.22-22.48,8.85-34.13,0-.02,0-.05,0-.05Z"/>
        <path class="st21" d="M993.77,1024.09c-.19,4.23-1.34,7.78-3.16,10.68-4.43,7.11-12.84,10.21-20.95,9.56-5.77-.48-11.38-2.87-15.26-7.05-2.71-2.92-4.55-6.71-5.07-11.36-.17-1.46-.19-3-.06-4.62.37-7.75,3.91-13.21,8.83-16.48,5.47-3.68,12.66-4.65,19.15-3.11,7.45,1.75,14,6.83,15.97,15.01.55,2.24.77,4.69.55,7.38Z"/>
        <path class="st10" d="M978.45,979.09c3.51-3.07,6.16-7.1,7.64-11.51-1.63,11.65-4.61,23.14-8.85,34.13-6.49-1.55-13.68-.58-19.15,3.11-6.31-9.97-11.51-20.72-16.01-31.64-.97-2.31-1.91-4.69-3.05-6.94,9,7.6,16.36,17.16,21.4,27.83.9,1.9,2.79,4.2,4.59,3.13,1.13-.71,1.19-2.32,1.11-3.65-.91-14.11-1.85-28.21-2.76-42.32,2.59,10.73,5.17,21.46,7.76,32.16,1.63-4.85,3.26-9.7,4.9-14.57.8,3.41,1.63,6.85,2.43,10.27Z"/>
        <path class="st10" d="M969.66,1044.32c.03.95.07,1.9.11,2.85l-.38.02c-1.01,17.25-6.06,34.25-14.64,49.26-.77,1.33-1.61,2.69-2.94,3.46-1.33.75-3.26.65-4.11-.64-.58-.91-.46-2.09-.3-3.17,1.28-9.35,2.58-18.72,3.85-28.07-5.83,6.84-11.66,13.69-17.5,20.53-1.07,1.26-3.19,2.5-4.1,1.12-.5-.74-.13-1.76.23-2.57,5.38-11.65,10.73-23.32,16.11-34.97-15.24,6.55-31.16,11.45-47.45,14.57l-.02-.05c3.46-1.84,7.19-3.22,10.86-4.67,15.94-6.32,31.1-14.65,45-24.72,3.88,4.18,9.49,6.57,15.26,7.05Z"/>
        <path class="st17" d="M939.04,966.21v.02c1.14,2.25,2.08,4.63,3.04,6.94,4.5,10.92,9.7,21.67,16.01,31.64-4.92,3.27-8.46,8.73-8.83,16.48-.13,1.63-.1,3.17.06,4.62-11.91,2.17-23.88,4.14-35.91,5.49-5.39.61-11.38.85-16.37-.82l.06-.23c4.1-.03,8.94-.46,11.05-3.95.63-1.05.95-2.29,1.61-3.31,2.26-3.51,7.32-3.4,11.46-2.9-1.59-4.15-4.66-7.68-8.52-9.87,9.93,1.86,19.86,3.69,29.79,5.55-13.55-19.92-26.44-40.33-38.61-61.13,4-1.07,8.03-1.89,12.16-2.03,1.02-.03,2.04-.01,3.05.05,5.12.3,10.19,1.9,14,5.26,2.58,2.25,4.42,5.11,5.93,8.19Z"/>
        <path class="st17" d="M879,1021.75c4.18-1.71,8.55-2.53,13.07-2.48,2.23.02,4.53.24,6.69.8.78.21,1.97.46,2.2,1.36.26.97-.79,1.68-1.51,2.13-1.74,1.1-3.92,1.61-5.83,2.34-2.04.78-4.06,1.61-6.06,2.49-4.18,1.85-8.28,3.94-12.23,6.24-2.67,1.55-5.45,3.9-4.4,7.35,1.12,3.66,5.21,4.91,8.64,4.68,4.78-.32,9.61-1.57,14.32-2.41,4.83-.86,9.66-1.74,14.49-2.64,10.91-2.04,21.82-4.06,32.72-6.14-.52-1.24-1.05-2.49-1.57-3.73-19.14,10.82-39.62,18.5-60.99,23.55-2.55.6-1.46,4.41,1.08,3.9,21.75-4.39,42.83-12.77,61.97-23.93,2.06-1.2.64-4.18-1.57-3.73-19.41,3.96-38.77,8.23-58.17,12.23-2.22.46-4.95,1-6.98-.34-2.37-1.57-2.18-4.1-.04-5.72,1.56-1.18,3.42-2.01,5.15-2.91,2.13-1.1,4.29-2.15,6.48-3.14,4.17-1.88,8.49-3.33,12.69-5.1,2.4-1.01,5.49-3.32,4.13-6.31-.74-1.62-2.43-2.31-4.06-2.7-2.32-.56-4.76-.81-7.15-.83-4.8-.04-9.54,1.09-13.93,3-1.13.49-.31,2.5.85,2.02h0Z"/>
        <path class="st17" d="M1011.17,981.66c5.18-5.24,10.35-10.49,15.47-15.78,1.4-1.44-.83-3.67-2.2-2.2-5.03,5.39-10.01,10.82-14.98,16.27-1.05,1.15.61,2.84,1.72,1.72h0Z"/>
        <path class="st17" d="M1018.93,988.15c2.99-3.04,6.03-6.02,8.96-9.12.57-.6.65-1.66,0-2.25-.6-.55-1.67-.67-2.25,0-2.79,3.24-5.46,6.59-8.19,9.88-.36.44-.43,1.06,0,1.48.4.4,1.09.41,1.49,0h0Z"/>
        <path class="st17" d="M935.15,942.83c8.31,15.4,16.72,30.74,25.22,46.04.68,1.23,2.53.63,2.57-.7.12-4.12.26-8.14-.12-12.27-.36-4.01-.95-8-1.76-11.94-1.65-7.96-4.26-15.67-7.7-23.03-.89-1.91-3.71-.25-2.82,1.65,3.32,7.1,5.79,14.57,7.38,22.25,1.57,7.56,2.47,15.61,2.26,23.34l2.57-.7c-8.54-15.27-17.16-30.49-25.89-45.65-.64-1.11-2.33-.12-1.72,1h0Z"/>
        <path class="st17" d="M1011.91,1062.59c5.42,12.19,9.27,25.29,10.06,38.65.2,3.36.2,6.72.1,10.08-.07,2.32-.14,8.05-3.83,7.62-1.27-.15-2.19-1.62-3.2-2.32-1.05-.73-2.23-1.03-3.5-.87-2.72.34-4.84,2.38-7.27,3.47-6.89,3.1-14.75-1.9-15.06-9.36-.08-1.99-3.22-1.98-3.09,0,.41,6.47,5.16,12.01,11.72,12.75,3.49.39,6.6-.65,9.51-2.51,1.35-.86,2.84-1.99,4.48-2.16,2.16-.23,2.74,1.82,4.26,2.86,2.5,1.71,5.8.51,7.43-1.83,1.95-2.81,1.87-6.88,1.96-10.16.21-7.69-.58-15.47-2.23-22.98-1.89-8.6-5.04-16.73-9.63-24.24-.68-1.12-2.23-.14-1.72,1h0Z"/>
      </g>
      <g>
        <path class="st23" d="M1085.4,912.77c-4,6.4-8.03,12.8-12.03,19.23-.96,1.54-2.01,3.15-3.6,3.97-1.15.6-2.37.69-3.55.48-2.81-.53-5.55-2.87-7.69-5-2.57-2.57-5.17-5.09-7.86-7.55,1.78,1.74,3.48,3.55,5.06,5.48,5.32,6.56,9.25,14.21,11.41,22.36,1.74,6.68,2.03,14.68-2.8,19.65-3.67,3.8-9.28,4.8-14.46,5.85-9.43,1.92-18.68,4.64-27.64,8.11-6.32,2.47-13.05,5.37-19.63,3.74-6.76-1.67-11.65-7.9-13.66-14.6-.05-.14-.09-.28-.11-.41-1.86-6.55-1.53-13.51-1.16-20.33l-.26-.1c-.45,1.13-.98,2.24-1.61,3.31-3.86,6.3-11.26,9.98-18.65,10.48-10.27.76-20.77-4.36-26.56-12.9-4.16-6.16-5.84-13.73-6.05-21.15-.2-6.75.79-13.47,1.86-20.14-.92.05-1.87,0-2.83-.18-6.96-1.14-12.04-7.3-15.04-13.66-3.03-6.38-4.75-13.42-8.57-19.34-2.81-4.34-6.76-8.13-8.21-13.12-1.57-5.51.26-11.45,2.99-16.5,5.23-9.68,13.92-17.44,24.11-21.61,9.72-3.99,20.71-4.65,30.85-1.9-.23-4.56,1.56-9.29,3.61-13.49.22-.47.47-.94.74-1.39,5.34-10.56,12.73-20.08,21.56-27.94,2.49-2.25,5.36-4.42,8.71-4.67,2.8-.2,5.51,1.02,8.15,2.03,5.04,1.94,10.35,3.17,15.69,4.31.77.16,1.52.31,2.3.47,10.15,2.1,20.3,4.12,28.75,9.95,11.87,8.18,17.82,23.73,15.42,37.86-.45,2.81-1.27,5.57-2.44,8.2-1.92,4.31-4.6,8.15-7.76,11.58,8.06-3.85,17.83-3.88,25.92-.1h.03c.79.35,1.55.75,2.31,1.17,8.98,5.19,14.92,15.25,15.13,25.62.21,11.67-6.19,22.33-12.39,32.22Z"/>
        <path class="st16" d="M1080.32,853.75l-.63,1.42c-12.65,13.16-27.59,24.12-43.95,32.24,9.53,4.95,17.5,12.89,22.47,22.43-4.02-1.9-8.76-2.28-13.03-1.01,8.39,8.02,15.52,17.37,21.04,27.59v.03c-2.81-.53-5.56-2.86-7.69-5-2.57-2.57-5.17-5.09-7.86-7.55-.03,0-.05-.06-.1-.09-.74-.67-1.51-1.37-2.28-2.06-.08-.06-.15-.12-.23-.2-10.27-9.11-21.33-17.33-33.03-24.5,3.39-3.19,5.71-7.78,6.01-13.85.23-2.85-.04-5.44-.7-7.75,4.32-2.03,8.61-4,12.8-6.2,7.75-4.06,15.36-9.01,21.25-15.38,8.06-3.85,17.83-3.88,25.92-.1Z"/>
        <path class="st11" d="M1054.4,853.86c-5.89,6.36-13.51,11.32-21.25,15.38-4.2,2.2-8.48,4.17-12.8,6.2-2.34-8.34-9.75-13.16-17.69-14.15-1.71-17.07.08-34.45,5.28-50.79,1.97,15.59,4.37,31.14,7.27,46.6,2.77-4.13,5.55-8.25,8.32-12.38.91,4.84.46,9.96-1.32,14.55,2.35-2.58,5.45-4.5,8.84-5.45-.09,2.35-.16,4.67-.25,6.99,13.37-5.7,25.13-15.08,33.81-26.73-.45,2.81-1.27,5.57-2.44,8.2-1.92,4.31-4.6,8.15-7.76,11.58Z"/>
        <path class="st16" d="M1048.06,921.54c.08.09.15.14.23.2.77.7,1.54,1.39,2.28,2.06.05.03.08.09.1.09,1.78,1.74,3.48,3.55,5.06,5.48l-.03.03c-5.51-3.21-11.53-5.54-17.78-6.8,3.52,6.87,7.03,13.75,10.55,20.65-9.47-6.87-18.91-13.74-28.37-20.61,5.92,13.41,9.08,28.02,9.24,42.69-3.55-6.34-7.1-12.64-10.68-18.98.01,8.82-3.14,17.63-8.7,24.44,2.49-17.61.44-35.86-5.87-52.49,2,19.3-12.67,36.8-15.25,55.76-1.86-6.55-1.53-13.51-1.16-20.33l-.26-.1c1.12-2.82,1.72-5.9,2.1-8.93.32-2.47.53-4.94.63-7.45.36-7.52-.02-15.09.29-22.67.17-4.42.59-8.94,1.51-13.29,7.76,2.68,17.09,1.37,23.07-4.26,11.69,7.17,22.75,15.39,33.03,24.5Z"/>
        <path class="st21" d="M1021.05,883.19c-.3,6.07-2.62,10.65-6.01,13.85-5.98,5.63-15.31,6.93-23.07,4.26-5.8-1.99-10.73-6.22-12.68-12.56-.77-2.43-1.08-5.18-.84-8.22.25-5.23,2.02-9.39,4.71-12.47.23-.28.47-.57.73-.82,2.37-2.45,5.37-4.15,8.62-5.11,3.03-.95,6.3-1.23,9.5-.89.22.01.43.03.64.07,7.94.99,15.35,5.81,17.69,14.15.67,2.31.94,4.9.7,7.75Z"/>
        <path class="st11" d="M962.53,834.82c-.9-1.19-1.6-2.45-2.08-3.86-.46-1.33-.7-2.67-.75-4.02-.23-4.56,1.56-9.29,3.61-13.49.22-.47.47-.94.74-1.39l1.1.58c-1.42,4.13.23,8.81,3.05,12.15,2.79,3.37,6.57,5.69,10.17,8.19,10.29,7.08,19.87,16.53,23.65,28.24-3.2-.34-6.46-.05-9.5.89-.02-.06-.08-.09-.1-.14-4.99-7.51-12.17-13.32-19.61-18.41-3.68-2.56-7.68-5.16-10.27-8.71v-.03Z"/>
        <path class="st11" d="M990.17,937.26l-2.62-.11c-3.17-11.05-4.8-22.54-4.87-34.01-3.39,15.23-12.14,29.23-24.39,38.98,5.18-9.28,9.16-19.2,11.81-29.47-6.63,5.29-15.57,7.59-23.95,6.2,4.1-5.42,8.17-10.85,12.27-16.27.03,0,.03-.03.03-.03,6.35-4.2,12.65-8.43,19.02-12.62.59-.4,1.21-.82,1.81-1.21,1.95,6.34,6.88,10.58,12.68,12.56-.92,4.35-1.34,8.87-1.51,13.29-.31,7.58.07,15.15-.29,22.67Z"/>
        <path class="st16" d="M992.41,861.97c.02.06.08.09.1.14-3.25.96-6.25,2.66-8.62,5.11-1.36-6.39-6.92-11.25-11.85-15.78-4.83-4.44-9.74-10.24-9.51-16.58,2.59,3.54,6.59,6.15,10.27,8.71,7.44,5.09,14.62,10.9,19.61,18.41Z"/>
        <path class="st16" d="M958.46,902.57s0,.03-.03.03c-1.84,1.24-3.7,2.45-5.53,3.68-3.39,2.25-7.02,4.56-10.84,5.89-.69.25-1.38.45-2.09.6l-.3-1.18c2.87-10.02,10.97-18.38,20.91-21.57-7.03-4.31-14.06-8.65-21.09-12.96,6.25-.85,12.52-1.67,18.79-2.5.98-.13,1.99-.28,2.84-.82,2.62-1.7,1.64-5.9-.4-8.27-2.07-2.38-4.95-4.31-5.7-7.36,10.09.36,20.07,3.89,28.15,9.94-2.68,3.08-4.46,7.24-4.71,12.47-.25,3.04.07,5.79.84,8.22-.59.4-1.21.82-1.81,1.21-6.38,4.2-12.67,8.43-19.02,12.62Z"/>
        <path class="st16" d="M979.9,804.81c5.43,11.61,9.3,23.95,11.38,36.6.13.78,1.21.62,1.43,0,2.81-8.06,2.95-16.47,2.81-24.91-.14-8.46-.71-17.6,2.39-25.65h-3.13c1.26,3.61,2.37,7.59,4.22,10.94,1.5,2.72,4.6,4.04,7.3,2.07,1.26-.92,2.05-2.27,2.64-3.68.34-.81.84-2.82,1.87-3.07,1.12-.27,2.26,1.26,2.49,2.15.33,1.27.05,2.72.19,4.02.3,2.62,2.06,4.93,4.96,4.4,1.41-.26,2.64-1.06,3.62-2.09,1.09-1.15,2.01-3.07,3.61-3.58,1.26-.4,2.79.17,3.61,1.17,1.19,1.45.44,3.3-.12,4.85-.88,2.41-1.52,5.2.3,7.39,2.21,2.65,4.9.77,6.89-.99,1.58-1.39,4.1-2.62,6.17-1.57,1.44.73,2.29,2.87,1.09,4.17-1.06,1.16.71,2.9,1.72,1.72,1.64-1.92,1.44-4.45-.03-6.42-1.88-2.52-5.1-2.74-7.84-1.58-1.42.6-2.48,1.54-3.64,2.52-.59.5-1.33,1.17-2.11.7-.63-.38-.82-1.48-.83-2.15-.03-1.65.97-3.19,1.38-4.75.39-1.48.47-3.06-.23-4.46-1.09-2.21-3.63-3.59-6.08-3.35-1.43.14-2.62.86-3.63,1.86-1.11,1.1-2.23,3.47-3.97,3.65-1.72.17-1.37-1.97-1.31-3.08.07-1.47.22-2.93-.25-4.35-.93-2.82-3.9-5.25-6.98-4.52-1.82.43-3.12,1.78-3.92,3.41-.5,1.01-.95,3.72-2.11,4.23-1.25.55-2.33-3.11-2.71-3.95-1.07-2.33-2.17-4.64-3.32-6.93-.63-1.25-2.65-.93-2.97.39-2.05,8.41-2.02,16.69-1.59,25.28.43,8.58.98,17.51-1.9,25.76h1.43c-2.1-12.81-6-25.19-11.7-36.85-.36-.74-1.45-.09-1.11.65h0Z"/>
        <path class="st16" d="M965.67,851.77c-3.42-4.42-7.19-8.48-11.37-12.19-1.95-1.73-3.99-3.37-6.08-4.93-2.08-1.55-4.3-3.44-6.68-4.49-1.7-.74-3.75-.73-4.94.9-1.15,1.58-.79,3.83-.16,5.54,1.8,4.86,4.77,9.44,8.01,13.46.95,1.17,2.09,2.22,2.97,3.44.14.2.56.69.55.95-.05,1.11-1.63.62-2.16.52-.79-.15-1.58-.28-2.37-.39-3.64-.51-7.28-.97-10.92-1.49-1.02-.15-2.26.89-1.51,1.97,3.19,4.6,6.8,8.95,9.8,13.68.46-.79.91-1.59,1.37-2.38-4.55.25-9.24.91-13.71,1.81-2.86.58-6.16,2.15-6.36,5.46-.24,3.75,4,6.76,6.49,8.98,3.04,2.72,6.38,5.08,9.98,7.02,1.23.66,2.32-1.2,1.09-1.87-2.89-1.58-5.61-3.42-8.1-5.59-1.21-1.05-2.32-2.17-3.37-3.38-.94-1.08-2.77-2.79-2.61-4.38.23-2.35,4.45-2.6,6.15-2.88,3.64-.59,7.3-1.11,10.87-2.05,1.22-.32,1.45-1.77.7-2.65-3.63-4.25-6.73-8.98-10.18-13.39-.32.76-.63,1.53-.95,2.29,2.98.25,5.95.54,8.93.8,1.49.13,2.97.27,4.46.33.93.04,2.02.22,2.9-.16,1.65-.71,1.62-2.51.92-3.91-1.09-2.21-3.26-4-4.71-5.99-1.57-2.14-2.97-4.4-4.2-6.76-.96-1.83-2.94-4.85-2.38-7.05.82-3.23,6.1,1.09,7.45,2.06,2.23,1.6,4.38,3.31,6.47,5.1,4.52,3.87,8.73,8.15,12.56,12.7.66.79,1.71-.33,1.11-1.11h0Z"/>
        <path class="st16" d="M946.42,927.08c-1.45,1.78-2.79,3.63-3.97,5.6-.99,1.66-2.33,3.61-2.72,5.53-.36,1.78.89,3.24,2.69,3.18.8-.03,1.54-.35,2.2-.78.71-.47,1.51-1.42,2.44-1.01,2.45,1.07.57,4.51-.17,6.03-.89,1.82-1.73,3.85-1.14,5.9,1.07,3.7,5.52,4.67,8.29,2.22,1.01-.89-.46-2.32-1.47-1.47-1.4,1.17-3.53.89-4.45-.74-.99-1.76.22-3.83,1.02-5.41,1.34-2.67,2.4-6.21-.42-8.37-1.09-.83-2.41-.98-3.66-.4-.63.29-1.11.74-1.68,1.12-.22.15-.64.5-.95.46-.58-.08-.26-.46-.11-.88.6-1.73,1.71-3.43,2.65-4.98.97-1.61,2.01-3.18,3.13-4.69.72-.97-.92-2.24-1.68-1.3h0Z"/>
        <path class="st16" d="M956.1,956.14c-.79,2.29.37,4.71,2.21,6.12,2.5,1.91,5.74,1.71,8.6.77,5.65-1.87,10.87-5.74,14.2-10.7,1.2-1.79-1.67-4.06-3.02-2.33-2.85,3.65-6.08,6.81-10.13,9.12-2.06,1.18-4.48,2.29-6.92,1.9-2.02-.33-3.78-2.3-3.14-4.39.35-1.15-1.4-1.61-1.79-.49h0Z"/>
        <path class="st16" d="M1001.57,978.28c1.89,1.92,4.39,1.78,6.82,1.09,3.13-.9,6.05-2.08,9.3-2.55,6.71-.98,13.53-.24,20.26-.96,5.96-.64,12-2.47,16.29-6.88,3.71-3.82,5.85-9.11,4.32-14.37-.44-1.51-2.66-.88-2.34.65,1,4.85-1.54,9.67-5.22,12.71-4.33,3.58-10.38,4.5-15.81,4.82-5.63.33-11.28,0-16.88.73-2.72.36-5.34.94-7.88,2-2.28.96-5.42,2.92-7.86,1.49-.8-.47-1.65.62-.99,1.28h0Z"/>
        <path class="st16" d="M1069.76,927.33c3.19-3.99.53-8.12-2.01-11.57-1.6-2.19-3.28-5.19-1.64-7.85,1.76-2.85,4.82-1.21,7.29-.56,2.94.77,7.87-.42,7.15-4.4-.37-2.05-2.3-3.24-3.88-4.34-1.23-.86-2.46-1.71-3.71-2.56-.72-.49-3.46-1.8-3.44-2.7.01-.66,1.02-.66,1.64-.78.9-.19,1.81-.37,2.71-.55,1.58-.32,3.16-.64,4.74-.97,3.39-.69,6.78-1.38,10.17-2.07,1.44-.29.83-2.48-.61-2.2-5.99,1.19-12,2.34-17.98,3.58-1.67.35-3.66,1.22-3.29,3.31.38,2.14,3.51,3.63,5.06,4.76,1.22.88,2.45,1.75,3.68,2.61.79.55,2.6,1.57,2.32,2.75-.57,2.42-4.89.59-6.13.19-2.23-.71-4.52-.84-6.48.6-1.76,1.29-2.71,3.35-2.78,5.51-.1,3.02,1.48,5.53,3.24,7.84,1.64,2.16,4.27,5.48,2.39,8.22-.62.91.84,2.07,1.54,1.19h0Z"/>
      </g>
      <g>
        <polygon class="st4" points="385.17 1116.39 611.77 1130.64 650.36 635.36 491.65 621.88 385.17 1116.39"/>
        <path class="st12" d="M489.12,632.54s90.1,69.47,110.55,128.65c20.45,59.17,24.49,210.48,24.49,210.48l27.04-349.66-160.83-9.43-1.26,19.96Z"/>
        <g>
          <path class="st19" d="M412.24,265.35c-.09-10.06,1.29-20.03,4.8-30.23,9.4-27.48,36-31.99,48.46-32.53,4.04-.18,6.62.03,6.62.03,1.12-28.3,56.65-66.78,162.22-48.83,105.6,17.95,129.5,67.06,142.94,93.61,13.44,26.55-27.1,202.02-36.48,221.66-7.16,14.9-25.38,22.67-33.64,25.52-.36-.62-.75-1.23-1.17-1.8,0,0-17.43-14.96-82.23-29.27-34.41-7.6-69.93-12.23-95.71-14.92,0,0-.26-.04-.78-.09-22.3-2.29-37.05-3.13-37.05-3.13-.3.31-.56.64-.74.97l-.51-.36c-13.01-.57-42.94-51.43-56.5-96.39-9.75-32.29-19.9-58.53-20.23-84.24Z"/>
          <path class="st19" d="M463.35,598.19c1.83-21.47,9.75-94.67,12.43-105.47,2.72-10.77,10.5-18.34,10.5-18.34,0,0,27.05,1.18,64.32,6.08.04.03.08.03.08.03,19.88,2.65,42.72,6.32,65.9,11.48,66.62,14.84,86.32,34.49,86.32,34.49,0,0,8.94,4.37,5.21,19.57-3.76,15.2-14.37,84.63-19.59,95.66-5.18,11.06-11.17,19.58-27.65,17.68,0,0-40.25-15.59-135.07-31.56-.04,0-.08-.03-.11-.02-6.29-1.07-12.84-2.14-19.65-3.19-8.81-1.35-18.03-2.73-27.68-4.1,0,0-5.26-.28-9.58-4.23-3.4-3.15-6.23-8.6-5.42-18.07Z"/>
          <path class="st24" d="M489.48,446.34c.19-.33.44-.66.74-.97,0,0,14.76.84,37.05,3.13.52.05.78.09.78.09,25.78,2.69,61.3,7.32,95.71,14.92,64.81,14.31,82.23,29.27,82.23,29.27.43.57.82,1.19,1.17,1.8,5.93,9.9,4.2,23.52-4.27,31.86,0,0-19.71-19.64-86.32-34.49-23.18-5.16-46.02-8.84-65.9-11.48,0,0-.04,0-.08-.03-37.27-4.9-64.32-6.08-64.32-6.08-4.47-8.88-3.18-20.09,3.2-28.03Z"/>
          <path class="st24" d="M555.07,285.61c-7.99-2.35-15.74-5.09-22.82-9.56-6.71-4.24-12.73-9.68-17.39-16.12-5.23-7.24-8.89-15.44-12.68-23.49-3.54-7.52-7.25-14.69-12.6-21.1-5.56-6.65-12.31-12.61-20.6-15.53-1.82-.64-2.49,2.13-.78,2.84,7.51,3.09,13.74,8.37,18.35,15.04,4.67,6.76,8.27,14.32,11.76,21.73,3.79,8.05,7.57,16.19,12.94,23.34,4.9,6.52,11.01,12.02,17.97,16.28,7.67,4.68,16.53,8.16,25.56,8.77,1.29.09,1.47-1.85.3-2.19h0Z"/>
          <path class="st24" d="M519.31,181.39c-7.26,4.45-13.57,10.46-18.57,17.34-4.9,6.74-8.94,14.71-10.46,22.95-.35,1.91,2.5,2.75,2.94.81,1.82-7.96,4.56-15.38,9.12-22.2,4.69-7.02,10.78-12.85,17.73-17.6.79-.54.08-1.81-.76-1.3h0Z"/>
          <path class="st24" d="M523.07,211.37c-4.89,1.02-9.56,2.4-14.22,4.22-2.21.86-4.41,1.78-6.58,2.74-2.25,1-4.7,1.94-6.75,3.29-1.14.75-.45,2.88.99,2.34,2.28-.85,4.45-2.11,6.67-3.1,2.19-.98,4.4-1.9,6.63-2.77,4.54-1.76,9.14-3.43,13.74-5.02,1.07-.37.65-1.94-.47-1.71h0Z"/>
          <path class="st24" d="M529.18,226.24c-9.71-.66-19.37,1.31-28.17,5.41-1.24.58-.16,2.41,1.07,1.83,8.46-3.94,17.79-5.71,27.1-5.54,1.1.02,1.08-1.63,0-1.7h0Z"/>
          <path class="st8" d="M711.77,469.02c-3.81-1.65-7.52-3.52-11.36-5.14-3.84-1.63-7.71-3.2-11.6-4.73-7.87-3.1-15.82-6-23.81-8.77-15.91-5.52-31.98-10.54-48.2-15.06-8.03-2.24-16.14-4.21-24.16-6.49-7.44-2.12-14.83-4.66-21.49-8.68-5.98-3.61-11.45-8.46-14.77-14.68-3.48-6.51-4.31-14.2-3.36-21.44,2.29-17.57,14.61-31.73,25.65-44.73.58-.69-.38-1.68-1-1-10.48,11.6-21.39,23.74-26.07,39-2.19,7.14-2.95,14.93-1.26,22.26,1.62,7.05,5.57,13.36,10.94,18.17,12.09,10.84,28.43,14.38,43.68,18.4,16.94,4.47,33.74,9.47,50.39,14.94,9.32,3.06,18.59,6.27,27.81,9.62,4.65,1.69,9.31,3.37,13.95,5.09,4.62,1.71,9.34,3.21,13.93,5.01,1,.39,1.74-1.32.74-1.76h0Z"/>
          <path class="st8" d="M593.31,300.13c-.09-8.25-2.55-16.34-6.98-23.29-2.24-3.51-4.96-6.73-8.07-9.51-1.6-1.42-3.37-2.65-4.9-4.16-1.62-1.59-3.69-4.78-1.65-6.92,1.37-1.44,3.89-.92,5.62-.65,2.07.32,4.19.77,6.3.6,3.97-.33,7.75-2.38,9.98-5.71,2.34-3.48,2.57-8.17.68-11.9-1.63-3.22-4.66-5.42-6.96-8.12-.93-1.09-1.83-2.37-1.9-3.84-.1-2.01,1.45-3.57,2.92-4.72,3.5-2.72,7.66-4.96,11.56-7.05,4.28-2.3,8.75-4.15,13.53-5.12,5.01-1.02,10.18-1.08,15.26-.79,10.1.58,20.19,2.35,30.12,4.22,9.83,1.85,19.57,4.15,29.21,6.81,10.64,2.94,21.16,6.34,31.5,10.21,10.6,3.97,20.89,8.6,31.2,13.26,1.47.67,2.78-1.44,1.29-2.21-18.04-9.37-37.52-16.49-56.97-22.3-19.69-5.88-40-10.42-60.41-12.89-10.16-1.23-20.52-1.24-30.14,2.67-4.65,1.89-8.99,4.38-13.26,7-3.37,2.07-7.63,4.26-9.02,8.24-2.85,8.12,7.95,11.35,9.5,18.09,1.07,4.67-2.06,8.94-6.49,10.22-3.96,1.15-7.99-1.13-11.91.07-4.19,1.27-5.39,6.05-3.1,9.56,1.35,2.07,3.43,3.42,5.33,4.93,1.91,1.52,3.69,3.21,5.33,5.03,6.95,7.74,11.01,17.84,11.16,28.25.01.82,1.29.83,1.28,0h0Z"/>
          <path class="st1" d="M732.68,443.29s34.94-133.64,28.08-160.6-68.58-53.27-113.27-52.82c0,0,58.55,44.84,66.75,87.94,8.2,43.1,18.45,125.48,18.45,125.48Z"/>
          <path class="st24" d="M472.13,202.63c1.9-25.08,31.12-39.92,52.29-47.13,51.63-15.89,113.96-8.47,164.4,9.13,42.31,15.31,73.05,40.75,91.67,82.22,0,0,.95,2.58.95,2.58l.53,2.48c2.12,12.78.74,25.02-.37,37.63-4.04,36.73-11.86,72.9-20.15,108.83-6.18,23.73-11.37,47.95-20.64,70.7,7.89-23.2,12.3-47.48,17.45-71.41,7.4-35.96,13.98-72.17,17.51-108.69.92-11.73,2.06-24.32,0-35.77l-.45-2.02-.68-1.73c-17.92-39.51-47.74-63.98-88.07-78.78-49-17.38-110.54-26.25-161.21-12.06-21.19,6.26-49.94,19.58-53.24,44.01h0Z"/>
          <path class="st24" d="M604.38,466.54c-15.21-1.84-17.25,17.89-2.09,19.73,43.96,5.33,64.64,56.14,56.23,95.77-8.37,39.46-51.42,68.7-91.7,53.67-14.38-5.36-14.89,15.59-.56,20.93,23.23,8.67,49.94,6.86,71.62-5.39,24.33-13.75,38.49-38.49,43.93-65.36,10.96-54.11-19.51-112.33-77.44-119.35Z"/>
          <path class="st24" d="M699.32,534.96c-.82,30.07-5.26,59.97-14.56,88.62-1.29,3.96-2.66,7.9-4.11,11.8-1.49,4-3.25,7.92-4.67,11.94-.48,1.35,1.69,2.27,2.32.98,3.3-6.74,5.67-14.11,8.03-21.22,2.38-7.18,4.48-14.45,6.3-21.79,3.66-14.68,6.18-29.65,7.56-44.71.78-8.54,1.01-17.04.86-25.62-.02-1.11-1.69-1.11-1.72,0h0Z"/>
          <path class="st24" d="M494.14,481.94c11.14,2.75,22.61,4.43,33.92,6.31,11.13,1.86,22.25,3.81,33.41,5.56,11.3,1.77,22.59,3.65,33.88,5.53,9.7,1.62,19.7,3.41,27.97,9.06,7.8,5.32,13.18,13.33,17.12,21.78,4.03,8.64,6.62,18.07,7.46,27.57,1.65,18.55-3.09,37.95-15.47,52.19-12.61,14.5-32.16,23.53-51.52,20.92-1.56-.21-2.23,2.18-.66,2.39,17.61,2.37,35.29-4.15,48.36-15.95,14.09-12.73,21.43-31.08,21.92-49.9.51-19.23-5.52-39.33-17.99-54.14-6.54-7.78-15.22-12.49-24.98-14.99-11.01-2.83-22.48-4.06-33.67-5.93-11.83-1.98-23.68-3.88-35.52-5.79-11.74-1.89-23.48-3.97-35.27-5.46-2.9-.37-5.79-.71-8.7-.95-1.05-.09-1.25,1.58-.25,1.82h0Z"/>
          <path class="st8" d="M484.01,430.27c-4.98-8.39-9.18-17.35-13.08-26.28-3.94-9.01-7.41-18.21-10.66-27.49-6.6-18.84-12.65-37.96-18.13-57.15-5.72-20.03-10.11-40.65-9.58-61.59.13-5.06.52-10.13,1.3-15.13.37-2.41.8-4.83,1.27-7.23.35-1.77,1.08-3.93,3.21-2.35,1.7,1.26,2.1,3.89,2.65,5.8.79,2.7,1.55,5.41,2.31,8.12,1.46,5.19,2.96,10.37,4.45,15.55,1.62,5.62,2.83,11.45,4.77,16.97,1.26,3.57,4.46,7.27,8.68,5.68,2.05-.78,2.85-2.69,3.13-4.73.39-2.86.62-5.75.94-8.62.66-6.08,1.41-12.15,1.96-18.24-.82.22-1.65.45-2.47.67,2.27,3.35,4.62,7.01,8.32,8.95,3.23,1.69,7.31,1.99,10.38-.19,1.33-.94.04-3.15-1.28-2.2-6.29,4.55-12.2-3.19-15.12-7.91-.75-1.21-2.31-.57-2.47.67-.71,5.48-1.25,10.99-1.86,16.48-.29,2.57-.56,5.14-.86,7.72-.24,2.12-.41,5.82-3.53,4.51-1.99-.84-2.68-3.29-3.24-5.18-.77-2.65-1.49-5.31-2.23-7.97-1.46-5.19-2.85-10.4-4.26-15.61-1.41-5.2-2.89-10.39-4.28-15.6-1.03-3.85-2.21-8.54-6.79-9.36-4.86-.86-6.53,4.04-7.38,7.8-1.13,5.01-1.72,10.2-2.09,15.32-1.5,20.8,2.12,41.64,7.43,61.68,5.21,19.65,11.59,39.08,18.2,58.3,3.6,10.46,7.5,20.85,12.1,30.91,4.63,10.12,10.03,19.62,16.22,28.86.83,1.24,2.8.13,2.02-1.18h0Z"/>
          <path class="st24" d="M468.78,616.25c4.32,3.95,9.58,4.23,9.58,4.23,9.65,1.37,18.87,2.75,27.68,4.1,6.8,1.05,13.35,2.12,19.65,3.19.04,0,.08.03.11.02,94.83,15.97,135.07,31.56,135.07,31.56,0,0,3.91,17.98-3.98,20.49-7.86,2.5-67.6-16.87-91.71-21.52-24.12-4.68-40.97-22.52-40.97-22.52,0,0-.03.04-.14.08-1,.62-8.12,4.97-16.82,7.11-3.88.99-8.07,1.53-12.18,1.09-14.15-1.38-28.57-3.22-26.3-27.83Z"/>
        </g>
      </g>
      <g>
        <path class="st15" d="M599.53,1129.87l253.18-15.7s78.5-317.1,89.8-367.92c11.3-50.82,23.54-72.51,27.94-107.64,0,0,5.65-19.39,15.48-49.29,9.83-29.9,15.69-58.06,10.46-77.36-5.23-19.3-4.02-39.16-13.68-59.28-9.66-20.12-10.05-30.41-21.45-36.4-11.4-5.99-37.4-1.65-37.4-1.65,0,0-22.65-17.24-40.59-10.46,0,0-5.22-13.66-12.97-13.68,0,0,4.35-13.76-4.79-20.62-9.14-6.86-17.46,7.57-32.21,12.36,0,0-5.16-8.94-17.26-3.2-12.11,5.74-21.61,22.78-21.61,22.78,0,0-7.82,1.61-12.49,14.13-4.67,12.53-8.62,66.77-12.24,88.89-3.63,22.12,12.42,29.32,22.39,38.92,9.97,9.6,28.34,41.9,30.31,58.72,1.97,16.81,4.35,11.61,5.01,29.59.66,17.98-227.87,497.8-227.87,497.8Z"/>
        <path class="st18" d="M884.34,512.46s23.4,8.1,29.66,2.21c0,0,15.04,6.31,26.47-5.9,11.43-12.21,9.48-41,15.67-51.6,6.19-10.6,16.74-14.28,15.03-7.55s-11.78,19.2-10.96,26.16c.82,6.97,10.07-2.36,16.07,2.04s-7.48,6.13-13.45,16.77c-5.97,10.64,7.79,12.49,13.64,22.73,5.85,10.25-12.1,3.16-29.48,4.4-17.38,1.24,7.26,16.62,3.48,47.16,0,0-19.36-29.9-50.73-30.55,0,0-3.05-13.96-15.41-25.88Z"/>
        <path class="st18" d="M860.37,624.08s29.37-15.23,73.7-4.67c0,0-67.19,16.45-87.28,37.39,0,0,4.8-15.74,18.44-23.46,13.65-7.72-4.86-9.27-4.86-9.27Z"/>
        <path class="st18" d="M788.73,725.26s-54.47,145.71-62.85,206.15c-8.38,60.43,55.04,187.21,55.04,187.21l-181.39,11.25,189.2-404.6Z"/>
        <path class="st18" d="M814.62,578.15c-1.75-7.68-5.66-14.94-9.98-21.48-4.26-6.45-9.4-12.21-15.03-17.49-5.52-5.17-11.15-10.28-14.6-17.14-3.58-7.12-3.97-15.29-3.55-23.1.46-8.47,1.74-16.92,2.73-25.34,1.07-9.11,2.02-18.23,3.18-27.33,1.89-14.79,3.49-30.96,15.7-41.17,11.83-9.89,27.93-12.57,40.11-22,1.21-.94-.39-3.02-1.65-2.14-11.51,8.1-25.71,11.08-37.24,19.14-5.83,4.07-10.41,9.44-13.29,15.96-3.17,7.16-4.56,14.87-5.6,22.59-2.43,17.96-5.14,35.9-7.3,53.9-.97,8.06-1.5,16.31.25,24.3,1.71,7.8,6.03,14.13,11.57,19.75,6.2,6.31,12.97,11.86,18.57,18.76,5.87,7.24,10.01,15.35,14.39,23.52.52.98,1.97.29,1.74-.73h0Z"/>
        <path class="st18" d="M871.02,389.28c-.94,2.21-2.38,4.25-3.51,6.37-1.15,2.15-2.36,4.29-3.62,6.38-2.56,4.23-5.46,8.28-8.7,12.02-6.54,7.54-14.21,13.53-22.76,18.62-4.81,2.87-9.87,5.28-15.13,7.21-2.07.76-1.28,3.88.92,3.35,20.23-4.9,37.98-18.94,48.55-36.77,1.48-2.5,2.83-5.06,3.96-7.75,1.17-2.78,1.71-5.6,2.56-8.47.39-1.31-1.7-2.27-2.26-.95h0Z"/>
        <path class="st18" d="M826.7,439.56c1.16,1.88,1.44,4.73,1.3,6.89-.16,2.38-1,4.73-2.27,6.74-2.81,4.47-7.49,7.45-11.87,10.2-1.73,1.09-.16,3.81,1.61,2.75,5.13-3.08,10.43-6.64,13.38-12.03,1.32-2.4,2.11-5.11,2.19-7.86.04-1.38-.13-2.82-.53-4.15-.43-1.43-1.25-2.37-2.14-3.52-.73-.95-2.33-.12-1.66.97h0Z"/>
        <path class="st18" d="M825.48,456.2c.94,2.57,1.67,5.22,2.62,7.8.99,2.67,2,5.34,2.96,8.03.93,2.59,1.87,5.18,2.78,7.79.86,2.47,1.42,5.67,3.04,7.74,1.03,1.31,3.09.15,3.11-1.29.02-1.37-.58-2.62-1.03-3.89-.46-1.3-.93-2.6-1.4-3.89-.98-2.69-1.99-5.36-3.05-8.02-1.01-2.52-2.04-5.04-3.11-7.53-1.13-2.63-2.53-5.07-3.77-7.63-.57-1.18-2.6-.35-2.14.9h0Z"/>
        <path class="st18" d="M831.78,474.56c3.23,2.21,6.18,4.83,9.41,7.05,3.22,2.21,6.42,4.46,9.61,6.71,6.36,4.49,12.63,9.14,18.5,14.26,10.83,9.46,20.17,20.48,26.67,33.36,3.63,7.19,6.33,14.92,7.38,22.93.23,1.75,2.94,1.86,2.83,0-1.93-31.38-25.05-55.28-49.72-72.12-3.74-2.55-7.55-4.99-11.42-7.35-3.98-2.42-8.21-4.31-12.22-6.63-1.16-.67-2.12,1.04-1.04,1.78h0Z"/>
        <path class="st18" d="M955.61,578.66c-1.39-4.58-3.09-8.86-5.75-12.88-2.58-3.89-5.59-7.51-8.95-10.75-6.87-6.62-15.24-11.71-24.29-14.73-5.12-1.71-10.4-2.61-15.78-2.89-2.37-.12-2.34,3.51,0,3.67,17.78,1.18,34.86,11.02,45.19,25.46,2.87,4.01,5.65,8.41,7.66,12.92.49,1.09,2.26.32,1.92-.81h0Z"/>
        <path class="st18" d="M958.24,414.18c-4.29.82-9.13.12-13.43-.45-3.74-.5-7.48-1.14-11.26-1.09-6.59.09-13.67,2.01-17.43,7.85-2.04,3.17-2.68,6.96-3.13,10.63-.52,4.3-.93,8.61-1.35,12.92-.87,9.08-1.8,18.14-2.82,27.2-1.01,9.04-2.08,18.08-3.09,27.13-.42,3.73-.65,7.58.82,11.12,1.2,2.88,3.32,5.22,5.92,6.91,5.56,3.6,12.55,3.31,18.36.56,6.67-3.15,11.35-9.28,14.35-15.85,3.85-8.45,6.09-17.66,8.8-26.52,2.98-9.71,5.88-19.43,8.68-29.2.54-1.89-2.41-2.7-2.94-.81-4.44,15.68-8.72,31.48-13.91,46.93-2.28,6.78-5.43,13.59-10.78,18.5-4.56,4.18-11.04,6.8-17.15,4.71-2.57-.87-5.1-2.45-6.72-4.65-2.11-2.86-2.2-6.41-1.92-9.83.69-8.29,1.83-16.56,2.78-24.81.94-8.14,1.88-16.28,2.92-24.41.54-4.19,1.12-8.37,1.65-12.56.48-3.79.71-7.69,1.7-11.39.93-3.5,2.89-6.26,6.13-7.93,2.93-1.51,6.38-1.92,9.64-1.93,3.96-.02,7.89.63,11.82.94,4.59.36,8.67-.01,12.95-1.8,1.32-.55.86-2.45-.6-2.17h0Z"/>
        <path class="st18" d="M950.61,493.08c3.25-2.08,6.78-3.9,10.23-5.65,3.46-1.76,7.06-3.21,10.75-4.43,2.1-.69,1.19-4.04-.92-3.33-3.89,1.32-7.66,2.97-11.27,4.92-1.74.94-3.45,1.97-5.07,3.1-1.72,1.2-3.24,2.58-4.83,3.94-.79.68.24,2,1.11,1.44h0Z"/>
        <path class="st18" d="M925.38,414.42c-2.81-3.48-7.09-6.21-10.93-8.43-3.9-2.26-8.26-3.99-12.71-4.75-7.83-1.33-16.38.3-22.43,5.66-6.29,5.56-7.76,14.53-8.32,22.47-.73,10.16-.77,20.39-1.23,30.57-.54,12.11-1.03,24.23-1.74,36.33-.11,1.87,2.85,1.88,2.92,0,.69-19.99,1.75-39.99,2.93-59.96.45-7.7.79-15.91,5.24-22.53,4.21-6.25,11.62-8.8,18.91-8.46,4.66.22,9.11,1.63,13.32,3.59,4.43,2.07,8.32,5.18,12.74,7.19,1.13.51,2.08-.72,1.3-1.68h0Z"/>
        <path class="st18" d="M883.37,505.31c2.82,1.21,5.91,1.69,8.95,1.95,1.51.13,3.03.2,4.55.16,1.52-.04,3.23,0,4.66-.58,1.85-.75,1.5-3.13-.46-3.39-1.38-.18-2.82.13-4.21.2-1.46.08-2.92.13-4.38.09-2.85-.07-5.66-.5-8.5-.68-1.14-.07-1.72,1.77-.61,2.24h0Z"/>
        <path class="st18" d="M838.76,432.37c-.96,7.94-.24,15.94.42,23.88.33,3.92.7,7.83,1.11,11.74.42,3.96.76,8.01,1.68,11.9.52,2.19,3.98,1.72,3.93-.53-.08-3.91-.68-7.82-1.1-11.71-.44-4.02-.83-8.05-1.18-12.08-.68-7.85-.99-15.76-2.62-23.49-.29-1.36-2.09-.87-2.24.3h0Z"/>
        <path class="st18" d="M964.94,639.41c-3.81,2.1-7.78,4.03-11.76,5.79-4.01,1.77-8.18,3.09-12.27,4.63-1.82.68-1.13,3.38.81,2.94,4.39-.98,8.59-2.77,12.64-4.69,4.13-1.95,7.91-4.25,11.6-6.93,1.03-.75.14-2.38-1.02-1.74h0Z"/>
        <path class="st23" d="M834.27,380.77s-3.12,7.88,3.62,14.24c0,0,17.41-3.61,24.97-10.88,7.55-7.27,9.05-9.65,7.12-14.43-1.93-4.78-5.77-5.95-5.77-5.95,0,0-22.06,13.02-29.94,17.03Z"/>
        <path class="st5" d="M788.4,439.12s-2.64,49.24-5.62,66.59c-2.98,17.36,17.96,37.43,29.34,49.2,0,0-9.19-34.64-11.31-52.66-2.12-18.02-12.41-63.14-12.41-63.14Z"/>
        <path class="st5" d="M897,410.2s-14.29,6.8-15.89,22.12c-1.6,15.32-3.64,49.13-3.64,49.13,0,0,5.74-43.2,14.96-49.14,9.23-5.94,19.15-16.66,19.15-16.66l-14.58-5.45Z"/>
        <path class="st5" d="M936.09,424.94s-11.32-3.31-13.84,16.49c-2.52,19.8-7.33,54.8-7.33,54.8,0,0,12.65-16.53,16.12-30.62,3.47-14.1,5.06-40.66,5.06-40.66Z"/>
      </g>
      <g>
        <path class="st17" d="M272.6,962.39c-75.23-49.1-132.74-123.79-160.52-209.29-2.14-6.58-12.81-4.44-10.64,2.23,22.24,68.44,62.48,130.59,116.18,178.57,15.36,13.72,31.67,26.27,48.92,37.52,5.87,3.83,11.93-5.2,6.06-9.02Z"/>
        <path class="st16" d="M158.32,714.24c-.62-3.76-1.27-7.57-1.78-11.36-1.72-12.92-1.31-27.13,6.64-37.47-7.27,2.49-13.88,6.84-19.01,12.55-.68-2.84-1.49-5.87-3.77-7.61-.75-.57-1.58-.92-2.46-1.12-2.82-.74-6.15.13-9.05,1.11-3.27,1.06-6.78,2.37-9.19,4.6-.15-1.72-.19-3.48-.12-5.22-4.82.22-9.6.4-14.42.58-4.26.18-8.63.39-12.88,1.02-3.76.51-7.38,1.32-10.82,2.71-6.2-1.47-12.98-.29-18.34,3.17-1.94,1.22-3.75,2.78-5.95,3.43-2.5.7-5.15.12-7.75.03-5.69-.21-11.29,1.9-16.07,4.99-4.81,3.05-8.94,7.07-12.99,11.03,4.68,5.51,9.33,11.02,14.01,16.49l-.02.26c-2.49-.08-5.11-.54-7.62-.81-4.55-.47-9.92.2-12.33,4.07,9.06,2.32,16.63,8.64,22.51,15.91,1.49,1.84,2.89,3.76,4.22,5.7,3.96,5.72,7.41,11.83,11.18,17.69,7.5,11.68,16.56,22.72,28.28,30.13,10.17,6.45,22.66,9.96,34.46,8.2,1.8-.26,3.58-.63,5.33-1.15l.77-.44s.04-.03.04-.07c.24-.28.44-.53.68-.81.24-.25.48-.49.72-.77,5.53-6.25,13.39-10.26,19.84-15.7,9.92-8.43,16.46-20.72,17.87-33.67,1.02-9.14-.42-18.28-2-27.43ZM153.75,743.08c-.02-1.98-.01-3.95.11-5.92.17,1.99.12,3.96-.11,5.92Z"/>
        <path class="st14" d="M153.87,737.02c.45-7.76,1.94-15.45,4.45-22.78,1.59,9.15,3.02,18.29,2,27.43-1.41,12.95-7.96,25.24-17.87,33.67-6.45,5.44-14.3,9.46-19.84,15.7-.24.28-.48.53-.72.77.24-.28.45-.61.69-.89,9.29-11.52,18.57-23.94,20.16-38.63,1.54-14.39-4.62-28.38-10.84-41.43-4.12-8.6-8.4-17.48-10.69-26.64,6.01,8.69,13.69,16.25,20.17,24.62,6.37,8.26,11.76,17.99,12.5,28.17ZM153.86,737.17c-.12,1.97-.14,3.94-.11,5.92.23-1.96.28-3.93.11-5.92Z"/>
        <path class="st14" d="M131.9,710.87c6.22,13.06,12.38,27.04,10.84,41.43-1.59,14.69-10.87,27.11-20.16,38.63-.24.28-.45.6-.69.89-.24.28-.44.53-.68.81,0,.04-.04.03-.04.07l-.77.44c-1.75.52-3.52.9-5.33,1.15l-.24-2.1c-11.84-1.83-22.8-9.44-30.51-18.91-8.89-10.88-14.32-23.96-19.84-36.9,14.14,10.98,27.54,22.85,40.12,35.56-5.9-23.54-11.75-47.08-17.61-70.62,11.79,17.5,22.21,35.93,31.18,55.08,2.26-12.23,2.79-24.78,1.51-37.12,4.41,8.06,8.86,16.16,13.3,24.23.71-10.76.06-21.64-2-32.24l.92-.43Z"/>
        <path class="st14" d="M64.47,736.39c5.52,12.94,10.95,26.02,19.84,36.9,7.71,9.46,18.67,17.08,30.51,18.91l.24,2.1c-11.81,1.75-24.29-1.75-34.46-8.2-11.72-7.4-20.78-18.44-28.28-30.13-3.77-5.86-7.22-11.96-11.18-17.69,2.83,1.74,5.63,3.48,8.46,5.23.5.33,1.12.63,1.69.44.91-.32.89-1.66.69-2.6l-3.06-13.6c1.86,1.83,3.72,3.66,5.58,5.49.55-6.37.39-12.79-.51-19.1,3.42,6.06,6.33,12.5,9.06,18.9.49,1.11.98,2.22,1.43,3.37Z"/>
        <path class="st20" d="M81.47,674.02c-1.11.45-2.18.98-3.26,1.55-6.75,3.67-11.78,9.69-17.89,14.33-6.1,4.61-14.35,7.81-21.34,4.69,3.95,3.6,7.34,7.65,10.35,12.01-.65.33-1.24.7-1.82,1.11-2.38,1.68-4.52,3.78-7.2,4.84-1.91.74-3.9.95-5.94.86l.02-.26c-4.68-5.47-9.33-10.98-14.01-16.49,4.05-3.95,8.18-7.98,12.99-11.03,4.78-3.09,10.38-5.2,16.07-4.99,2.6.09,5.25.67,7.75-.03,2.2-.64,4.01-2.21,5.95-3.43,5.36-3.46,12.14-4.64,18.34-3.17Z"/>
        <path class="st23" d="M54.3,703.05c12.82,13.27,23.7,28.93,31.52,45.65,1.09,2.33,4.42.61,3.96-1.67-2.92-14.17-6.41-28.32-10.12-42.31-.88-3.32-1.98-6.66-2.62-10.04-.29-1.54-.47-3.57.33-4.99.89-1.56,2.55-2,4.15-1.23,2.64,1.27,4.95,4.12,6.92,6.21,2.41,2.55,4.64,5.26,6.69,8.1.41.56,1.05.78,1.7.44,2.27-1.19,2.42-3.75,2.14-6.04-.17-1.38-.56-2.68-.1-4.06.16-.47.5-1.41,1.11-1.42.72-.01,1.22,1.52,1.43,2,3.38,7.59,6.58,15.27,9.85,22.9.75,1.75,3.37.24,2.58-1.51-2.03-4.47-4.05-8.93-6.08-13.4-.97-2.13-1.94-4.25-2.9-6.38-.76-1.68-1.33-3.92-2.73-5.21-2.21-2.05-4.79-.23-5.62,2.15-.47,1.36-.43,2.68-.2,4.07.24,1.45.85,3.91-.75,4.76.57.15,1.13.3,1.7.44-3.48-4.79-7.39-9.31-11.83-13.24-1.68-1.48-3.71-2.94-6.07-2.72-2.16.21-3.82,1.76-4.87,3.56-1.43,2.45-1.18,5.12-.69,7.82.58,3.2,1.31,6.38,1.98,9.57,1.37,6.53,2.9,13.02,4.43,19.51,1.74,7.39,3.41,14.82,5.38,22.16,1.32-.56,2.64-1.11,3.96-1.67-4.43-8.36-9.37-16.43-15.02-24.03-5.61-7.56-11.88-14.49-18.62-21.06-1.06-1.03-2.65.56-1.63,1.63h0Z"/>
      </g>
      <g>
        <path class="st23" d="M258.22,1033.2c-8.25,3.15-14.49,9.96-20.24,16.66-5.75,6.72-11.6,13.75-19.54,17.61-6.18,3.02-14.08,3.54-19.97.43.06.15.1.27.16.41,2.05,5.53,3.49,11.9.89,17.18-1.63,3.31-4.6,5.7-7.49,7.99-9.75,7.68-19.49,15.36-29.21,23.04-7.01-10.63-20.68-14.02-32.66-18.28-9.09-3.2-18.78-8.76-23.11-16.81-10.79,9.13-27.75,11.12-39.8,3.4-17.01-10.9-21.16-34.92-37.32-47.05-3.91-2.92-9-6.11-8.71-11,.15-2.34,1.58-4.38,2.95-6.28,6.69-9.13,13.35-18.26,20.01-27.38,1.43-1.97,3.05-4.05,5.41-4.68,1.95-.54,4.02.09,5.95.68,4.72,1.48,9.43,2.96,14.15,4.44-4.25-8.2-5.51-18.19-4.31-27.49,1.78-13.96,8.25-26.84,14.63-39.4,16.76-4.28,34.24-5.74,51.47-4.32,5.59-10.1,18.67-13.92,30.2-16.48,5.7-1.28,11.51-2.57,17.34-2.18,5.83.39,11.79,2.71,15.29,7.36,3.96,5.25,5.38,13.61,11.78,14.93,4.84.99,9.57-3,14.43-2.27,6.45.97,8.77,8.99,9.33,15.46,1.09,12.41.94,24.91-.42,37.26,0,.09-.01.17-.04.26,6.89-1.11,14.35,2.7,18.66,8.45,4.96,6.64,6.56,15.17,7.22,23.43.69,8.26.66,16.67,2.95,24.63Z"/>
        <path class="st11" d="M236.47,1020.36c-15.25.98-30.34,4.06-44.75,9.08,9.29,6.39,15.69,16.86,17.09,28.04-7.02-3.71-14.06-7.42-21.07-11.16.11.48.22.99.33,1.47-.43-.64-.87-1.29-1.33-1.91l-.02-.03c-6.12-8.53-13.61-16.09-22.1-22.29,1.21-2.7,2-5.82,2.25-9.36.41-6.89-1.49-12.48-4.73-16.72,11.72-3.62,23.88-5.68,36.13-6.11-7.77,4.89-15.52,9.78-23.31,14.64,21.32-1.79,43.17,3.31,61.5,14.34Z"/>
        <path class="st16" d="M198.3,991.38h-.02c-12.25.44-24.42,2.49-36.13,6.11-5.56-7.22-15.12-10.45-24.05-9.38.34-9.15-.58-18.35-2.79-27.25-.32-1.3-.67-2.6-1.03-3.9-2.11-7.19-5.02-14.77-5.41-22.09,11.29,14.14,18.16,31.77,19.4,49.81,5.52-16.95,15.15-32.55,27.81-45.09-1.37,16.54-6.99,32.73-16.13,46.58,11.38-6.23,24.51-9.21,37.45-8.54-5.63,2.13-10.67,5.82-14.45,10.53,9.94.13,19.89,1.23,29.62,3.36-1.02-.02-2.01-.08-3-.12-3.76-.17-7.5-.19-11.25-.02Z"/>
        <path class="st16" d="M186.73,1045.85l-.92.68c-4.1-1.54-8.19-3.05-12.29-4.59,3.61,11.93,2.8,25.12-2.18,36.51-2.48-7.64-5.95-14.97-10.31-21.71-2.93,9.69-6.37,19.24-10.33,28.59-3.45-16.02-6.85-32.03-10.29-48.03,9.75.54,19.79-3.92,24.22-13.73,8.49,6.2,15.98,13.75,22.1,22.29Z"/>
        <path class="st21" d="M116.92,1008.03c2.05-12.21,11.22-18.74,21.18-19.92,8.93-1.07,18.49,2.16,24.05,9.38,3.24,4.23,5.14,9.82,4.73,16.72-.25,3.54-1.03,6.66-2.25,9.36-4.43,9.81-14.47,14.28-24.22,13.73-1.11-.05-2.19-.16-3.27-.37-5.2-.87-10.13-3.2-13.85-6.89v-.02c-4.44-4.4-7.21-10.76-6.72-18.97.06-.92.16-1.81.31-2.68,0-.09.01-.19.04-.31v-.02Z"/>
        <path class="st11" d="M135.31,960.86c2.21,8.9,3.13,18.11,2.79,27.25-9.95,1.17-19.13,7.7-21.18,19.92v.02c-.15.06-.29.12-.44.19h-.02c-4.39-1.39-8.78-2.78-13.17-4.12-.02-.02-.02-.05-.05-.03-10.45-5.99-19.54-14.38-26.38-24.28,9.92,2.38,19.84,4.73,29.74,7.11-6-15.04-7.91-31.68-5.53-47.71,13.61,12.99,23.6,29.7,28.57,47.83,1.34-8.82,3.24-17.56,5.67-26.18Z"/>
        <path class="st16" d="M123.28,1030.04c3.72,3.69,8.65,6.02,13.85,6.89-7.41,12.68-16.57,24.33-27.12,34.54.18-5.51.36-11.04.54-16.57,1.78-3.49,3.59-6.98,5.37-10.47,2.43-4.8,4.89-9.6,7.35-14.39Z"/>
        <path class="st11" d="M123.28,1030.02v.02c-2.46,4.8-4.92,9.59-7.35,14.39l-.32-.16c1.61-5.18,3.23-10.36,4.84-15.57-13.32,12.97-31.8,20.51-50.43,20.57,12.28-4.65,23.65-11.73,33.24-20.72-19.51,1.28-39.39-3.85-55.86-14.39,22.93-3.72,47.68,2.74,69.05-5.92h.02c.14.03.26.09.4.12-.15.87-.25,1.76-.31,2.68-.49,8.21,2.28,14.57,6.72,18.97Z"/>
        <path class="st16" d="M147.74,983.32c2.39-9.12,4.23-18.37,6.15-27.59,1.92-9.23,3.88-18.46,5.72-27.71-.86.11-1.72.23-2.59.34,5.68,9.98,4.34,21.92,2.94,32.82-.39,3.06-.8,6.13-1.08,9.2-.21,2.31-.62,4.93.27,7.16.67,1.67,2.19,2.9,4.05,2.88,2.07-.02,3.74-1.63,4.9-3.18,1.72-2.31,2.83-5.15,4.11-7.72,1.37-2.73,2.74-5.47,4.11-8.2,2.79-5.57,5.58-11.15,8.37-16.72,1.76-3.51,4.4-10.62,9.58-9.15,2.92.83,2,3.92,1.12,6.04-1.11,2.66-2.33,5.29-3.59,7.88-5.57,11.46-12.1,22.35-19.89,32.45-1.42,1.84,1.73,3.66,3.13,1.83,7.09-9.25,13.27-19.18,18.4-29.65,1.23-2.51,2.34-5.08,3.42-7.65,1.02-2.44,2.36-5.03,2.57-7.71.36-4.6-4.02-7.13-8.16-6.18-4.84,1.11-7,6.36-8.97,10.35-2.86,5.81-5.71,11.62-8.56,17.43-1.4,2.85-2.8,5.71-4.2,8.56-1.27,2.59-2.32,5.81-4.4,7.89-.88.88-2.27,1.76-3.22.45-.68-.93-.62-2.35-.58-3.43.12-3.04.51-6.09.9-9.11,1.6-12.6,3.66-25.99-2.8-37.65-.57-1.03-2.33-.86-2.59.34-1.95,9.23-3.8,18.48-5.68,27.72-1.88,9.25-3.85,18.5-5.25,27.84-.17,1.15,1.48,1.68,1.79.49h0Z"/>
        <path class="st16" d="M109.75,996.3c-6,1.01-12.11-2.19-17.07-5.19-4.58-2.77-9.24-5.72-13.31-9.21-4.12-3.54-7.4-7.82-8.8-13.14-1.48-5.64-.95-11.63.6-17.19,1.88-6.72,5.26-12.74,8.37-18.94.94-1.87-1.78-3.5-2.82-1.65-6.24,11.08-12.3,23.87-9.8,36.91,2.35,12.29,13.02,19.37,23.01,25.39,3.19,1.92,6.49,3.72,10.08,4.77,3.47,1.02,6.79,1.08,10.3.27,1.34-.31.75-2.25-.56-2.02h0Z"/>
        <path class="st16" d="M108.99,1021.24c-2.98,3.2-6.95,5.57-10.74,7.69-3.77,2.11-7.73,3.83-11.66,5.62-7.81,3.56-15.81,7.5-21.37,14.26-1.14,1.38-.1,3.53,1.79,3.07,3.81-.92,8.09-2.04,11.93-.65,2.93,1.06,5.49,3.81,4.72,7.1-.79,3.38-3.83,5.78-5.66,8.59-1.59,2.44-2.69,5.6-2.11,8.53.57,2.89,2.96,5.02,5.89,5.27,3.3.28,6.42-1.64,8.87-3.64,5.57-4.54,10.46-10.08,14.72-15.86,4.95-6.72,8.92-14.08,11.93-21.85.77-1.98-2.41-2.83-3.18-.88-5.18,13.24-13.51,25.29-24.18,34.69-2.04,1.8-5.86,5.09-8.84,3.67-2.8-1.33-1.55-5.21-.41-7.25,1.58-2.82,4.13-4.97,5.59-7.88,1.38-2.76,1.66-5.86.22-8.66-3.94-7.67-13.57-6.39-20.47-4.73.6,1.02,1.19,2.05,1.79,3.07,5.62-6.84,13.71-10.43,21.53-14.12,3.88-1.83,7.81-3.65,11.47-5.9,3.79-2.34,6.88-5.18,9.71-8.6.88-1.07-.57-2.6-1.55-1.55h0Z"/>
        <path class="st16" d="M131.88,1042.48c-2.48,8.59-5.29,17.08-7.73,25.68-1.35,4.78-4.07,13.93,2.97,15.75,2.81.73,5.31-.88,7.49-2.44,2.1-1.5,4.46-3.3,6.91-1.42,2.41,1.85,3.4,4.99,4.53,7.67,1.18,2.79,2.66,5.66,5.22,7.41,1.46,1,3.19,1.46,4.95,1.34,1.7-.11,3.46-.83,5.05.13,2.76,1.66,3.68,5.85,4.26,8.76.35,1.76,2.67,1.37,3.2,0,3.18-8.26,6.36-16.52,9.54-24.77h-3.18c.89,4.83,7,7.76,11.25,5.12,4.07-2.52,4.52-9,.86-12.07-1.58-1.33-3.87.89-2.3,2.3,1.96,1.75,2.12,5.38-.23,6.92-2.52,1.66-5.9-.47-6.4-3.15-.33-1.77-2.66-1.36-3.18,0-3.18,8.26-6.37,16.51-9.55,24.77h3.2c-1.02-5.15-3.44-11.85-9.65-12.11-1.54-.06-3.11.48-4.58-.17-1.33-.58-2.3-1.85-3.04-3.06-1.58-2.57-2.32-5.52-3.83-8.12-1.42-2.47-3.5-4.9-6.33-5.73-2.94-.85-5.68.39-8.05,2.06-1.36.96-4.07,3.65-5.85,2.16-1.94-1.62-.8-5.62-.27-7.62,2.49-9.57,4.64-19.22,7.09-28.79.39-1.5-1.89-2.13-2.32-.64h0Z"/>
        <path class="st16" d="M174.62,1034.11c4.55,7.26,11.17,12.98,18.61,17.13,3.8,2.12,7.8,3.89,11.87,5.44,4.05,1.54,8.86,3.55,13.13,1.66,3.49-1.54,5.58-5.36,3.94-9-.76-1.69-2.09-3.04-3.36-4.35-1.04-1.07-3.5-3.69-2-5.24,1.21-1.25,4.55-.44,6.03-.33,2.62.2,5.24.39,7.87.22,4.16-.27,8.24-1.43,11.49-4.13,3.2-2.66,4.98-6.69,4.01-10.83-.89-3.79-3.86-6.83-7.81-7.13-2.02-.15-1.96,2.91,0,3.12,3,.31,4.75,3.63,4.64,6.4-.14,3.5-3.11,6.11-6.1,7.46-3.78,1.71-8.08,1.57-12.13,1.29-3.26-.23-7.8-1.38-10.55,1.03-2.85,2.5-1.72,6.53.3,9.16,1.62,2.1,6.45,5.31,3.5,8.19-2.96,2.89-8.01.65-11.28-.48-3.58-1.24-7.1-2.68-10.49-4.39-7.73-3.9-14.85-9.08-19.62-16.42-.83-1.28-2.88-.1-2.06,1.2h0Z"/>
      </g>
      <g>
        <g>
          <path class="st7" d="M185.19,1112.59s16.68-253.78,8.63-335.16c-.36-3.7-.71-7.38-1.07-11-.01-.17-.03-.25-.03-.25-7.37-76.49-11.69-140.4-17.77-154.76-6.38-15.04-28.95-81.55-33.41-102.62-4.46-21.07-.13-52.15.62-64.02.75-11.89,5.69-58.09,9.35-67.57,3.66-9.48,21.73-18.07,37.42-20.81,15.69-2.76,19.79-.13,19.79-.13,0,0,23.97-15.53,30.95-20.88,6.98-5.37,18.94-8.35,24.79-3.91,5.85,4.46,7.93,7.66,7.93,7.66,0,0,10.32-12.52,21.05-13.09,10.7-.58,20.42,7.36,22.11,11.39,0,0,8.31-12.1,19.85-6.94,11.54,5.16,20.39,9.86,20.92,19.73,0,0,8.55,2.79,14.1,21.43,5.52,18.64,16.91,50.81,16.07,65.76-.82,14.95-8.62,27.06-13.9,37.08-5.29,9.99-54.46,85.5-56.15,90.95-1.72,5.46,46.76,451.54,87.69,548.41l-218.92-1.27Z"/>
          <path class="st4" d="M282.36,436.89s-13.76,2.03-14.87-7.41c0,0-1.03,5.56-6.39,9.48-5.36,3.92-19.03,10.05-26.54,10.26-7.51.21-11.66-9.59-11.66-9.59,0,0-3.62,11.53-9.66,12.68-6.04,1.15-22.85-15.92-22.63-24.94,0,0-8.98-17.09-6.44-27.67,0,0-2.03-13.76-15.31-11.19-13.28,2.57-2.39,5.47,2.86,14.15,5.25,8.68-11.94.27-14.16,13.76-2.21,13.49,10.68,3.57,20.49,15.6,9.81,12.03-.93,50.03,35.02,71.72,0,0,17.24-32.99,69.29-66.86Z"/>
          <path class="st4" d="M188.52,590.81s36.87-1.09,61.95-9.73c25.08-8.65,37.85-16.7,37.85-16.7,0,0-15.92,25.58-32.22,35.46-16.3,9.88-67.59-9.02-67.59-9.02Z"/>
          <path class="st4" d="M185.19,1112.59s16.68-253.78,8.63-335.16c-.36-3.7-.71-7.38-1.07-11,1.27,6.7,28.29,150.05,48.39,190.27,20.58,41.16,162.97,157.16,162.97,157.16l-218.92-1.27Z"/>
          <path class="st13" d="M185.82,357.17c2.29-.07,4.6.1,6.89.08,2.53-.02,5.06.03,7.59.15,4.7.22,9.4.63,14.06,1.31,3.82.56,7.79,1.37,11.16,3.33,3.17,1.84,4.73,4.8,5.19,8.38.54,4.28.4,8.74.45,13.05.05,4.67.02,9.34-.21,14-.44,8.86-1.74,17.54-3.97,26.12-1.16,4.45-2.49,8.78-4.28,13.03-1.83,4.35-4.17,8.17-6.98,11.94-.81,1.09,1.01,2.5,1.89,1.46,5.65-6.62,10.12-14.45,13.22-22.56,3.37-8.84,4.6-18.55,5.18-27.94.31-5,.38-10.01.32-15.02-.06-4.7,0-9.51-.65-14.17-.56-4.08-2.07-7.85-5.48-10.34-3.07-2.24-6.83-2.97-10.52-3.44-5.52-.7-11.05-1.39-16.61-1.63-2.76-.12-5.52-.17-8.28-.13-3.04.04-5.95.39-8.96.68-1.08.1-1.13,1.76,0,1.72h0Z"/>
          <path class="st13" d="M267.59,438.24c1.24-3.14,1.52-6.77,1.92-10.12.42-3.5.8-7.01,1.09-10.52.59-7.01,1.1-14.03,1.56-21.05.92-14.05,1.51-28.06,1.68-42.14.04-3.46,0-6.9-.39-10.34-.35-3.14-.93-6.64-2.73-9.3-.8-1.18-2.86-.49-2.4,1.01.9,2.98,1.85,5.75,2.07,8.89.2,2.93-.04,5.91-.26,8.83-.52,6.86-1.17,13.71-1.66,20.58-.97,13.68-1.78,27.38-2.68,41.06-.25,3.86-.46,7.71-.64,11.57-.18,3.78-.56,7.81.23,11.52.26,1.22,1.84.95,2.22,0h0Z"/>
          <path class="st13" d="M357.91,348.08c-3.21-1-6.62-1.02-9.96-1.2-3.43-.19-6.86-.48-10.27-.88-6.8-.79-13.56-2.1-20.16-3.89-6.51-1.76-12.91-4.02-19.12-6.66-5.56-2.37-11.95-5.74-18.13-3.65-5.15,1.73-8,7.05-8.91,12.1-1.05,5.85,0,11.78,2.13,17.27,1.07,2.74,2.11,5.31,3.76,7.78,1.66,2.49,3.58,4.78,5.77,6.83,4.43,4.15,9.73,7.35,15.14,10.06,11.54,5.76,25.36,10.48,32.49,22.01,1.72,2.78,6.11.23,4.39-2.57-6.05-9.82-16.43-15.3-26.7-19.74-10.42-4.5-22.53-8.89-29.17-18.71-1.66-2.45-3.14-5.08-3.98-7.92-.85-2.86-1.1-5.77-1.17-8.74-.12-4.81.78-11.4,5.55-13.88,5.55-2.89,11.98,1.37,16.96,3.66,5.95,2.74,12.11,4.97,18.41,6.75,6.93,1.95,14.01,3.35,21.16,4.16,3.62.41,7.25.66,10.9.72,3.65.06,7.49.09,10.92-1.27,1.03-.41,1.16-1.88,0-2.24h0Z"/>
          <path class="st13" d="M332.92,398.85c4.01-2.7,8.76-3.7,13.51-4.02,1.61-.11,1.6-2.37,0-2.5-5.34-.43-10.48,1.88-14.59,5.12-.8.63.24,1.97,1.08,1.41h0Z"/>
          <path class="st13" d="M323.38,398.44c-.71,2.57-1.68,5.02-2.33,7.63-.64,2.58-1.33,5.16-2.25,7.66-1.47,4-3.65,7.92-6.66,10.96-3.26,3.29-7.49,5.12-11.78,6.69-3.97,1.45-7.88,2.98-11.66,4.9-14.45,7.32-27.21,17.93-36.57,31.18-5.11,7.24-9.62,15.62-11.97,24.2-.45,1.62,1.89,2.19,2.47.68,3.02-7.81,6.41-15.16,11.18-22.08,4.6-6.67,10.08-12.71,16.26-17.95,6.31-5.36,13.39-9.81,21.07-12.92,8.13-3.29,17.68-4.39,24.21-10.7,3.56-3.44,6-7.79,7.68-12.41,1.03-2.82,1.76-5.73,2.27-8.69.24-1.39.49-2.79.57-4.2.09-1.55-.09-3.07,0-4.61.08-1.45-2.12-1.7-2.5-.34h0Z"/>
          <path class="st13" d="M339.57,472.41c-.41-3.18-.81-6.23-1.63-9.34-.85-3.22-1.87-6.37-3.11-9.45-1.2-2.99-2.5-5.95-4.02-8.79-1.54-2.87-3.15-5.89-5.49-8.2-1.26-1.24-3.91,0-3.18,1.85,1.17,2.97,2.94,5.66,4.43,8.47,1.41,2.67,2.76,5.37,3.96,8.14,2.46,5.7,4.59,11.71,6.23,17.69.41,1.49,3.01,1.26,2.8-.38h0Z"/>
          <path class="st13" d="M323.81,436.41c12.38,6.85,23.35,16.94,31.17,28.72,1.06,1.6,3.67.1,2.6-1.52-4.08-6.17-8.89-11.8-14.41-16.73-5.57-4.97-11.7-8.86-18.39-12.14-1.1-.54-2.06,1.06-.97,1.66h0Z"/>
          <path class="st3" d="M202.63,366.34s13.8-4.36,20.79,4.49c6.99,8.85-7.68,57.93-7.68,57.93,0,0-4.58-32.31-6.57-43.81-1.99-11.5-6.54-18.6-6.54-18.6Z"/>
          <path class="st3" d="M238.7,345.44s9.45-14.88,21.57-10.59c12.12,4.3,2.11,49.6.38,58.9,0,0-1.32-40.88-10.49-41.23-9.16-.35-20.29,3.27-20.29,3.27l8.83-10.35Z"/>
          <path class="st3" d="M156.54,474.3s18.3,45,30.92,57.38c12.62,12.38,70.66,16.71,70.66,16.71,0,0-15.49,12.66-38.01,20.33-22.52,7.67-54.45-8.42-61.28-29.75-6.84-21.33-2.29-64.66-2.29-64.66Z"/>
          <path class="st16" d="M276.26,355.07s10.65,14.91,27.44,11.69c16.79-3.23,11.62-22.61,11.62-22.61,0,0-24.25-11.56-29.94-10.79-5.69.77-9.12,21.71-9.12,21.71Z"/>
          <path class="st16" d="M231.14,435.72s13.37-3.76,21.12,3.03c0,0-8.29,9.87-17.7,10.47-9.41.6-10.02-5.01-10.09-7.51-.07-2.5,6.67-6,6.67-6Z"/>
          <path class="st16" d="M271.13,431.3s10.21-.21,12.5,4.14c0,0-5.18,3.17-9.43,1.03-4.25-2.14-3.07-5.16-3.07-5.16Z"/>
          <path class="st13" d="M193.13,397.76c-1.4,5.28-2.74,10.4-3.35,15.85-.57,5.07-.45,10.18.49,15.2,1.55,8.29,5.8,16.15,12.89,20.91,1.35.91,2.61-1.28,1.27-2.18-16.13-10.84-12.83-33.05-9.44-49.28.25-1.2-1.53-1.72-1.85-.51h0Z"/>
          <path class="st13" d="M184.75,400.51c1.7-3.5,2.65-7.39,3.78-11.11,1.15-3.8,2.29-7.61,3.39-11.42.49-1.69-2.11-2.39-2.62-.72-1.16,3.8-2.27,7.61-3.38,11.43-1.09,3.73-2.39,7.5-2.87,11.36-.11.9,1.33,1.25,1.71.46h0Z"/>
          <path class="st13" d="M181.23,391.17c-.69-2.75-1.32-5.52-1.81-8.31-.24-1.39-.46-2.78-.64-4.18-.18-1.4-.2-2.86-.52-4.23-.24-1.03-1.69-.73-1.76.24-.11,1.46.2,3.02.38,4.47.18,1.36.39,2.71.64,4.06.53,2.85,1.21,5.64,2.11,8.39.33,1.01,1.86.6,1.6-.44h0Z"/>
          <path class="st16" d="M202.63,445.39s1.57-7.73,5.7-7.41c4.13.31,10.34-.09,11.51,3.7,1.17,3.79-.78,9.8-8.6,10.48-7.82.68-8.6-6.77-8.6-6.77Z"/>
          <path class="st13" d="M284.36,436.74c4.04,1.48,8.59-.28,11.66-3.04,3.51-3.14,5.78-7.67,7.87-11.81,2.33-4.61,4.55-9.35,6.32-14.21,1.79-4.93,3.08-9.99,4.41-15.05.45-1.71-2.14-2.42-2.64-.73-2.64,8.86-6.4,17.65-10.43,25.97-3.36,6.93-7.52,17.36-16.88,16.56-1.4-.12-1.47,1.88-.31,2.3h0Z"/>
        </g>
        <g>
          <path class="st17" d="M318.59,618.76s-.98-43.34,20.52-60.05c21.5-16.71,64.89-56.48,64.89-56.48,0,0-.8,34.38-24.65,88.54-23.85,54.16-60.76,27.99-60.76,27.99Z"/>
          <path class="st17" d="M316.91,626.83s-3.88,16.11,34.93,32.87c38.82,16.75,82.49-65.47,82.49-65.47,0,0-36.49-21.16-69.81,4.64-33.31,25.8-47.62,27.97-47.62,27.97Z"/>
          <path class="st20" d="M260.39,737.39s46.18-18.91,71.21-77.34c25.03-58.43-.98-56.23-.98-56.23l-70.23,133.57Z"/>
          <path class="st17" d="M320,596.21s-16.65,38.63-42.56,54.72c-25.91,16.09-85.39,6.22-85.39,6.22l-20.53-23.78s-9.51,13.79-5.29,34.29c4.23,20.5,8.31,47.68,8.31,47.68,0,0-7.28,18.28-3.36,31.82,3.92,13.54,17.44,29.72,17.44,29.72,0,0,77.02-34.69,104.9-67.01,27.88-32.32,35.88-98.61,35.88-98.61,0,0,6.27-15.91-9.41-15.05Z"/>
          <path class="st20" d="M177.5,668.36s23.94,17.02,49.81,16.41c25.87-.61,68.17-25.21,68.17-25.21,0,0-29.06,30.2-46.99,42.03-17.93,11.82-70.99-33.22-70.99-33.22Z"/>
          <path class="st20" d="M186.94,713.39s18.67,3.22,38.42,2.42c19.75-.8-39.71,43.17-39.71,43.17,0,0,3.77-23.96,2.01-31.91-1.76-7.95-.72-13.68-.72-13.68Z"/>
          <path class="st9" d="M202.41,672.77c32.22,6.63,66.96-1.31,94.15-19.53,3.71-2.49,7.29-5.17,10.71-8.03,3.66-3.06,6.9-6.69,10.7-9.56-.78-.6-1.56-1.2-2.34-1.8-9.37,30.06-24.18,59.59-49.77,79.02-6.74,5.11-14.05,9.28-21.78,12.7,1.11,1.12,2.23,2.23,3.34,3.34,1.5-2.08,2.73-4.36,4.24-6.45,1.51-2.1,3.01-4.19,4.52-6.29,3.01-4.19,6.02-8.39,9.02-12.58.84-1.17-.8-2.74-1.97-1.97-7.75,5.12-16.61,8.39-25.75,9.99-1.77.31-1.03,3.03.75,2.71,9.43-1.72,18.25-5.29,26.45-10.21-.58-.75-1.16-1.51-1.74-2.26-3.19,4.05-6.38,8.11-9.57,12.16-1.59,2.03-3.19,4.06-4.78,6.09-1.59,2.03-3.43,3.84-5.01,5.86-.68.87-.98,1.94-.38,2.96.5.86,1.78,1.53,2.76,1.12,29.91-12.23,51.62-38.99,63.96-68.15,3.74-8.83,6.58-17.87,8.77-27.19.42-1.78-1.91-2.74-2.91-1.23-2.21,3.35-5.47,6.09-8.49,8.7-3.09,2.67-6.32,5.18-9.67,7.52-6.56,4.59-13.57,8.55-20.88,11.83-14.67,6.58-30.62,10.44-46.68,11.18-9.09.41-18.24-.09-27.22-1.54-1.05-.17-1.52,1.4-.45,1.62h0Z"/>
          <path class="st9" d="M344.62,615.23c5.07-3.38,9.47-7.67,14.57-11.05,5.02-3.33,10.43-6.2,16.04-8.43,11.43-4.54,23.56-6.53,35.83-6.36,6.97.09,13.6,1.15,20.38,2.71,1.92.44,2.58-2.22.8-2.9-11.93-4.55-25.34-5.32-37.88-3.51-12.63,1.82-25.01,6.41-35.68,13.43-5.76,3.79-12.14,8.45-15.61,14.55-.54.95.58,2.21,1.56,1.56h0Z"/>
          <path class="st6" d="M354.52,557.89c-1,3.36-2.43,6.62-3.65,9.91-1.22,3.3-2.49,6.58-3.86,9.82-2.73,6.47-6.03,12.69-9.71,18.68-1.09,1.77.37,3.64,2.19,3.82,11.68,1.14,19.19-11.11,24.9-19.29,7.3-10.45,14.1-21.22,20.1-32.48,3.42-6.43,6.59-12.99,9.52-19.66.77-1.75-1.82-3.29-2.6-1.52-4.87,11.08-10.42,21.85-16.65,32.23-3.09,5.14-6.35,10.17-9.78,15.09-3.33,4.77-6.75,9.57-10.87,13.7-4.08,4.09-8.58,7.41-14.62,6.84.73,1.27,1.46,2.55,2.19,3.82,3.76-6.18,6.92-12.68,9.59-19.41,1.29-3.25,2.42-6.58,3.3-9.97.96-3.65,1.38-7.32,1.97-11.03.21-1.31-1.63-1.88-2.02-.56h0Z"/>
          <path class="st6" d="M386.6,612.46c-5.36,3.83-10.47,7.95-16.17,11.3-5.73,3.37-11.86,6.05-18.24,7.92-1.59.47-3.2.88-4.81,1.25-1.38.31-2.8.58-3.99,1.4-2.6,1.78-2.45,5.28-.15,7.24,2.78,2.38,6.93,1.01,10.12.43,3.88-.7,7.77-1.4,11.65-2.11,8.79-1.59,17.59-3.13,26.34-4.92-.49-1.15-.97-2.31-1.46-3.46-12.86,9.14-28.92,12.57-44.03,16.04-1.67.38-1.7,3.04,0,3.41,12.94,2.84,26.87,3.74,39.82.37,1.9-.5,1.07-3.22-.8-2.9-12.73,2.21-25.52,2.66-38.08-.88v3.41c15.71-3.52,31.25-7.47,45-16.18,1.91-1.21.6-3.77-1.46-3.46-13.89,2.09-27.64,4.97-41.52,7.07-.42.06-3.17.38-3.03-.48.06-.38,2.91-.82,3.32-.91,2.85-.68,5.65-1.52,8.41-2.51,5.59-2.01,10.96-4.62,15.98-7.8,5.42-3.43,10.69-7.65,14.44-12.9.56-.78-.55-1.89-1.33-1.33h0Z"/>
          <path class="st6" d="M183.85,687.89c5.62,7.02,13.33,12,21.56,15.53,8.2,3.52,17.2,5.81,26.17,5.82,17.09.02,33.7-6.44,46.74-17.37,7.23-6.06,13.18-13.57,17.54-21.92-.82-.34-1.63-.69-2.45-1.03-2.91,14.31-11.95,26.8-23.34,35.63-1.5,1.16.45,3.64,2.02,2.62,13.06-8.47,21.17-22.41,23.9-37.54.25-1.39-1.72-2.49-2.45-1.03-7.17,14.5-19.99,26.02-35.02,31.95-15.41,6.08-33.08,5.49-48.54-.19-8.89-3.26-16.82-8.59-24.21-14.42-1.39-1.1-3.05.55-1.94,1.94h0Z"/>
          <path class="st6" d="M311.71,669.78c-4.57,8.24-10.33,15.98-16.15,23.37-5.89,7.48-12.39,14.5-19.35,21-13.76,12.84-29.72,23.62-46.7,31.74-9.68,4.63-19.8,8.27-30.12,11.19-1.8.51-1.04,3.21.77,2.79,18.78-4.29,36.8-12.29,53.03-22.61,16.23-10.33,30.84-23.71,42.79-38.77,3.39-4.27,6.61-8.69,9.51-13.31,2.91-4.64,5.37-9.58,7.9-14.43.58-1.11-1.07-2.08-1.68-.98h0Z"/>
        </g>
      </g>
    </g>
  </g>
  <g id="TEXTS">
    <text/>
  </g>
</svg>